<mxfile modified="2020-09-23T13:39:35.556Z" host="app.diagrams.net" agent="5.0 (Windows NT 10.0; Win64; x64) AppleWebKit/537.36 (KHTML, like Gecko) Chrome/85.0.4183.102 Safari/537.36" etag="pUu_5glCNh8Pv5LYSuE6" version="13.7.3" type="github">
  <diagram id="WI9T0HZ2pTsCkuznbFz-" name="Page-1">
    <mxGraphModel dx="883" dy="619" grid="1" gridSize="10" guides="1" tooltips="1" connect="1" arrows="1" fold="1" page="1" pageScale="1" pageWidth="1169" pageHeight="827" math="0" shadow="0">
      <root>
        <mxCell id="0" />
        <mxCell id="1" parent="0" />
        <mxCell id="AcxdMaKK0mU5kZiv2lnr-4" value="" style="rounded=0;whiteSpace=wrap;html=1;fillColor=#f5f5f5;fontColor=#333333;verticalAlign=top;strokeColor=none;" parent="1" vertex="1">
          <mxGeometry x="200" y="160" width="460" height="400" as="geometry" />
        </mxCell>
        <mxCell id="AcxdMaKK0mU5kZiv2lnr-9" value="Azure Blob&lt;br&gt;Storage&lt;br&gt;" style="aspect=fixed;html=1;perimeter=none;align=center;shadow=0;dashed=0;image;fontSize=12;image=img/lib/mscae/BlobBlock.svg;labelBackgroundColor=none;" parent="1" vertex="1">
          <mxGeometry x="39" y="499.99999999999994" width="62" height="53" as="geometry" />
        </mxCell>
        <mxCell id="wS5lQGi0n9frKkNvJUFP-1" value="Operator / Partner&#xa;Web Server" style="shape=image;verticalLabelPosition=bottom;labelBackgroundColor=none;verticalAlign=top;aspect=fixed;imageAspect=0;image=data:image/svg+xml,PHN2ZyB4bWxuczpjYz0iaHR0cDovL2NyZWF0aXZlY29tbW9ucy5vcmcvbnMjIiB4bWxuczpkYz0iaHR0cDovL3B1cmwub3JnL2RjL2VsZW1lbnRzLzEuMS8iIHhtbG5zOmlua3NjYXBlPSJodHRwOi8vd3d3Lmlua3NjYXBlLm9yZy9uYW1lc3BhY2VzL2lua3NjYXBlIiB4bWxuczpyZGY9Imh0dHA6Ly93d3cudzMub3JnLzE5OTkvMDIvMjItcmRmLXN5bnRheC1ucyMiIHhtbG5zOnNvZGlwb2RpPSJodHRwOi8vc29kaXBvZGkuc291cmNlZm9yZ2UubmV0L0RURC9zb2RpcG9kaS0wLmR0ZCIgeG1sbnM6c3ZnPSJodHRwOi8vd3d3LnczLm9yZy8yMDAwL3N2ZyIgeG1sbnM9Imh0dHA6Ly93d3cudzMub3JnLzIwMDAvc3ZnIiB4bWxuczp4bGluaz0iaHR0cDovL3d3dy53My5vcmcvMTk5OS94bGluayIgdmVyc2lvbj0iMS4xIiBpZD0ic3ZnMTE3MDkiIGlua3NjYXBlOnZlcnNpb249IjAuOTIuMyAoMjQwNTU0NiwgMjAxOC0wMy0xMSkiIHNvZGlwb2RpOmRvY25hbWU9IndlYl9zZXJ2ZXIuc3ZnIiB4PSIwcHgiIHk9IjBweCIgdmlld0JveD0iMCAwIDU4Ljc3IDY5Ljc1IiBzdHlsZT0iZW5hYmxlLWJhY2tncm91bmQ6bmV3IDAgMCA1OC43NyA2OS43NTsiIHhtbDpzcGFjZT0icHJlc2VydmUiPiYjeGE7PHNvZGlwb2RpOm5hbWVkdmlldyBib3JkZXJjb2xvcj0iIzY2NjY2NiIgYm9yZGVyb3BhY2l0eT0iMSIgZml0LW1hcmdpbi1ib3R0b209IjAiIGZpdC1tYXJnaW4tbGVmdD0iMCIgZml0LW1hcmdpbi1yaWdodD0iMCIgZml0LW1hcmdpbi10b3A9IjAiIGdyaWR0b2xlcmFuY2U9IjEwIiBndWlkZXRvbGVyYW5jZT0iMTAiIGlkPSJuYW1lZHZpZXcxMTcxMSIgaW5rc2NhcGU6Y3VycmVudC1sYXllcj0ic3ZnMTE3MDkiIGlua3NjYXBlOmN4PSIyOS42Mzk2NjgiIGlua3NjYXBlOmN5PSI0MC4wNzc3NjYiIGlua3NjYXBlOnBhZ2VvcGFjaXR5PSIwIiBpbmtzY2FwZTpwYWdlc2hhZG93PSIyIiBpbmtzY2FwZTp3aW5kb3ctaGVpZ2h0PSIxMDE3IiBpbmtzY2FwZTp3aW5kb3ctbWF4aW1pemVkPSIxIiBpbmtzY2FwZTp3aW5kb3ctd2lkdGg9IjE5MjAiIGlua3NjYXBlOndpbmRvdy14PSItOCIgaW5rc2NhcGU6d2luZG93LXk9Ii04IiBpbmtzY2FwZTp6b29tPSI2LjQ1MzI4MTkiIG9iamVjdHRvbGVyYW5jZT0iMTAiIHBhZ2Vjb2xvcj0iI2ZmZmZmZiIgc2hvd2dyaWQ9ImZhbHNlIj4mI3hhOwk8L3NvZGlwb2RpOm5hbWVkdmlldz4mI3hhOzxnIGlkPSJnMTE3MDciIHRyYW5zZm9ybT0idHJhbnNsYXRlKC0wLjc1MDAzNjE5LC0wLjc1KSI+JiN4YTsJPHRpdGxlIGlkPSJ0aXRsZTExNTgzIj5QYWdlLTE8L3RpdGxlPiYjeGE7CTxnIGlkPSJncm91cDIzODMtMSIgdHJhbnNmb3JtPSJ0cmFuc2xhdGUoMS41LC0xLjUpIj4mI3hhOwkJPHRpdGxlIGlkPSJ0aXRsZTExNTg1Ij5XZWIgU2VydmVyPC90aXRsZT4mI3hhOwkJPGcgaWQ9Imdyb3VwMjM4NC0yIj4mI3hhOwkJCTx0aXRsZSBpZD0idGl0bGUxMTU4NyI+U2hlZXQuMjM4NDwvdGl0bGU+JiN4YTsJCQk8ZyBpZD0iZ3JvdXAyMzg1LTMiPiYjeGE7CQkJCTx0aXRsZSBpZD0idGl0bGUxMTU4OSI+ZzE2NDA4PC90aXRsZT4mI3hhOwkJCQk8ZyBpZD0ic2hhcGUyMzg2LTQiPiYjeGE7CQkJCQk8dGl0bGUgaWQ9InRpdGxlMTE1OTEiPnJlY3QxNjM4MDwvdGl0bGU+JiN4YTsJCQkJCSYjeGE7CQkJCQkJPHJlY3QgaWQ9InJlY3QxMTU5MyIgeD0iMCIgeT0iMyIgc3R5bGU9ImZpbGw6I0ZGRkZGRjtzdHJva2U6IzU1NkE4QTtzdHJva2Utd2lkdGg6MS41O3N0cm9rZS1taXRlcmxpbWl0OjM7IiB3aWR0aD0iMzkuNzUiIGhlaWdodD0iNjguMjUiLz4mI3hhOwkJCQk8L2c+JiN4YTsJCQkJPGcgaWQ9Imdyb3VwMjM4Ny02IiB0cmFuc2Zvcm09InRyYW5zbGF0ZSgxLjUsLTAuNzUpIj4mI3hhOwkJCQkJPHRpdGxlIGlkPSJ0aXRsZTExNTk2Ij5nMTY0MDA8L3RpdGxlPiYjeGE7CQkJCQk8ZyBpZD0ic2hhcGUyMzg4LTciIHRyYW5zZm9ybT0idHJhbnNsYXRlKDE4KSI+JiN4YTsJCQkJCQk8dGl0bGUgaWQ9InRpdGxlMTE1OTgiPnJlY3QxNjM4MjwvdGl0bGU+JiN4YTsJCQkJCQk8cmVjdCBpZD0icmVjdDExNjAwIiB4PSIwIiB5PSI0LjUiIHN0eWxlPSJmaWxsOiNFNUU1RTU7IiB3aWR0aD0iMTkuNSIgaGVpZ2h0PSI2Ni43NSIvPiYjeGE7CQkJCQk8L2c+JiN4YTsJCQkJCTxnIGlkPSJzaGFwZTIzODktOSIgdHJhbnNmb3JtPSJ0cmFuc2xhdGUoMCwtNDgpIj4mI3hhOwkJCQkJCTx0aXRsZSBpZD0idGl0bGUxMTYwMyI+cmVjdDE2Mzg0PC90aXRsZT4mI3hhOwkJCQkJCTxyZWN0IGlkPSJyZWN0MTE2MDUiIHg9IjAiIHk9IjY5IiBzdHlsZT0iZmlsbDojMkJDN0Y0OyIgd2lkdGg9IjE4IiBoZWlnaHQ9IjIuMjUiLz4mI3hhOwkJCQkJPC9nPiYjeGE7CQkJCQk8ZyBpZD0ic2hhcGUyMzkwLTExIiB0cmFuc2Zvcm09InRyYW5zbGF0ZSgwLC01OC41KSI+JiN4YTsJCQkJCQk8dGl0bGUgaWQ9InRpdGxlMTE2MDgiPnBvbHlnb24xNjM4NjwvdGl0bGU+JiN4YTsJCQkJCQk8cmVjdCBpZD0icmVjdDExNjEwIiB4PSIwIiB5PSI2OSIgc3R5bGU9ImZpbGw6bm9uZTsiIHdpZHRoPSIyNyIgaGVpZ2h0PSIyLjI1Ii8+JiN4YTsJCQkJCTwvZz4mI3hhOwkJCQkJPGcgaWQ9InNoYXBlMjM5MS0xMyIgdHJhbnNmb3JtPSJ0cmFuc2xhdGUoMCwtNTguNSkiPiYjeGE7CQkJCQkJPHRpdGxlIGlkPSJ0aXRsZTExNjEzIj5wb2x5bGluZTE2Mzg4PC90aXRsZT4mI3hhOwkJCQkJCTxyZWN0IGlkPSJyZWN0MTE2MTUiIHg9IjAiIHk9IjY5IiBzdHlsZT0iZmlsbDpub25lOyIgd2lkdGg9IjI3IiBoZWlnaHQ9IjIuMjUiLz4mI3hhOwkJCQkJPC9nPiYjeGE7CQkJCQk8ZyBpZD0ic2hhcGUyMzkyLTE1IiB0cmFuc2Zvcm09InRyYW5zbGF0ZSgwLC01My4yNSkiPiYjeGE7CQkJCQkJPHRpdGxlIGlkPSJ0aXRsZTExNjE4Ij5yZWN0MTYzOTA8L3RpdGxlPiYjeGE7CQkJCQkJPHJlY3QgaWQ9InJlY3QxMTYyMCIgeD0iMCIgeT0iNjkiIHN0eWxlPSJmaWxsOiMyQkM3RjQ7IiB3aWR0aD0iMTgiIGhlaWdodD0iMi4yNSIvPiYjeGE7CQkJCQk8L2c+JiN4YTsJCQkJCTxnIGlkPSJzaGFwZTIzOTMtMTciIHRyYW5zZm9ybT0idHJhbnNsYXRlKDAsLTU4LjUpIj4mI3hhOwkJCQkJCTx0aXRsZSBpZD0idGl0bGUxMTYyMyI+cmVjdDE2MzkyPC90aXRsZT4mI3hhOwkJCQkJCTxyZWN0IGlkPSJyZWN0MTE2MjUiIHg9IjAiIHk9IjY5IiBzdHlsZT0iZmlsbDojMkJDN0Y0OyIgd2lkdGg9IjE4IiBoZWlnaHQ9IjIuMjUiLz4mI3hhOwkJCQkJPC9nPiYjeGE7CQkJCQk8ZyBpZD0ic2hhcGUyMzk0LTE5IiB0cmFuc2Zvcm09InRyYW5zbGF0ZSgxOCwtNDgpIj4mI3hhOwkJCQkJCTx0aXRsZSBpZD0idGl0bGUxMTYyOCI+cmVjdDE2Mzk0PC90aXRsZT4mI3hhOwkJCQkJCTxyZWN0IGlkPSJyZWN0MTE2MzAiIHg9IjAiIHk9IjY5IiBzdHlsZT0iZmlsbDojNTU2QThBOyIgd2lkdGg9IjE5LjUiIGhlaWdodD0iMi4yNSIvPiYjeGE7CQkJCQk8L2c+JiN4YTsJCQkJCTxnIGlkPSJzaGFwZTIzOTUtMjEiIHRyYW5zZm9ybT0idHJhbnNsYXRlKDE4LC01My4yNSkiPiYjeGE7CQkJCQkJPHRpdGxlIGlkPSJ0aXRsZTExNjMzIj5yZWN0MTYzOTY8L3RpdGxlPiYjeGE7CQkJCQkJPHJlY3QgaWQ9InJlY3QxMTYzNSIgeD0iMCIgeT0iNjkiIHN0eWxlPSJmaWxsOiM1NTZBOEE7IiB3aWR0aD0iMTkuNSIgaGVpZ2h0PSIyLjI1Ii8+JiN4YTsJCQkJCTwvZz4mI3hhOwkJCQkJPGcgaWQ9InNoYXBlMjM5Ni0yMyIgdHJhbnNmb3JtPSJ0cmFuc2xhdGUoMTgsLTU4LjUpIj4mI3hhOwkJCQkJCTx0aXRsZSBpZD0idGl0bGUxMTYzOCI+cmVjdDE2Mzk4PC90aXRsZT4mI3hhOwkJCQkJCTxyZWN0IGlkPSJyZWN0MTE2NDAiIHg9IjAiIHk9IjY5IiBzdHlsZT0iZmlsbDojNTU2QThBOyIgd2lkdGg9IjE5LjUiIGhlaWdodD0iMi4yNSIvPiYjeGE7CQkJCQk8L2c+JiN4YTsJCQkJPC9nPiYjeGE7CQkJCTxnIGlkPSJzaGFwZTIzOTctMjUiIHRyYW5zZm9ybT0idHJhbnNsYXRlKDAuNzUsLTU5LjI1KSI+JiN4YTsJCQkJCTx0aXRsZSBpZD0idGl0bGUxMTY0NCI+cmVjdDE2NDAyPC90aXRsZT4mI3hhOwkJCQkJPHJlY3QgaWQ9InJlY3QxMTY0NiIgeD0iMCIgeT0iNjkiIHN0eWxlPSJmaWxsOiM1NTZBOEE7IiB3aWR0aD0iMi4yNSIgaGVpZ2h0PSIyLjI1Ii8+JiN4YTsJCQkJPC9nPiYjeGE7CQkJCTxnIGlkPSJzaGFwZTIzOTgtMjciIHRyYW5zZm9ybT0idHJhbnNsYXRlKDAuNzUsLTU0KSI+JiN4YTsJCQkJCTx0aXRsZSBpZD0idGl0bGUxMTY0OSI+cmVjdDE2NDA0PC90aXRsZT4mI3hhOwkJCQkJPHJlY3QgaWQ9InJlY3QxMTY1MSIgeD0iMCIgeT0iNjkiIHN0eWxlPSJmaWxsOiM1NTZBOEE7IiB3aWR0aD0iMi4yNSIgaGVpZ2h0PSIyLjI1Ii8+JiN4YTsJCQkJPC9nPiYjeGE7CQkJCTxnIGlkPSJzaGFwZTIzOTktMjkiIHRyYW5zZm9ybT0idHJhbnNsYXRlKDAuNzUsLTQ4Ljc1KSI+JiN4YTsJCQkJCTx0aXRsZSBpZD0idGl0bGUxMTY1NCI+cmVjdDE2NDA2PC90aXRsZT4mI3hhOwkJCQkJPHJlY3QgaWQ9InJlY3QxMTY1NiIgeD0iMCIgeT0iNjkiIHN0eWxlPSJmaWxsOiM1NTZBOEE7IiB3aWR0aD0iMi4yNSIgaGVpZ2h0PSIyLjI1Ii8+JiN4YTsJCQkJPC9nPiYjeGE7CQkJPC9nPiYjeGE7CQk8L2c+JiN4YTsJCTxnIGlkPSJncm91cDI0MDAtMzEiIHRyYW5zZm9ybT0idHJhbnNsYXRlKDI0LjA2NTgsLTIuMjc3NjcpIj4mI3hhOwkJCTx0aXRsZSBpZD0idGl0bGUxMTY2MSI+SFRUUC4xNDcyNDwvdGl0bGU+JiN4YTsJCQk8ZyBpZD0ic2hhcGUyNDAxLTMyIiB0cmFuc2Zvcm09InRyYW5zbGF0ZSg1LjAzOTM3LC01LjE4NjkxKSI+JiN4YTsJCQkJPHRpdGxlIGlkPSJ0aXRsZTExNjYzIj5wYXRoOTYxMDwvdGl0bGU+JiN4YTsJCQkJJiN4YTsJCQkJCTxwYXRoIGlkPSJwYXRoMTE2NjUiIGlua3NjYXBlOmNvbm5lY3Rvci1jdXJ2YXR1cmU9IjAiIHN0eWxlPSJmaWxsOiNGRkZGRkY7c3Ryb2tlOiM1NTZBOEE7c3Ryb2tlLXdpZHRoOjAuNzU7c3Ryb2tlLW1pdGVybGltaXQ6MzsiIGQ9IiAgICAgIE0yOC4xOCw1OS41OGMwLDkuMTItNy4zOSwxNi41MS0xNi41MSwxNi41MVMtNC44NCw2OC43LTQuODQsNTkuNThjMC05LjEyLDcuMzktMTYuNTEsMTYuNTEtMTYuNTEgICAgICBDMjAuNzksNDMuMDgsMjguMTcsNTAuNDYsMjguMTgsNTkuNTh6Ii8+JiN4YTsJCQk8L2c+JiN4YTsJCQk8ZyBpZD0ic2hhcGUyNDAyLTM0IiB0cmFuc2Zvcm09InRyYW5zbGF0ZSgwLjIwMzczMiwtMC4zNTEyNzQpIj4mI3hhOwkJCQk8dGl0bGUgaWQ9InRpdGxlMTE2NjgiPnBhdGg5NjEyPC90aXRsZT4mI3hhOwkJCQkmI3hhOwkJCQkJPHBhdGggaWQ9InBhdGgxMTY3MCIgaW5rc2NhcGU6Y29ubmVjdG9yLWN1cnZhdHVyZT0iMCIgc3R5bGU9ImZpbGw6I0Q0RTJGNTtzdHJva2U6IzU1NkE4QTtzdHJva2Utd2lkdGg6MC43NTtzdHJva2UtbWl0ZXJsaW1pdDozOyIgZD0iICAgICAgTTMzLjAyLDU0Ljc0YzAsOS4xMi03LjM5LDE2LjUxLTE2LjUxLDE2LjUxQzcuMzksNzEuMjUsMCw2My44NiwwLDU0Ljc0YzAsMCwwLDAsMCwwSDMzLjAyeiIvPiYjeGE7CQkJPC9nPiYjeGE7CQkJPGcgaWQ9InNoYXBlMjQwMy0zNiIgdHJhbnNmb3JtPSJ0cmFuc2xhdGUoMS4yNTc1NSwtNC45Mzg1MikiPiYjeGE7CQkJCTx0aXRsZSBpZD0idGl0bGUxMTY3MyI+cGF0aDk2MTQ8L3RpdGxlPiYjeGE7CQkJCSYjeGE7CQkJCQk8cGF0aCBpZD0icGF0aDExNjc1IiBpbmtzY2FwZTpjb25uZWN0b3ItY3VydmF0dXJlPSIwIiBzdHlsZT0iZmlsbDojNTU2QThBO3N0cm9rZTojNTU2QThBO3N0cm9rZS13aWR0aDowLjc1O3N0cm9rZS1taXRlcmxpbWl0OjM7IiBkPSIgICAgICBNMTUuNDYsNDMuODdjOC41NCwwLDE1LjQ1LDYuOTIsMTUuNDUsMTUuNDZjMCw4LjU0LTYuOTIsMTUuNDUtMTUuNDYsMTUuNDVDNi45Miw3NC43OCwwLDY3Ljg2LDAsNTkuMzMgICAgICBDMCw1MC43OSw2LjkyLDQzLjg3LDE1LjQ2LDQzLjg3QzE1LjQ1LDQzLjg3LDE1LjQ2LDQzLjg3LDE1LjQ2LDQzLjg3eiBNMTUuNDYsNDIuNDdjLTkuMzEsMC0xNi44Niw3LjU1LTE2Ljg2LDE2Ljg2ICAgICAgczcuNTUsMTYuODYsMTYuODYsMTYuODZzMTYuODYtNy41NSwxNi44Ni0xNi44NmMwLDAsMCwwLDAsMEMzMi4zMiw1MC4wMiwyNC43Nyw0Mi40NywxNS40Niw0Mi40N3oiLz4mI3hhOwkJCTwvZz4mI3hhOwkJCTxnIGlkPSJncm91cDI0MDQtMzgiPiYjeGE7CQkJCTx0aXRsZSBpZD0idGl0bGUxMTY3OCI+Zzk2MjA8L3RpdGxlPiYjeGE7CQkJCTxnIGlkPSJzaGFwZTI0MDUtMzkiIHRyYW5zZm9ybT0idHJhbnNsYXRlKDguOTg1NTkpIj4mI3hhOwkJCQkJPHRpdGxlIGlkPSJ0aXRsZTExNjgwIj5wYXRoOTYxNjwvdGl0bGU+JiN4YTsJCQkJCSYjeGE7CQkJCQkJPHBhdGggaWQ9InBhdGgxMTY4MiIgaW5rc2NhcGU6Y29ubmVjdG9yLWN1cnZhdHVyZT0iMCIgc3R5bGU9ImZpbGw6IzU1NkE4QTtzdHJva2U6IzU1NkE4QTtzdHJva2Utd2lkdGg6MC43NTtzdHJva2UtbWl0ZXJsaW1pdDozOyIgZD0iICAgICAgIE03LjM4LDM5LjEyYzIuODEsMCw1Ljk3LDYuNTcsNS45NywxNS4zNnMtMy4xNiwxNS4zNi01Ljk3LDE1LjM2cy01Ljk3LTYuNTYtNS45Ny0xNS4zNVM0LjU3LDM5LjEyLDcuMzgsMzkuMTJ6IE03LjM4LDM3LjcyICAgICAgIEMzLjMsMzcuNzIsMCw0NS4yMiwwLDU0LjQ4czMuMywxNi43Nyw3LjM4LDE2Ljc3YzQuMDcsMCw3LjM3LTcuNSw3LjM3LTE2Ljc2UzExLjQ1LDM3LjcyLDcuMzgsMzcuNzJ6Ii8+JiN4YTsJCQkJPC9nPiYjeGE7CQkJCTxnIGlkPSJzaGFwZTI0MDYtNDEiIHRyYW5zZm9ybT0idHJhbnNsYXRlKDAsLTE2Ljg2MTIpIj4mI3hhOwkJCQkJPHRpdGxlIGlkPSJ0aXRsZTExNjg1Ij5saW5lOTYxODwvdGl0bGU+JiN4YTsJCQkJCSYjeGE7CQkJCQkJPHBhdGggaWQ9InBhdGgxMTY4NyIgaW5rc2NhcGU6Y29ubmVjdG9yLWN1cnZhdHVyZT0iMCIgc3R5bGU9ImZpbGw6bm9uZTtzdHJva2U6IzU1NkE4QTtzdHJva2Utd2lkdGg6MS41O3N0cm9rZS1taXRlcmxpbWl0OjM7IiBkPSIgICAgICAgTTAsNzEuMjVoMzIuODciLz4mI3hhOwkJCQk8L2c+JiN4YTsJCQk8L2c+JiN4YTsJCQk8ZyBpZD0ic2hhcGUyNDA3LTQ0IiB0cmFuc2Zvcm09InRyYW5zbGF0ZSg0LjA3NDc3LC0yNS4yOTE3KSI+JiN4YTsJCQkJPHRpdGxlIGlkPSJ0aXRsZTExNjkxIj5wYXRoOTYyMjwvdGl0bGU+JiN4YTsJCQkJPHBhdGggaWQ9InBhdGgxMTY5MyIgaW5rc2NhcGU6Y29ubmVjdG9yLWN1cnZhdHVyZT0iMCIgc3R5bGU9ImZpbGw6bm9uZTsiIGQ9Ik0wLDY5LjM1YzMuMDgsMS4yLDcuNjEsMS45LDEyLjY0LDEuOSAgICAgIHM5LjU1LTAuNywxMi42NC0xLjlIMHoiLz4mI3hhOwkJCQkmI3hhOwkJCQkJPHBhdGggaWQ9InBhdGgxMTY5NSIgaW5rc2NhcGU6Y29ubmVjdG9yLWN1cnZhdHVyZT0iMCIgc3R5bGU9ImZpbGw6bm9uZTtzdHJva2U6IzU1NkE4QTtzdHJva2Utd2lkdGg6MS41O3N0cm9rZS1taXRlcmxpbWl0OjM7IiBkPSIgICAgICBNMCw2OS4zNWMzLjA4LDEuMiw3LjYxLDEuOSwxMi42NCwxLjlzOS41NS0wLjcsMTIuNjQtMS45Ii8+JiN4YTsJCQk8L2c+JiN4YTsJCQk8ZyBpZD0ic2hhcGUyNDA4LTQ3IiB0cmFuc2Zvcm09InRyYW5zbGF0ZSg0LjA3NDc3LC02LjUyNjY4KSI+JiN4YTsJCQkJPHRpdGxlIGlkPSJ0aXRsZTExNjk4Ij5wYXRoOTYyNDwvdGl0bGU+JiN4YTsJCQkJPHBhdGggaWQ9InBhdGgxMTcwMCIgaW5rc2NhcGU6Y29ubmVjdG9yLWN1cnZhdHVyZT0iMCIgc3R5bGU9ImZpbGw6bm9uZTsiIGQ9Ik0wLDcxLjI1YzMuMDgtMS4yLDcuNjEtMS45LDEyLjY0LTEuOSAgICAgIHM5LjU1LDAuNywxMi42NCwxLjlIMHoiLz4mI3hhOwkJCQkmI3hhOwkJCQkJPHBhdGggaWQ9InBhdGgxMTcwMiIgaW5rc2NhcGU6Y29ubmVjdG9yLWN1cnZhdHVyZT0iMCIgc3R5bGU9ImZpbGw6bm9uZTtzdHJva2U6IzU1NkE4QTtzdHJva2Utd2lkdGg6MS41O3N0cm9rZS1taXRlcmxpbWl0OjM7IiBkPSIgICAgICBNMCw3MS4yNWMzLjA4LTEuMiw3LjYxLTEuOSwxMi42NC0xLjlzOS41NSwwLjcsMTIuNjQsMS45Ii8+JiN4YTsJCQk8L2c+JiN4YTsJCTwvZz4mI3hhOwk8L2c+JiN4YTs8L2c+JiN4YTs8L3N2Zz4=;" vertex="1" parent="1">
          <mxGeometry x="70" y="200" width="59" height="70" as="geometry" />
        </mxCell>
        <mxCell id="wS5lQGi0n9frKkNvJUFP-2" value="" style="shape=image;verticalLabelPosition=bottom;labelBackgroundColor=#ffffff;verticalAlign=top;aspect=fixed;imageAspect=0;image=data:image/svg+xml,PHN2ZyB4bWxuczpjYz0iaHR0cDovL2NyZWF0aXZlY29tbW9ucy5vcmcvbnMjIiB4bWxuczpkYz0iaHR0cDovL3B1cmwub3JnL2RjL2VsZW1lbnRzLzEuMS8iIHhtbG5zOmlua3NjYXBlPSJodHRwOi8vd3d3Lmlua3NjYXBlLm9yZy9uYW1lc3BhY2VzL2lua3NjYXBlIiB4bWxuczpyZGY9Imh0dHA6Ly93d3cudzMub3JnLzE5OTkvMDIvMjItcmRmLXN5bnRheC1ucyMiIHhtbG5zOnNvZGlwb2RpPSJodHRwOi8vc29kaXBvZGkuc291cmNlZm9yZ2UubmV0L0RURC9zb2RpcG9kaS0wLmR0ZCIgeG1sbnM6c3ZnPSJodHRwOi8vd3d3LnczLm9yZy8yMDAwL3N2ZyIgeG1sbnM9Imh0dHA6Ly93d3cudzMub3JnLzIwMDAvc3ZnIiB4bWxuczp4bGluaz0iaHR0cDovL3d3dy53My5vcmcvMTk5OS94bGluayIgdmVyc2lvbj0iMS4xIiBpZD0ic3ZnMjM3ODAiIHg9IjBweCIgeT0iMHB4IiB2aWV3Qm94PSIwIDAgNjMuMTEgNjkuNzUiIHN0eWxlPSJlbmFibGUtYmFja2dyb3VuZDpuZXcgMCAwIDYzLjExIDY5Ljc1OyIgeG1sOnNwYWNlPSJwcmVzZXJ2ZSI+JiN4YTs8c29kaXBvZGk6bmFtZWR2aWV3IGJvcmRlcmNvbG9yPSIjNjY2NjY2IiBib3JkZXJvcGFjaXR5PSIxIiBmaXQtbWFyZ2luLWJvdHRvbT0iMCIgZml0LW1hcmdpbi1sZWZ0PSIwIiBmaXQtbWFyZ2luLXJpZ2h0PSIwIiBmaXQtbWFyZ2luLXRvcD0iMCIgZ3JpZHRvbGVyYW5jZT0iMTAiIGd1aWRldG9sZXJhbmNlPSIxMCIgaWQ9Im5hbWVkdmlldzIzNzgyIiBpbmtzY2FwZTpjdXJyZW50LWxheWVyPSJzdmcyMzc4MCIgaW5rc2NhcGU6Y3g9IjMyLjczNjI0NSIgaW5rc2NhcGU6Y3k9IjIyLjQ1OTA2OSIgaW5rc2NhcGU6cGFnZW9wYWNpdHk9IjAiIGlua3NjYXBlOnBhZ2VzaGFkb3c9IjIiIGlua3NjYXBlOndpbmRvdy1oZWlnaHQ9IjEwMTciIGlua3NjYXBlOndpbmRvdy1tYXhpbWl6ZWQ9IjEiIGlua3NjYXBlOndpbmRvdy13aWR0aD0iMTkyMCIgaW5rc2NhcGU6d2luZG93LXg9Ii04IiBpbmtzY2FwZTp3aW5kb3cteT0iLTgiIGlua3NjYXBlOnpvb209IjQuNTYzMTU5NCIgb2JqZWN0dG9sZXJhbmNlPSIxMCIgcGFnZWNvbG9yPSIjZmZmZmZmIiBzaG93Z3JpZD0iZmFsc2UiPiYjeGE7CTwvc29kaXBvZGk6bmFtZWR2aWV3PiYjeGE7PGcgaWQ9ImcyMzc3OCIgdHJhbnNmb3JtPSJ0cmFuc2xhdGUoLTAuNzUsLTAuNzUpIj4mI3hhOwk8dGl0bGUgaWQ9InRpdGxlMjM2NTMiPlBhZ2UtMTwvdGl0bGU+JiN4YTsJPGcgaWQ9Imdyb3VwMjQ5Ni0xIiB0cmFuc2Zvcm09InRyYW5zbGF0ZSgxLjUsLTEuNSkiPiYjeGE7CQk8dGl0bGUgaWQ9InRpdGxlMjM2NTUiPkFwcGxpY2F0aW9uIFNlcnZlcjwvdGl0bGU+JiN4YTsJCTxnIGlkPSJncm91cDI0OTctMiI+JiN4YTsJCQk8dGl0bGUgaWQ9InRpdGxlMjM2NTciPlNoZWV0LjI0OTc8L3RpdGxlPiYjeGE7CQkJPGcgaWQ9Imdyb3VwMjQ5OC0zIj4mI3hhOwkJCQk8dGl0bGUgaWQ9InRpdGxlMjM2NTkiPmcxNjQwODwvdGl0bGU+JiN4YTsJCQkJPGcgaWQ9InNoYXBlMjQ5OS00Ij4mI3hhOwkJCQkJPHRpdGxlIGlkPSJ0aXRsZTIzNjYxIj5yZWN0MTYzODA8L3RpdGxlPiYjeGE7CQkJCQkmI3hhOwkJCQkJCTxyZWN0IGlkPSJyZWN0MjM2NjMiIHg9IjAiIHk9IjMiIHN0eWxlPSJmaWxsLXJ1bGU6ZXZlbm9kZDtjbGlwLXJ1bGU6ZXZlbm9kZDtmaWxsOiNGRkZGRkY7c3Ryb2tlOiM1NTZBOEE7c3Ryb2tlLXdpZHRoOjEuNTtzdHJva2UtbWl0ZXJsaW1pdDozOyIgd2lkdGg9IjM5Ljc1IiBoZWlnaHQ9IjY4LjI1Ii8+JiN4YTsJCQkJPC9nPiYjeGE7CQkJCTxnIGlkPSJncm91cDI1MDAtNiIgdHJhbnNmb3JtPSJ0cmFuc2xhdGUoMS41LC0wLjc1KSI+JiN4YTsJCQkJCTx0aXRsZSBpZD0idGl0bGUyMzY2NiI+ZzE2NDAwPC90aXRsZT4mI3hhOwkJCQkJPGcgaWQ9InNoYXBlMjUwMS03IiB0cmFuc2Zvcm09InRyYW5zbGF0ZSgxOCkiPiYjeGE7CQkJCQkJPHRpdGxlIGlkPSJ0aXRsZTIzNjY4Ij5yZWN0MTYzODI8L3RpdGxlPiYjeGE7CQkJCQkJPHJlY3QgaWQ9InJlY3QyMzY3MCIgeD0iMCIgeT0iNC41IiBzdHlsZT0iZmlsbC1ydWxlOmV2ZW5vZGQ7Y2xpcC1ydWxlOmV2ZW5vZGQ7ZmlsbDojRTVFNUU1OyIgd2lkdGg9IjE5LjUiIGhlaWdodD0iNjYuNzUiLz4mI3hhOwkJCQkJPC9nPiYjeGE7CQkJCQk8ZyBpZD0ic2hhcGUyNTAyLTkiIHRyYW5zZm9ybT0idHJhbnNsYXRlKDAsLTQ4KSI+JiN4YTsJCQkJCQk8dGl0bGUgaWQ9InRpdGxlMjM2NzMiPnJlY3QxNjM4NDwvdGl0bGU+JiN4YTsJCQkJCQk8cmVjdCBpZD0icmVjdDIzNjc1IiB4PSIwIiB5PSI2OSIgc3R5bGU9ImZpbGwtcnVsZTpldmVub2RkO2NsaXAtcnVsZTpldmVub2RkO2ZpbGw6IzJCQzdGNDsiIHdpZHRoPSIxOCIgaGVpZ2h0PSIyLjI1Ii8+JiN4YTsJCQkJCTwvZz4mI3hhOwkJCQkJPGcgaWQ9InNoYXBlMjUwMy0xMSIgdHJhbnNmb3JtPSJ0cmFuc2xhdGUoMCwtNTguNSkiPiYjeGE7CQkJCQkJPHRpdGxlIGlkPSJ0aXRsZTIzNjc4Ij5wb2x5Z29uMTYzODY8L3RpdGxlPiYjeGE7CQkJCQkJPHJlY3QgaWQ9InJlY3QyMzY4MCIgeD0iMCIgeT0iNjkiIHN0eWxlPSJmaWxsOm5vbmU7IiB3aWR0aD0iMjciIGhlaWdodD0iMi4yNSIvPiYjeGE7CQkJCQk8L2c+JiN4YTsJCQkJCTxnIGlkPSJzaGFwZTI1MDQtMTMiIHRyYW5zZm9ybT0idHJhbnNsYXRlKDAsLTU4LjUpIj4mI3hhOwkJCQkJCTx0aXRsZSBpZD0idGl0bGUyMzY4MyI+cG9seWxpbmUxNjM4ODwvdGl0bGU+JiN4YTsJCQkJCQk8cmVjdCBpZD0icmVjdDIzNjg1IiB4PSIwIiB5PSI2OSIgc3R5bGU9ImZpbGw6bm9uZTsiIHdpZHRoPSIyNyIgaGVpZ2h0PSIyLjI1Ii8+JiN4YTsJCQkJCTwvZz4mI3hhOwkJCQkJPGcgaWQ9InNoYXBlMjUwNS0xNSIgdHJhbnNmb3JtPSJ0cmFuc2xhdGUoMCwtNTMuMjUpIj4mI3hhOwkJCQkJCTx0aXRsZSBpZD0idGl0bGUyMzY4OCI+cmVjdDE2MzkwPC90aXRsZT4mI3hhOwkJCQkJCTxyZWN0IGlkPSJyZWN0MjM2OTAiIHg9IjAiIHk9IjY5IiBzdHlsZT0iZmlsbC1ydWxlOmV2ZW5vZGQ7Y2xpcC1ydWxlOmV2ZW5vZGQ7ZmlsbDojMkJDN0Y0OyIgd2lkdGg9IjE4IiBoZWlnaHQ9IjIuMjUiLz4mI3hhOwkJCQkJPC9nPiYjeGE7CQkJCQk8ZyBpZD0ic2hhcGUyNTA2LTE3IiB0cmFuc2Zvcm09InRyYW5zbGF0ZSgwLC01OC41KSI+JiN4YTsJCQkJCQk8dGl0bGUgaWQ9InRpdGxlMjM2OTMiPnJlY3QxNjM5MjwvdGl0bGU+JiN4YTsJCQkJCQk8cmVjdCBpZD0icmVjdDIzNjk1IiB4PSIwIiB5PSI2OSIgc3R5bGU9ImZpbGwtcnVsZTpldmVub2RkO2NsaXAtcnVsZTpldmVub2RkO2ZpbGw6IzJCQzdGNDsiIHdpZHRoPSIxOCIgaGVpZ2h0PSIyLjI1Ii8+JiN4YTsJCQkJCTwvZz4mI3hhOwkJCQkJPGcgaWQ9InNoYXBlMjUwNy0xOSIgdHJhbnNmb3JtPSJ0cmFuc2xhdGUoMTgsLTQ4KSI+JiN4YTsJCQkJCQk8dGl0bGUgaWQ9InRpdGxlMjM2OTgiPnJlY3QxNjM5NDwvdGl0bGU+JiN4YTsJCQkJCQk8cmVjdCBpZD0icmVjdDIzNzAwIiB4PSIwIiB5PSI2OSIgc3R5bGU9ImZpbGwtcnVsZTpldmVub2RkO2NsaXAtcnVsZTpldmVub2RkO2ZpbGw6IzU1NkE4QTsiIHdpZHRoPSIxOS41IiBoZWlnaHQ9IjIuMjUiLz4mI3hhOwkJCQkJPC9nPiYjeGE7CQkJCQk8ZyBpZD0ic2hhcGUyNTA4LTIxIiB0cmFuc2Zvcm09InRyYW5zbGF0ZSgxOCwtNTMuMjUpIj4mI3hhOwkJCQkJCTx0aXRsZSBpZD0idGl0bGUyMzcwMyI+cmVjdDE2Mzk2PC90aXRsZT4mI3hhOwkJCQkJCTxyZWN0IGlkPSJyZWN0MjM3MDUiIHg9IjAiIHk9IjY5IiBzdHlsZT0iZmlsbC1ydWxlOmV2ZW5vZGQ7Y2xpcC1ydWxlOmV2ZW5vZGQ7ZmlsbDojNTU2QThBOyIgd2lkdGg9IjE5LjUiIGhlaWdodD0iMi4yNSIvPiYjeGE7CQkJCQk8L2c+JiN4YTsJCQkJCTxnIGlkPSJzaGFwZTI1MDktMjMiIHRyYW5zZm9ybT0idHJhbnNsYXRlKDE4LC01OC41KSI+JiN4YTsJCQkJCQk8dGl0bGUgaWQ9InRpdGxlMjM3MDgiPnJlY3QxNjM5ODwvdGl0bGU+JiN4YTsJCQkJCQk8cmVjdCBpZD0icmVjdDIzNzEwIiB4PSIwIiB5PSI2OSIgc3R5bGU9ImZpbGwtcnVsZTpldmVub2RkO2NsaXAtcnVsZTpldmVub2RkO2ZpbGw6IzU1NkE4QTsiIHdpZHRoPSIxOS41IiBoZWlnaHQ9IjIuMjUiLz4mI3hhOwkJCQkJPC9nPiYjeGE7CQkJCTwvZz4mI3hhOwkJCQk8ZyBpZD0ic2hhcGUyNTEwLTI1IiB0cmFuc2Zvcm09InRyYW5zbGF0ZSgwLjc1LC01OS4yNSkiPiYjeGE7CQkJCQk8dGl0bGUgaWQ9InRpdGxlMjM3MTQiPnJlY3QxNjQwMjwvdGl0bGU+JiN4YTsJCQkJCTxyZWN0IGlkPSJyZWN0MjM3MTYiIHg9IjAiIHk9IjY5IiBzdHlsZT0iZmlsbC1ydWxlOmV2ZW5vZGQ7Y2xpcC1ydWxlOmV2ZW5vZGQ7ZmlsbDojNTU2QThBOyIgd2lkdGg9IjIuMjUiIGhlaWdodD0iMi4yNSIvPiYjeGE7CQkJCTwvZz4mI3hhOwkJCQk8ZyBpZD0ic2hhcGUyNTExLTI3IiB0cmFuc2Zvcm09InRyYW5zbGF0ZSgwLjc1LC01NCkiPiYjeGE7CQkJCQk8dGl0bGUgaWQ9InRpdGxlMjM3MTkiPnJlY3QxNjQwNDwvdGl0bGU+JiN4YTsJCQkJCTxyZWN0IGlkPSJyZWN0MjM3MjEiIHg9IjAiIHk9IjY5IiBzdHlsZT0iZmlsbC1ydWxlOmV2ZW5vZGQ7Y2xpcC1ydWxlOmV2ZW5vZGQ7ZmlsbDojNTU2QThBOyIgd2lkdGg9IjIuMjUiIGhlaWdodD0iMi4yNSIvPiYjeGE7CQkJCTwvZz4mI3hhOwkJCQk8ZyBpZD0ic2hhcGUyNTEyLTI5IiB0cmFuc2Zvcm09InRyYW5zbGF0ZSgwLjc1LC00OC43NSkiPiYjeGE7CQkJCQk8dGl0bGUgaWQ9InRpdGxlMjM3MjQiPnJlY3QxNjQwNjwvdGl0bGU+JiN4YTsJCQkJCTxyZWN0IGlkPSJyZWN0MjM3MjYiIHg9IjAiIHk9IjY5IiBzdHlsZT0iZmlsbC1ydWxlOmV2ZW5vZGQ7Y2xpcC1ydWxlOmV2ZW5vZGQ7ZmlsbDojNTU2QThBOyIgd2lkdGg9IjIuMjUiIGhlaWdodD0iMi4yNSIvPiYjeGE7CQkJCTwvZz4mI3hhOwkJCTwvZz4mI3hhOwkJPC9nPiYjeGE7CQk8ZyBpZD0iZ3JvdXAyNTEzLTMxIiB0cmFuc2Zvcm09InRyYW5zbGF0ZSgxNy4zNjIyLC0zLjY5MDE1KSI+JiN4YTsJCQk8dGl0bGUgaWQ9InRpdGxlMjM3MzEiPlNoZWV0LjI1MTM8L3RpdGxlPiYjeGE7CQkJPGcgaWQ9InNoYXBlMjUxNC0zMiI+JiN4YTsJCQkJPHRpdGxlIGlkPSJ0aXRsZTIzNzMzIj5TaGVldC4yNTE0PC90aXRsZT4mI3hhOwkJCQk8cGF0aCBpZD0icGF0aDIzNzM1IiBpbmtzY2FwZTpjb25uZWN0b3ItY3VydmF0dXJlPSIwIiBzdHlsZT0iZmlsbC1ydWxlOmV2ZW5vZGQ7Y2xpcC1ydWxlOmV2ZW5vZGQ7ZmlsbDojNTU2QThBOyIgZD0iTTQ1LDY3Ljk3ICAgICAgYzAsMy4yOC0wLjQsMy4wOC0zLjY4LDMuMDhIMy41OEMwLjMsNzEuMDUsMCw3MC43NSwwLDY3LjQ4VjQyLjE0YzAtMy4yNywwLjctMy4zNywzLjg3LTMuMzdoMzYuMjZjMy4yOCwwLDQuNzctMC42LDQuNzcsMi41OCAgICAgIEw0NSw2Ny45N3oiLz4mI3hhOwkJCTwvZz4mI3hhOwkJCTxnIGlkPSJzaGFwZTI1MTUtMzQiIHRyYW5zZm9ybT0idHJhbnNsYXRlKDIuNjgyMTIsLTEuOTg2NzUpIj4mI3hhOwkJCQk8dGl0bGUgaWQ9InRpdGxlMjM3MzgiPlNoZWV0LjI1MTU8L3RpdGxlPiYjeGE7CQkJCTxwYXRoIGlkPSJwYXRoMjM3NDAiIGlua3NjYXBlOmNvbm5lY3Rvci1jdXJ2YXR1cmU9IjAiIHN0eWxlPSJmaWxsLXJ1bGU6ZXZlbm9kZDtjbGlwLXJ1bGU6ZXZlbm9kZDtmaWxsOiNFNUU1RTU7IiBkPSIgICAgICBNMzkuNjQsNjguMzdjMCwyLjg4LTAuNCwyLjY4LTMuMjgsMi42OEgzLjA4QzAuMiw3MS4wNSwwLDcwLjc1LDAsNjcuOTdWNDUuNjJjMC0yLjg4LDAuNi0yLjk4LDMuNDgtMi45OGgzMS45OCAgICAgIGMyLjg4LDAsNC4xOC0wLjYsNC4xOCwyLjI5VjY4LjM3eiIvPiYjeGE7CQkJPC9nPiYjeGE7CQkJPGcgaWQ9InNoYXBlMjUxNi0zNiIgdHJhbnNmb3JtPSJ0cmFuc2xhdGUoNS41NjI5MSwtNC41Njk1NCkiPiYjeGE7CQkJCTx0aXRsZSBpZD0idGl0bGUyMzc0MyI+U2hlZXQuMjUxNjwvdGl0bGU+JiN4YTsJCQkJPHBhdGggaWQ9InBhdGgyMzc0NSIgaW5rc2NhcGU6Y29ubmVjdG9yLWN1cnZhdHVyZT0iMCIgc3R5bGU9ImZpbGwtcnVsZTpldmVub2RkO2NsaXAtcnVsZTpldmVub2RkO2ZpbGw6IzU1RDJGNjsiIGQ9IiAgICAgIE00Ljk3LDY4Ljc3YzAsMS4zOS0xLjEsMi40OC0yLjQ5LDIuNDhTMCw3MC4xNiwwLDY4Ljc3VjUwLjQ5QzAsNDkuMSwxLjA5LDQ4LDIuNDgsNDhzMi40OSwxLjEsMi40OSwyLjQ5TDQuOTcsNjguNzd6Ii8+JiN4YTsJCQk8L2c+JiN4YTsJCQk8ZyBpZD0ic2hhcGUyNTE3LTM4IiB0cmFuc2Zvcm09InRyYW5zbGF0ZSgxMy43MDg2LC01LjY2MjI1KSI+JiN4YTsJCQkJPHRpdGxlIGlkPSJ0aXRsZTIzNzQ4Ij5TaGVldC4yNTE3PC90aXRsZT4mI3hhOwkJCQkmI3hhOwkJCQkJPHJlY3QgaWQ9InJlY3QyMzc1MCIgeD0iMCIgeT0iNTAuMDkiIHN0eWxlPSJmaWxsLXJ1bGU6ZXZlbm9kZDtjbGlwLXJ1bGU6ZXZlbm9kZDtmaWxsOiM5MjczQjY7IiB3aWR0aD0iMTcuMzgiIGhlaWdodD0iMjEuMTYiLz4mI3hhOwkJCTwvZz4mI3hhOwkJCTxnIGlkPSJzaGFwZTI1MTgtNDAiIHRyYW5zZm9ybT0idHJhbnNsYXRlKDMyLjU4MjgsLTIzLjI0NSkiPiYjeGE7CQkJCTx0aXRsZSBpZD0idGl0bGUyMzc1MyI+U2hlZXQuMjUxODwvdGl0bGU+JiN4YTsJCQkJPHBhdGggaWQ9InBhdGgyMzc1NSIgaW5rc2NhcGU6Y29ubmVjdG9yLWN1cnZhdHVyZT0iMCIgc3R5bGU9ImZpbGwtcnVsZTpldmVub2RkO2NsaXAtcnVsZTpldmVub2RkO2ZpbGw6I0FCOUFDMDsiIGQ9Ik0wLDY3LjY3ICAgICAgdjMuNThoNy44NXYtMy41OEgweiBNNy4zNSw3MC44NUgwLjZ2LTIuNzhoNi43NVY3MC44NXoiLz4mI3hhOwkJCTwvZz4mI3hhOwkJCTxnIGlkPSJzaGFwZTI1MTktNDIiIHRyYW5zZm9ybT0idHJhbnNsYXRlKDMyLjU4MjgsLTE2Ljk4NjgpIj4mI3hhOwkJCQk8dGl0bGUgaWQ9InRpdGxlMjM3NTgiPlNoZWV0LjI1MTk8L3RpdGxlPiYjeGE7CQkJCTxyZWN0IGlkPSJyZWN0MjM3NjAiIHg9IjAiIHk9IjY3LjY3IiBzdHlsZT0iZmlsbC1ydWxlOmV2ZW5vZGQ7Y2xpcC1ydWxlOmV2ZW5vZGQ7ZmlsbDojQkFEODBBOyIgd2lkdGg9IjcuODUiIGhlaWdodD0iMy41OCIvPiYjeGE7CQkJPC9nPiYjeGE7CQkJPGcgaWQ9InNoYXBlMjUyMC00NCIgdHJhbnNmb3JtPSJ0cmFuc2xhdGUoMzIuNTgyOCwtMTAuNTI5OCkiPiYjeGE7CQkJCTx0aXRsZSBpZD0idGl0bGUyMzc2MyI+U2hlZXQuMjUyMDwvdGl0bGU+JiN4YTsJCQkJPHJlY3QgaWQ9InJlY3QyMzc2NSIgeD0iMCIgeT0iNjcuNjciIHN0eWxlPSJmaWxsLXJ1bGU6ZXZlbm9kZDtjbGlwLXJ1bGU6ZXZlbm9kZDtmaWxsOiNCQUQ4MEE7IiB3aWR0aD0iNy44NSIgaGVpZ2h0PSIzLjU4Ii8+JiN4YTsJCQk8L2c+JiN4YTsJCQk8ZyBpZD0ic2hhcGUyNTIxLTQ2IiB0cmFuc2Zvcm09InRyYW5zbGF0ZSgzMi41ODI4LC01LjU2MjkxKSI+JiN4YTsJCQkJPHRpdGxlIGlkPSJ0aXRsZTIzNzY4Ij5TaGVldC4yNTIxPC90aXRsZT4mI3hhOwkJCQk8cmVjdCBpZD0icmVjdDIzNzcwIiB4PSIwIiB5PSI2Ny42NyIgc3R5bGU9ImZpbGwtcnVsZTpldmVub2RkO2NsaXAtcnVsZTpldmVub2RkO2ZpbGw6I0JBRDgwQTsiIHdpZHRoPSI3Ljg1IiBoZWlnaHQ9IjMuNTgiLz4mI3hhOwkJCTwvZz4mI3hhOwkJPC9nPiYjeGE7CQk8ZyBpZD0iZ3JvdXAyNTIyLTQ4IiB0cmFuc2Zvcm09InRyYW5zbGF0ZSgyOS43MDcyLC04LjQyMzU3KSI+JiN4YTsJCQk8dGl0bGUgaWQ9InRpdGxlMjM3NzQiPldlYnNpdGVzPC90aXRsZT4mI3hhOwkJPC9nPiYjeGE7CTwvZz4mI3hhOzwvZz4mI3hhOzwvc3ZnPg==;" vertex="1" parent="1">
          <mxGeometry x="38" y="610" width="63" height="70" as="geometry" />
        </mxCell>
        <mxCell id="wS5lQGi0n9frKkNvJUFP-3" value="Function" style="shape=image;verticalLabelPosition=bottom;labelBackgroundColor=#F5f5f5;verticalAlign=top;aspect=fixed;imageAspect=0;image=data:image/svg+xml,PHN2ZyB4bWxuczpjYz0iaHR0cDovL2NyZWF0aXZlY29tbW9ucy5vcmcvbnMjIiB4bWxuczpkYz0iaHR0cDovL3B1cmwub3JnL2RjL2VsZW1lbnRzLzEuMS8iIHhtbG5zOmlua3NjYXBlPSJodHRwOi8vd3d3Lmlua3NjYXBlLm9yZy9uYW1lc3BhY2VzL2lua3NjYXBlIiB4bWxuczpyZGY9Imh0dHA6Ly93d3cudzMub3JnLzE5OTkvMDIvMjItcmRmLXN5bnRheC1ucyMiIHhtbG5zOnNvZGlwb2RpPSJodHRwOi8vc29kaXBvZGkuc291cmNlZm9yZ2UubmV0L0RURC9zb2RpcG9kaS0wLmR0ZCIgeG1sbnM6c3ZnPSJodHRwOi8vd3d3LnczLm9yZy8yMDAwL3N2ZyIgeG1sbnM9Imh0dHA6Ly93d3cudzMub3JnLzIwMDAvc3ZnIiB4bWxuczp4bGluaz0iaHR0cDovL3d3dy53My5vcmcvMTk5OS94bGluayIgdmVyc2lvbj0iMS4xIiBpZD0ic3ZnNTg1MzciIGlua3NjYXBlOnZlcnNpb249IjAuOTIuMyAoMjQwNTU0NiwgMjAxOC0wMy0xMSkiIHNvZGlwb2RpOmRvY25hbWU9ImF6dXJlX2Z1bmN0aW9ucy5zdmciIHg9IjBweCIgeT0iMHB4IiB2aWV3Qm94PSIwIDAgNTcuMzEgNTIuODEiIHN0eWxlPSJlbmFibGUtYmFja2dyb3VuZDpuZXcgMCAwIDU3LjMxIDUyLjgxOyIgeG1sOnNwYWNlPSJwcmVzZXJ2ZSI+JiN4YTs8c29kaXBvZGk6bmFtZWR2aWV3IGJvcmRlcmNvbG9yPSIjNjY2NjY2IiBib3JkZXJvcGFjaXR5PSIxIiBmaXQtbWFyZ2luLWJvdHRvbT0iMCIgZml0LW1hcmdpbi1sZWZ0PSIwIiBmaXQtbWFyZ2luLXJpZ2h0PSIwIiBmaXQtbWFyZ2luLXRvcD0iMCIgZ3JpZHRvbGVyYW5jZT0iMTAiIGd1aWRldG9sZXJhbmNlPSIxMCIgaWQ9Im5hbWVkdmlldzU4NTM5IiBpbmtzY2FwZTpjdXJyZW50LWxheWVyPSJzdmc1ODUzNyIgaW5rc2NhcGU6Y3g9IjM5LjQ3MTQ0MiIgaW5rc2NhcGU6Y3k9IjI2LjM0NTIxNyIgaW5rc2NhcGU6cGFnZW9wYWNpdHk9IjAiIGlua3NjYXBlOnBhZ2VzaGFkb3c9IjIiIGlua3NjYXBlOndpbmRvdy1oZWlnaHQ9IjEwMTciIGlua3NjYXBlOndpbmRvdy1tYXhpbWl6ZWQ9IjEiIGlua3NjYXBlOndpbmRvdy13aWR0aD0iMTkyMCIgaW5rc2NhcGU6d2luZG93LXg9Ii04IiBpbmtzY2FwZTp3aW5kb3cteT0iLTgiIGlua3NjYXBlOnpvb209IjYuMzkxNjgyOCIgb2JqZWN0dG9sZXJhbmNlPSIxMCIgcGFnZWNvbG9yPSIjZmZmZmZmIiBzaG93Z3JpZD0iZmFsc2UiPiYjeGE7CTwvc29kaXBvZGk6bmFtZWR2aWV3PiYjeGE7PGcgaWQ9Imc1ODUzNSIgdHJhbnNmb3JtPSJ0cmFuc2xhdGUoLTkuNTYzNDE2MSwtOS41Njc2MDUyKSI+JiN4YTsJPHRpdGxlIGlkPSJ0aXRsZTU4NTEwIj5QYWdlLTE8L3RpdGxlPiYjeGE7CTxnIGlkPSJncm91cDQ0MzYtMSIgdHJhbnNmb3JtPSJ0cmFuc2xhdGUoOS4zOTU0MywtOS41NjI1KSI+JiN4YTsJCTx0aXRsZSBpZD0idGl0bGU1ODUxMiI+QXp1cmUgRnVuY3Rpb25zLjQzNzwvdGl0bGU+JiN4YTsJCTxnIGlkPSJzaGFwZTQ0MzctMiIgdHJhbnNmb3JtPSJ0cmFuc2xhdGUoMzkuMjA1OSwtMTAuMjkzOCkiPiYjeGE7CQkJPHRpdGxlIGlkPSJ0aXRsZTU4NTE0Ij5TaGVldC40NDM3PC90aXRsZT4mI3hhOwkJCTxwYXRoIGlkPSJwYXRoNTg1MTYiIGlua3NjYXBlOmNvbm5lY3Rvci1jdXJ2YXR1cmU9IjAiIHN0eWxlPSJmaWxsOiMzOTk5QzY7IiBkPSJNMTcuOSw1Ni4xOGMwLjU0LTAuNTMsMC40NS0xLjUyLDAtMi4wNiAgICAgbC0yLjc3LTIuNzdsLTEyLjM2LTEyYy0wLjUzLTAuNTMtMS4zNC0wLjUzLTEuOTYsMGMtMC41NCwwLjU0LTAuNzIsMS41MywwLDIuMDZsMTIuOTcsMTIuNzFjMC41NCwwLjU0LDAuNTQsMS41MywwLDIuMDYgICAgIEwwLjU0LDY5LjM0QzAsNjkuODgsMCw3MC44NiwwLjU0LDcxLjRjMC41MywwLjU0LDEuNTIsMC40NSwxLjk3LDBsMTIuMjYtMTIuMTdjMCwwLDAsMCwwLjA5LTAuMDlMMTcuOSw1Ni4xOHoiLz4mI3hhOwkJPC9nPiYjeGE7CQk8ZyBpZD0ic2hhcGU0NDM4LTQiIHRyYW5zZm9ybT0idHJhbnNsYXRlKDAsLTEwLjI5MzgpIj4mI3hhOwkJCTx0aXRsZSBpZD0idGl0bGU1ODUxOSI+U2hlZXQuNDQzODwvdGl0bGU+JiN4YTsJCQk8cGF0aCBpZD0icGF0aDU4NTIxIiBpbmtzY2FwZTpjb25uZWN0b3ItY3VydmF0dXJlPSIwIiBzdHlsZT0iZmlsbDojMzk5OUM2OyIgZD0iTTAuNTQsNTYuMThjLTAuNTQtMC41My0wLjQ1LTEuNTIsMC0yLjA2ICAgICBsMi43Ny0yLjc3bDEyLjM1LTEyYzAuNTQtMC41MywxLjM1LTAuNTMsMS45NywwYzAuNTQsMC41NCwwLjcyLDEuNTMsMCwyLjA2TDQuOTIsNTQuMTJjLTAuNTMsMC41NC0wLjUzLDEuNTMsMCwyLjA2TDE3LjksNjkuMzQgICAgIGMwLjU0LDAuNTQsMC41NCwxLjUyLDAsMi4wNmMtMC41MywwLjU0LTEuNTIsMC40NS0xLjk3LDBMMy40LDU5LjQxYzAsMCwwLDAtMC4wOS0wLjA5TDAuNTQsNTYuMTh6Ii8+JiN4YTsJCTwvZz4mI3hhOwkJPGcgaWQ9InNoYXBlNDQzOS02IiB0cmFuc2Zvcm09InRyYW5zbGF0ZSgxNS45MzMpIj4mI3hhOwkJCTx0aXRsZSBpZD0idGl0bGU1ODUyNCI+U2hlZXQuNDQzOTwvdGl0bGU+JiN4YTsJCQk8cGF0aCBpZD0icGF0aDU4NTI2IiBpbmtzY2FwZTpjb25uZWN0b3ItY3VydmF0dXJlPSIwIiBzdHlsZT0iZmlsbDojRkNEMTE2OyIgZD0iTTI2Ljg1LDE5LjEzSDkuNEwwLDQ1LjYybDExLjQ2LDAuMDlMMi41MSw3MS45NCAgICAgbDI0LjctMzVIMTUuMjJMMjYuODUsMTkuMTN6Ii8+JiN4YTsJCTwvZz4mI3hhOwkJPGcgaWQ9InNoYXBlNDQ0MC04IiB0cmFuc2Zvcm09InRyYW5zbGF0ZSgxOC40MzkzKSI+JiN4YTsJCQk8dGl0bGUgaWQ9InRpdGxlNTg1MjkiPlNoZWV0LjQ0NDA8L3RpdGxlPiYjeGE7CQkJPHBhdGggaWQ9InBhdGg1ODUzMSIgaW5rc2NhcGU6Y29ubmVjdG9yLWN1cnZhdHVyZT0iMCIgc3R5bGU9ImZpbGw6I0ZGOEMwMDtmaWxsLW9wYWNpdHk6MC4zOyIgZD0iTTEyLjcxLDM2Ljk0bDExLjY0LTE3LjgxICAgICBoLTkuMTNMNS41NSw0MS4xNGwxMS40NiwwLjA5TDAsNzEuOTRsMjQuNzEtMzVMMTIuNzEsMzYuOTR6Ii8+JiN4YTsJCTwvZz4mI3hhOwk8L2c+JiN4YTs8L2c+JiN4YTs8L3N2Zz4=;" vertex="1" parent="1">
          <mxGeometry x="479.99999999999994" y="427" width="57" height="53" as="geometry" />
        </mxCell>
        <mxCell id="wS5lQGi0n9frKkNvJUFP-6" value="" style="rounded=0;whiteSpace=wrap;html=1;fillColor=#f5f5f5;fontColor=#333333;strokeColor=#666666;" vertex="1" parent="1">
          <mxGeometry x="260" y="209.5" width="340" height="150.5" as="geometry" />
        </mxCell>
        <mxCell id="wS5lQGi0n9frKkNvJUFP-7" value="Azure Portal API &#xa;Management Service" style="shape=image;verticalLabelPosition=bottom;labelBackgroundColor=#F5F5F5;verticalAlign=top;aspect=fixed;imageAspect=0;image=data:image/svg+xml,PHN2ZyB4bWxuczpjYz0iaHR0cDovL2NyZWF0aXZlY29tbW9ucy5vcmcvbnMjIiB4bWxuczpkYz0iaHR0cDovL3B1cmwub3JnL2RjL2VsZW1lbnRzLzEuMS8iIHhtbG5zOmlua3NjYXBlPSJodHRwOi8vd3d3Lmlua3NjYXBlLm9yZy9uYW1lc3BhY2VzL2lua3NjYXBlIiB4bWxuczpyZGY9Imh0dHA6Ly93d3cudzMub3JnLzE5OTkvMDIvMjItcmRmLXN5bnRheC1ucyMiIHhtbG5zOnNvZGlwb2RpPSJodHRwOi8vc29kaXBvZGkuc291cmNlZm9yZ2UubmV0L0RURC9zb2RpcG9kaS0wLmR0ZCIgeG1sbnM6c3ZnPSJodHRwOi8vd3d3LnczLm9yZy8yMDAwL3N2ZyIgeG1sbnM9Imh0dHA6Ly93d3cudzMub3JnLzIwMDAvc3ZnIiB4bWxuczp4bGluaz0iaHR0cDovL3d3dy53My5vcmcvMTk5OS94bGluayIgdmVyc2lvbj0iMS4xIiBpZD0ic3ZnNTk4ODkiIGlua3NjYXBlOnZlcnNpb249IjAuOTIuMyAoMjQwNTU0NiwgMjAxOC0wMy0xMSkiIHNvZGlwb2RpOmRvY25hbWU9ImF6dXJlX3BvcnRhbF9hcGlfbWFuYWdlbWVudF9zZXJ2aWNlcy5zdmciIHg9IjBweCIgeT0iMHB4IiB2aWV3Qm94PSIwIDAgMzAuOTcgMjUuNDEiIHN0eWxlPSJlbmFibGUtYmFja2dyb3VuZDpuZXcgMCAwIDMwLjk3IDI1LjQxOyIgeG1sOnNwYWNlPSJwcmVzZXJ2ZSI+JiN4YTs8c29kaXBvZGk6bmFtZWR2aWV3IGJvcmRlcmNvbG9yPSIjNjY2NjY2IiBib3JkZXJvcGFjaXR5PSIxIiBmaXQtbWFyZ2luLWJvdHRvbT0iMCIgZml0LW1hcmdpbi1sZWZ0PSIwIiBmaXQtbWFyZ2luLXJpZ2h0PSIwIiBmaXQtbWFyZ2luLXRvcD0iMCIgZ3JpZHRvbGVyYW5jZT0iMTAiIGd1aWRldG9sZXJhbmNlPSIxMCIgaWQ9Im5hbWVkdmlldzU5ODkxIiBpbmtzY2FwZTpjdXJyZW50LWxheWVyPSJzdmc1OTg4OSIgaW5rc2NhcGU6Y3g9IjI5LjQ3MTgyNyIgaW5rc2NhcGU6Y3k9IjE2LjEyMDc3NSIgaW5rc2NhcGU6cGFnZW9wYWNpdHk9IjAiIGlua3NjYXBlOnBhZ2VzaGFkb3c9IjIiIGlua3NjYXBlOndpbmRvdy1oZWlnaHQ9IjEwMTciIGlua3NjYXBlOndpbmRvdy1tYXhpbWl6ZWQ9IjEiIGlua3NjYXBlOndpbmRvdy13aWR0aD0iMTkyMCIgaW5rc2NhcGU6d2luZG93LXg9Ii04IiBpbmtzY2FwZTp3aW5kb3cteT0iLTgiIGlua3NjYXBlOnpvb209IjE4LjA5MzIyNiIgb2JqZWN0dG9sZXJhbmNlPSIxMCIgcGFnZWNvbG9yPSIjZmZmZmZmIiBzaG93Z3JpZD0iZmFsc2UiPiYjeGE7CTwvc29kaXBvZGk6bmFtZWR2aWV3PiYjeGE7PGcgaWQ9Imc1OTg4NyI+JiN4YTsJPHRpdGxlIGlkPSJ0aXRsZTU5ODcyIj5QYWdlLTE8L3RpdGxlPiYjeGE7CTxnIGlkPSJncm91cDQ0MzMtMSI+JiN4YTsJCTx0aXRsZSBpZD0idGl0bGU1OTg3NCI+QXp1cmUgUG9ydGFsIC0gQVBJIE1hbmFnZW1lbnQgU2VydmljZXM8L3RpdGxlPiYjeGE7CQk8ZyBpZD0ic2hhcGU0NDM0LTIiPiYjeGE7CQkJPHRpdGxlIGlkPSJ0aXRsZTU5ODc2Ij5BUEkgTWFuYWdlbWVudDwvdGl0bGU+JiN4YTsJCQk8cGF0aCBpZD0icGF0aDU5ODc4IiBpbmtzY2FwZTpjb25uZWN0b3ItY3VydmF0dXJlPSIwIiBzdHlsZT0iZmlsbDojNTlCNEQ5OyIgZD0iTTI3LjExLDEwLjY1YzAuMS0wLjM5LDAuMS0wLjU4LDAuMS0xLjE1ICAgICBjMC01LjM4LTQuNDQtOS41LTkuODUtOS41Yy0zLjg1LDAtNy40MywyLjAxLTguODcsNS41N2MtMC40OSwwLTAuODYtMC4yLTEuNDUtMC4yYy0zLjg2LDAtNy4wNCwzLjA3LTcuMDQsNyAgICAgYzAsMy44NCwzLjE4LDYuOSw3LjA0LDYuOWgzLjU4YzAuMDksMC40OSwwLjM3LDAuOTgsMC44NiwxLjM1YzEuMjYsMS4zNSwzLjM4LDEuMjUsNC42MywwczEuMjUtMy4zNiwwLTQuNiAgICAgYy0xLjI1LTEuMzQtMy4zNy0xLjM0LTQuNjMsMGMtMC4yOSwwLjI4LTAuNDksMC44Ny0wLjY3LDEuMjRsLTMuNjcsMC4xYy0yLjcsMC00LjkyLTIuMi00LjkyLTQuOTljMC0yLjc4LDIuMTItNC45OCw0LjkyLTQuOTggICAgIGMwLjQ5LDAsMS4wNiwwLjA5LDEuNjUsMC4xOWwxLjA0LDAuMjlsMC4zLTEuMDVjMS4wNi0zLjE3LDMuOTUtNS4yOCw3LjQzLTUuMjhjNC4yNCwwLDcuNzEsMy40NSw3LjcxLDcuNjcgICAgIGMwLDAuNjgtMC4wOSwxLjM0LTAuMjgsMi4wMWwtMC4zOSwxLjU0bDEuNjMtMC4xOWgwLjNjMS4yNSwwLDIuMjIsMS4wNSwyLjIyLDIuMmMwLDEuMTYtMC44NywyLjAyLTEuOTMsMi4yMWgtNS41ICAgICBjLTAuMi0xLjU0LTAuOTctMi44Ny0yLjAzLTMuOTNjLTEuMzQtMS4zNC0zLjE4LTIuMTEtNS4xMS0yLjExYy0xLjM0LDAtMi43LDAuMzgtMy43NiwxLjA2bDEuMTYsMS44MiAgICAgYzAuODctMC40OSwxLjczLTAuNjgsMi43LTAuNjhjMS4zNSwwLDIuNywwLjQ4LDMuNTcsMS41NGMwLjk2LDAuOTYsMS41NCwyLjIxLDEuNTQsMy41NGMwLDEuMzUtMC40OCwyLjY5LTEuNTQsMy41NSAgICAgYy0wLjk2LDEuMDYtMi4yMiwxLjU0LTMuNTcsMS41NGMtMC45NywwLTEuOTMtMC4yOS0yLjctMC44N2wtMS4xNiwxLjgzYzEuMTYsMC42NywyLjUsMS4xNCwzLjc2LDEuMTRjMS45MywwLDMuNzctMC42Niw1LjExLTIuMSAgICAgYzEuMTYtMS4xNSwxLjgzLTIuNTksMi4wMy00LjIyYzAuMjksMCw1LjYtMC4wOSw1LjYtMC4wOWgwLjA5YzIuMjMtMC4yLDMuOTYtMi4xMSwzLjk2LTQuNDIgICAgIEMzMC41OCwxMi43NiwyOS4xNCwxMS4wNCwyNy4xMSwxMC42NXoiLz4mI3hhOwkJPC9nPiYjeGE7CQk8ZyBpZD0ic2hhcGU0NDM1LTQiIHRyYW5zZm9ybT0idHJhbnNsYXRlKDEwLjI5ODMsLTMuNTYwNikiPiYjeGE7CQkJPHRpdGxlIGlkPSJ0aXRsZTU5ODgxIj5TaGVldC40NDM1PC90aXRsZT4mI3hhOwkJCTxwYXRoIGlkPSJwYXRoNTk4ODMiIGlua3NjYXBlOmNvbm5lY3Rvci1jdXJ2YXR1cmU9IjAiIHN0eWxlPSJmaWxsOiM2ODIxN0E7IiBkPSJNMCwyMS45NmMwLTEuOTEsMS41NS0zLjQ2LDMuNDUtMy40NiAgICAgYzEuOTMsMCwzLjQ2LDEuNTUsMy40NiwzLjQ2YzAsMS45Mi0xLjUzLDMuNDUtMy40NiwzLjQ1QzEuNTUsMjUuNDEsMCwyMy44OCwwLDIxLjk2eiIvPiYjeGE7CQk8L2c+JiN4YTsJPC9nPiYjeGE7PC9nPiYjeGE7PC9zdmc+;imageBackground=#F5F5F5;" vertex="1" parent="1">
          <mxGeometry x="398.5" y="179" width="63" height="50.81" as="geometry" />
        </mxCell>
        <mxCell id="wS5lQGi0n9frKkNvJUFP-8" value="Developer&#xa;Portal" style="shape=image;verticalLabelPosition=bottom;labelBackgroundColor=#F5F5F5;verticalAlign=top;aspect=fixed;imageAspect=0;image=data:image/svg+xml,PHN2ZyB4bWxuczpjYz0iaHR0cDovL2NyZWF0aXZlY29tbW9ucy5vcmcvbnMjIiB4bWxuczpkYz0iaHR0cDovL3B1cmwub3JnL2RjL2VsZW1lbnRzLzEuMS8iIHhtbG5zOmlua3NjYXBlPSJodHRwOi8vd3d3Lmlua3NjYXBlLm9yZy9uYW1lc3BhY2VzL2lua3NjYXBlIiB4bWxuczpyZGY9Imh0dHA6Ly93d3cudzMub3JnLzE5OTkvMDIvMjItcmRmLXN5bnRheC1ucyMiIHhtbG5zOnNvZGlwb2RpPSJodHRwOi8vc29kaXBvZGkuc291cmNlZm9yZ2UubmV0L0RURC9zb2RpcG9kaS0wLmR0ZCIgeG1sbnM6c3ZnPSJodHRwOi8vd3d3LnczLm9yZy8yMDAwL3N2ZyIgeG1sbnM9Imh0dHA6Ly93d3cudzMub3JnLzIwMDAvc3ZnIiB4bWxuczp4bGluaz0iaHR0cDovL3d3dy53My5vcmcvMTk5OS94bGluayIgdmVyc2lvbj0iMS4xIiBpZD0ic3ZnMzg5MyIgeD0iMHB4IiB5PSIwcHgiIHZpZXdCb3g9IjAgMCA1MS4yMiAzOSIgc3R5bGU9ImVuYWJsZS1iYWNrZ3JvdW5kOm5ldyAwIDAgNTEuMjIgMzk7IiB4bWw6c3BhY2U9InByZXNlcnZlIj4mI3hhOzxzb2RpcG9kaTpuYW1lZHZpZXcgYm9yZGVyY29sb3I9IiM2NjY2NjYiIGJvcmRlcm9wYWNpdHk9IjEiIGZpdC1tYXJnaW4tYm90dG9tPSIwIiBmaXQtbWFyZ2luLWxlZnQ9IjAiIGZpdC1tYXJnaW4tcmlnaHQ9IjAiIGZpdC1tYXJnaW4tdG9wPSIwIiBncmlkdG9sZXJhbmNlPSIxMCIgZ3VpZGV0b2xlcmFuY2U9IjEwIiBpZD0ibmFtZWR2aWV3Mzg5NSIgaW5rc2NhcGU6Y3VycmVudC1sYXllcj0ic3ZnMzg5MyIgaW5rc2NhcGU6Y3g9IjI5Ljg3MDU0MiIgaW5rc2NhcGU6Y3k9IjIyLjM0MjczNSIgaW5rc2NhcGU6cGFnZW9wYWNpdHk9IjAiIGlua3NjYXBlOnBhZ2VzaGFkb3c9IjIiIGlua3NjYXBlOndpbmRvdy1oZWlnaHQ9IjEwMTciIGlua3NjYXBlOndpbmRvdy1tYXhpbWl6ZWQ9IjEiIGlua3NjYXBlOndpbmRvdy13aWR0aD0iMTkyMCIgaW5rc2NhcGU6d2luZG93LXg9Ii04IiBpbmtzY2FwZTp3aW5kb3cteT0iLTgiIGlua3NjYXBlOnpvb209IjE0LjYxOTE2MSIgb2JqZWN0dG9sZXJhbmNlPSIxMCIgcGFnZWNvbG9yPSIjZmZmZmZmIiBzaG93Z3JpZD0iZmFsc2UiPiYjeGE7CTwvc29kaXBvZGk6bmFtZWR2aWV3PiYjeGE7PGcgaWQ9ImczODkxIiB0cmFuc2Zvcm09InRyYW5zbGF0ZSgtNi40MTQyNywwLjAwMzI4KSI+JiN4YTsJPHRpdGxlIGlkPSJ0aXRsZTM4MzEiPlBhZ2UtMTwvdGl0bGU+JiN4YTsJPGcgaWQ9Imdyb3VwMTU0Ni0xIiB0cmFuc2Zvcm09InRyYW5zbGF0ZSg2LjQxNDI3LC01LjQ4MzI4KSI+JiN4YTsJCTx0aXRsZSBpZD0idGl0bGUzODMzIj5BUElNIERldmVsb3BlciBQb3J0YWw8L3RpdGxlPiYjeGE7CQk8ZyBpZD0ic2hhcGUxNTQ3LTIiPiYjeGE7CQkJPHRpdGxlIGlkPSJ0aXRsZTM4MzUiPlNoZWV0LjE1NDc8L3RpdGxlPiYjeGE7CQkJPHBhdGggaWQ9InBhdGgzODM3IiBpbmtzY2FwZTpjb25uZWN0b3ItY3VydmF0dXJlPSIwIiBzdHlsZT0iZmlsbC1ydWxlOmV2ZW5vZGQ7Y2xpcC1ydWxlOmV2ZW5vZGQ7ZmlsbDojNTk1OTU5OyIgZD0iTTQ5LjI1LDUuNDggICAgIGMtNDcuMjcsMC00Ny4yNywwLTQ3LjI3LDBDMC4zOCw1LjQ4LDAsNS44NCwwLDcuN2MwLDM0LjU3LDAsMzQuNTcsMCwzNC41N2MwLDEuODUsMC4zOCwyLjIxLDEuOTgsMi4yMWM0Ny4yNywwLDQ3LjI3LDAsNDcuMjcsMCAgICAgYzEuNjUsMCwxLjk3LTAuMzYsMS45Ny0yLjIxYzAtMzQuNTcsMC0zNC41NywwLTM0LjU3QzUxLjIyLDUuODQsNTAuOSw1LjQ4LDQ5LjI1LDUuNDh6Ii8+JiN4YTsJCTwvZz4mI3hhOwkJPGcgaWQ9InNoYXBlMTU0OC00IiB0cmFuc2Zvcm09InRyYW5zbGF0ZSgxLjQ4ODQ1LC0zMi4wNzMxKSI+JiN4YTsJCQk8dGl0bGUgaWQ9InRpdGxlMzg0MCI+U2hlZXQuMTU0ODwvdGl0bGU+JiN4YTsJCQk8cGF0aCBpZD0icGF0aDM4NDIiIGlua3NjYXBlOmNvbm5lY3Rvci1jdXJ2YXR1cmU9IjAiIHN0eWxlPSJmaWxsLXJ1bGU6ZXZlbm9kZDtjbGlwLXJ1bGU6ZXZlbm9kZDtmaWxsOiMwMEIwRjA7IiBkPSJNMCw0MS41OSAgICAgYzAtMS42LDEuMTYtMi44OSwyLjU4LTIuODljMS40MywwLDIuNTksMS4yOSwyLjU5LDIuODlzLTEuMTYsMi44OS0yLjU5LDIuODlDMS4xNiw0NC40OCwwLDQzLjE5LDAsNDEuNTl6Ii8+JiN4YTsJCTwvZz4mI3hhOwkJPGcgaWQ9InNoYXBlMTU0OS02IiB0cmFuc2Zvcm09InRyYW5zbGF0ZSgyLjUzOTEyLC0zMy42NTA1KSI+JiN4YTsJCQk8dGl0bGUgaWQ9InRpdGxlMzg0NSI+U2hlZXQuMTU0OTwvdGl0bGU+JiN4YTsJCQk8cGF0aCBpZD0icGF0aDM4NDciIGlua3NjYXBlOmNvbm5lY3Rvci1jdXJ2YXR1cmU9IjAiIHN0eWxlPSJmaWxsLXJ1bGU6ZXZlbm9kZDtjbGlwLXJ1bGU6ZXZlbm9kZDtmaWxsOiNGRkZGRkY7IiBkPSJNMS4wNyw0Mi44OCAgICAgbDAuODQtMC45NGgtMC43TDAsNDMuMjRsMS4yMSwxLjI0aDAuN2wtMC44NC0wLjk1aDEuOTl2LTAuNjVMMS4wNyw0Mi44OHoiLz4mI3hhOwkJPC9nPiYjeGE7CQk8ZyBpZD0ic2hhcGUxNTUwLTgiIHRyYW5zZm9ybT0idHJhbnNsYXRlKDEuMzEzMzQsLTEuOTI3ODkpIj4mI3hhOwkJCTx0aXRsZSBpZD0idGl0bGUzODUwIj5TaGVldC4xNTUwPC90aXRsZT4mI3hhOwkJCTxwYXRoIGlkPSJwYXRoMzg1MiIgaW5rc2NhcGU6Y29ubmVjdG9yLWN1cnZhdHVyZT0iMCIgc3R5bGU9ImZpbGwtcnVsZTpldmVub2RkO2NsaXAtcnVsZTpldmVub2RkO2ZpbGw6IzU5QjREOTsiIGQ9Ik0wLDE1LjQ3ICAgICB2MjkuMDFoNDguNjhWMTUuNDdIMHoiLz4mI3hhOwkJPC9nPiYjeGE7CQk8ZyBpZD0ic2hhcGUxNTUxLTEwIiB0cmFuc2Zvcm09InRyYW5zbGF0ZSg3LjYxNzM1LC0zMy40NzUyKSI+JiN4YTsJCQk8dGl0bGUgaWQ9InRpdGxlMzg1NSI+U2hlZXQuMTU1MTwvdGl0bGU+JiN4YTsJCQk8cGF0aCBpZD0icGF0aDM4NTciIGlua3NjYXBlOmNvbm5lY3Rvci1jdXJ2YXR1cmU9IjAiIHN0eWxlPSJmaWxsLXJ1bGU6ZXZlbm9kZDtjbGlwLXJ1bGU6ZXZlbm9kZDtmaWxsOiNGRkZGRkY7IiBkPSJNMCw0MS4xNSAgICAgdjMuMzNoNDIuMDN2LTMuMzNIMHoiLz4mI3hhOwkJPC9nPiYjeGE7CQk8ZyBpZD0ic2hhcGUxNTUyLTEyIiB0cmFuc2Zvcm09InRyYW5zbGF0ZSgyNC41MTk1LC0xMy45NzYpIj4mI3hhOwkJCTx0aXRsZSBpZD0idGl0bGUzODYwIj5TaGVldC4xNTUyPC90aXRsZT4mI3hhOwkJCTxwYXRoIGlkPSJwYXRoMzg2MiIgaW5rc2NhcGU6Y29ubmVjdG9yLWN1cnZhdHVyZT0iMCIgc3R5bGU9ImZpbGwtcnVsZTpldmVub2RkO2NsaXAtcnVsZTpldmVub2RkO2ZpbGw6I0ZGRkZGRjsiIGQ9Ik0wLDQxLjk0ICAgICB2Mi41NGgxNi44MXYtMi41NEgweiIvPiYjeGE7CQk8L2c+JiN4YTsJCTxnIGlkPSJzaGFwZTE1NTMtMTQiIHRyYW5zZm9ybT0idHJhbnNsYXRlKDM3LjQ3NzcsLTcuMTQwNzYpIj4mI3hhOwkJCTx0aXRsZSBpZD0idGl0bGUzODY1Ij5TaGVldC4xNTUzPC90aXRsZT4mI3hhOwkJCTxwYXRoIGlkPSJwYXRoMzg2NyIgaW5rc2NhcGU6Y29ubmVjdG9yLWN1cnZhdHVyZT0iMCIgc3R5bGU9ImZpbGwtcnVsZTpldmVub2RkO2NsaXAtcnVsZTpldmVub2RkO2ZpbGw6I0ZGRkZGRjsiIGQ9Ik0yLjE5LDM5LjU3ICAgICBjMS4yMywwLDIuMTksMS4wOCwyLjE5LDIuNDZjMCwxLjM4LTAuOTYsMi40NS0yLjE5LDIuNDVDMS4wMiw0NC40OCwwLDQzLjQxLDAsNDIuMDNDMCw0MC42NSwxLjAyLDM5LjU3LDIuMTksMzkuNTd6IE0yLjE5LDM5Ljg3ICAgICBjLTEuMDcsMC0xLjkyLDAuOTYtMS45MiwyLjE2czAuODUsMi4xNSwxLjkyLDIuMTVzMS45My0wLjk1LDEuOTMtMi4xNVMzLjI2LDM5Ljg3LDIuMTksMzkuODd6Ii8+JiN4YTsJCTwvZz4mI3hhOwkJPGcgaWQ9InNoYXBlMTU1NC0xNiIgdHJhbnNmb3JtPSJ0cmFuc2xhdGUoMzguNTI4NCwtOC42MzA0OSkiPiYjeGE7CQkJPHRpdGxlIGlkPSJ0aXRsZTM4NzAiPlNoZWV0LjE1NTQ8L3RpdGxlPiYjeGE7CQkJPHBhdGggaWQ9InBhdGgzODcyIiBpbmtzY2FwZTpjb25uZWN0b3ItY3VydmF0dXJlPSIwIiBzdHlsZT0iZmlsbC1ydWxlOmV2ZW5vZGQ7Y2xpcC1ydWxlOmV2ZW5vZGQ7ZmlsbDojRkZGRkZGOyIgZD0iTTEuNTQsNDMuMjcgICAgIGwtMC42OC0wLjcyaDAuNTJsMC45LDAuOThsLTAuOSwwLjk1SDAuODZsMC42OC0wLjcySDB2LTAuNDlMMS41NCw0My4yN3oiLz4mI3hhOwkJPC9nPiYjeGE7CQk8ZyBpZD0ic2hhcGUxNTU1LTE4IiB0cmFuc2Zvcm09InRyYW5zbGF0ZSgyNC41MTk1LC04LjI3OTk3KSI+JiN4YTsJCQk8dGl0bGUgaWQ9InRpdGxlMzg3NSI+U2hlZXQuMTU1NTwvdGl0bGU+JiN4YTsJCQk8cGF0aCBpZD0icGF0aDM4NzciIGlua3NjYXBlOmNvbm5lY3Rvci1jdXJ2YXR1cmU9IjAiIHN0eWxlPSJmaWxsLXJ1bGU6ZXZlbm9kZDtjbGlwLXJ1bGU6ZXZlbm9kZDtmaWxsOiNGRkZGRkY7IiBkPSJNMCw0MS45NCAgICAgdjIuNTRoMTJ2LTIuNTRIMHoiLz4mI3hhOwkJPC9nPiYjeGE7CQk8ZyBpZD0ic2hhcGUxNTU2LTIwIiB0cmFuc2Zvcm09InRyYW5zbGF0ZSgyNC41MTk1LC0xOC42MjA1KSI+JiN4YTsJCQk8dGl0bGUgaWQ9InRpdGxlMzg4MCI+U2hlZXQuMTU1NjwvdGl0bGU+JiN4YTsJCQk8cGF0aCBpZD0icGF0aDM4ODIiIGlua3NjYXBlOmNvbm5lY3Rvci1jdXJ2YXR1cmU9IjAiIHN0eWxlPSJmaWxsLXJ1bGU6ZXZlbm9kZDtjbGlwLXJ1bGU6ZXZlbm9kZDtmaWxsOiNGRkZGRkY7IiBkPSJNNC4xNyw0MS4xNSAgICAgYy0wLjMyLDAtMC4zMiwwLTAuMzIsMGMwLTEuMTMsMC0xLjEzLDAtMS4xM2MwLTAuNTQtMC4xNi0xLjAxLTAuNDctMS40M2MtMC4yNy0wLjM1LTAuNzQtMC42LTEuMjEtMC42ICAgICBjLTAuNDgsMC0wLjksMC4yNS0xLjE2LDAuNmMtMC4zMiwwLjQyLTAuNTMsMC44OS0wLjUzLDEuNDNjMCwxLjEzLDAsMS4xMywwLDEuMTNjLTAuMjcsMC0wLjI3LDAtMC4yNywwICAgICBjLTAuMSwwLTAuMjEsMC4wNi0wLjIxLDAuMjRjMCwyLjg1LDAsMi44NSwwLDIuODVjMCwwLjEyLDAuMTEsMC4yNCwwLjIxLDAuMjRjMy45NiwwLDMuOTYsMCwzLjk2LDBjMC4xLDAsMC4yMS0wLjEyLDAuMjEtMC4yNCAgICAgYzAtMi44NSwwLTIuODUsMC0yLjg1QzQuMzgsNDEuMjEsNC4yNyw0MS4xNSw0LjE3LDQxLjE1eiBNMS4zMiw0MC4wMmMwLTAuMywwLjExLTAuNiwwLjI3LTAuNzdjMC4xNi0wLjE4LDAuMzYtMC4zLDAuNTgtMC4zICAgICBjMC4yNiwwLDAuNDcsMC4xMiwwLjYzLDAuM2MwLjE2LDAuMTcsMC4yNiwwLjQ3LDAuMjYsMC43N2MwLDEuMTMsMCwxLjEzLDAsMS4xM2MtMS43NCwwLTEuNzQsMC0xLjc0LDBMMS4zMiw0MC4wMnoiLz4mI3hhOwkJPC9nPiYjeGE7CQk8ZyBpZD0ic2hhcGUxNTU3LTIyIiB0cmFuc2Zvcm09InRyYW5zbGF0ZSg0LjEzMDU1LC05LjM0NTE1KSI+JiN4YTsJCQk8dGl0bGUgaWQ9InRpdGxlMzg4NSI+QVBJIE1hbmFnZW1lbnQ8L3RpdGxlPiYjeGE7CQkJPHBhdGggaWQ9InBhdGgzODg3IiBpbmtzY2FwZTpjb25uZWN0b3ItY3VydmF0dXJlPSIwIiBzdHlsZT0iZmlsbC1ydWxlOmV2ZW5vZGQ7Y2xpcC1ydWxlOmV2ZW5vZGQ7ZmlsbDojRkZGRkZGOyIgZD0iICAgICBNMTMuOTUsMzYuNzJjMC4wMy0wLjIyLDAuMDMtMC40OCwwLjAzLTAuNzFjMC0yLjc3LTIuMjgtNS4wOS01LjA1LTUuMDlIOC45Yy0xLjk5LDAtMy43OCwxLjI0LTQuNiwzLjAzICAgICBjLTAuMjMtMC4wMy0wLjQ1LTAuMDMtMC42OC0wLjAzQzEuNiwzMy45MiwwLDM1LjU1LDAsMzcuNTdjMCwxLjk5LDEuNjMsMy42MiwzLjY1LDMuNjJoMS44NmMwLjA2LDAuMjYsMC4yMywwLjQ5LDAuNDIsMC42OCAgICAgYzAuNjUsMC42NSwxLjczLDAuNjUsMi4zOCwwczAuNjUtMS42OSwwLTIuMzRjLTAuNjUtMC42Ni0xLjctMC42Ni0yLjM4LDBjLTAuMTYsMC4xNi0wLjI5LDAuMzUtMC4zNiwwLjU1bC0xLjg5LTAuMDMgICAgIGMtMS40LDAtMi41MS0xLjExLTIuNTQtMi40OGMwLTEuNCwxLjE0LTIuNTEsMi41NC0yLjUxYzAuMjYsMCwwLjU2LDAuMDcsMC44MiwwLjEzbDAuNTIsMC4ybDAuMTYtMC41MiAgICAgYzAuNTItMS42MywyLjA1LTIuNzEsMy43NS0yLjcxYzIuMTgsMCwzLjk0LDEuNzYsMy45NCwzLjk0YzAsMC4zNi0wLjAzLDAuNzItMC4xMywxLjA1bC0wLjIzLDAuNzhsMC44Mi0wLjFjMC4wNiwwLDAuMSwwLDAuMTMsMCAgICAgYzAuNjIsMCwxLjE0LDAuNTIsMS4xNCwxLjE0YzAsMC41OS0wLjQzLDEuMDgtMS4wMSwxLjE0YzAsMC0yLjcxLDAuMDQtMi44NywwLjA0Yy0wLjEzLTAuNzUtMC40OS0xLjQ3LTEuMDQtMi4wMiAgICAgYy0wLjY5LTAuNzItMS42My0xLjExLTIuNjQtMS4xMWMtMC42OSwwLTEuMzQsMC4xOS0xLjkyLDAuNTJsMC41OCwwLjk0YzAuMzktMC4yNiwwLjg4LTAuMzksMS4zNy0wLjM5ICAgICBjMC42OSwwLDEuMzcsMC4yNiwxLjg2LDAuNzhjMC40OSwwLjQ5LDAuNzgsMS4xNSwwLjc4LDEuODZjMCwwLjY5LTAuMjYsMS4zNy0wLjc4LDEuODZjLTAuNDksMC40OS0xLjE0LDAuNzgtMS44NiwwLjc4ICAgICBjLTAuNDksMC0wLjk4LTAuMTMtMS4zNy0wLjM5bC0wLjU4LDAuOTVjMC41OCwwLjM1LDEuMjcsMC41NSwxLjk1LDAuNTVjMS4wMSwwLDEuOTItMC4zOSwyLjY0LTEuMTEgICAgIGMwLjU5LTAuNTksMC45NS0xLjMzLDEuMDQtMi4xMmMwLjEzLDAsMi44Ny0wLjAzLDIuODctMC4wM2gwLjAzYzEuMTgtMC4xLDIuMDYtMS4wNywyLjA2LTIuMjUgICAgIEMxNS43NCwzNy44MywxNC45OSwzNi45MiwxMy45NSwzNi43MnoiLz4mI3hhOwkJPC9nPiYjeGE7CTwvZz4mI3hhOzwvZz4mI3hhOzwvc3ZnPg==;imageBackground=#ffffff;" vertex="1" parent="1">
          <mxGeometry x="510" y="280" width="51" height="39" as="geometry" />
        </mxCell>
        <mxCell id="wS5lQGi0n9frKkNvJUFP-10" value="" style="shape=image;verticalLabelPosition=bottom;labelBackgroundColor=#ffffff;verticalAlign=top;aspect=fixed;imageAspect=0;image=data:image/svg+xml,PHN2ZyB4bWxuczpkYz0iaHR0cDovL3B1cmwub3JnL2RjL2VsZW1lbnRzLzEuMS8iIHhtbG5zOmNjPSJodHRwOi8vY3JlYXRpdmVjb21tb25zLm9yZy9ucyMiIHhtbG5zOnJkZj0iaHR0cDovL3d3dy53My5vcmcvMTk5OS8wMi8yMi1yZGYtc3ludGF4LW5zIyIgeG1sbnM6c3ZnPSJodHRwOi8vd3d3LnczLm9yZy8yMDAwL3N2ZyIgeG1sbnM9Imh0dHA6Ly93d3cudzMub3JnLzIwMDAvc3ZnIiB4bWxuczpzb2RpcG9kaT0iaHR0cDovL3NvZGlwb2RpLnNvdXJjZWZvcmdlLm5ldC9EVEQvc29kaXBvZGktMC5kdGQiIHhtbG5zOmlua3NjYXBlPSJodHRwOi8vd3d3Lmlua3NjYXBlLm9yZy9uYW1lc3BhY2VzL2lua3NjYXBlIiB2ZXJzaW9uPSIxLjEiIGlkPSJzdmc1MDMyOSIgaW5rc2NhcGU6dmVyc2lvbj0iMC45Mi4zICgyNDA1NTQ2LCAyMDE4LTAzLTExKSIgc29kaXBvZGk6ZG9jbmFtZT0iYXp1cmUuc3ZnIiB4PSIwcHgiIHk9IjBweCIgdmlld0JveD0iMCAwIDYyLjc2IDQ4LjQ4IiBzdHlsZT0iZW5hYmxlLWJhY2tncm91bmQ6bmV3IDAgMCA2Mi43NiA0OC40ODsiIHhtbDpzcGFjZT0icHJlc2VydmUiPjxtZXRhZGF0YSBpZD0ibWV0YWRhdGExNjgwNyI+PHJkZjpSREY+PGNjOldvcmsgcmRmOmFib3V0PSIiPjxkYzpmb3JtYXQ+aW1hZ2Uvc3ZnK3htbDwvZGM6Zm9ybWF0PjxkYzp0eXBlIHJkZjpyZXNvdXJjZT0iaHR0cDovL3B1cmwub3JnL2RjL2RjbWl0eXBlL1N0aWxsSW1hZ2UiLz48ZGM6dGl0bGUvPjwvY2M6V29yaz48L3JkZjpSREY+PC9tZXRhZGF0YT48ZGVmcyBpZD0iZGVmczE2ODA1Ii8+JiN4YTs8c29kaXBvZGk6bmFtZWR2aWV3IGJvcmRlcmNvbG9yPSIjNjY2NjY2IiBib3JkZXJvcGFjaXR5PSIxIiBmaXQtbWFyZ2luLWJvdHRvbT0iMCIgZml0LW1hcmdpbi1sZWZ0PSIwIiBmaXQtbWFyZ2luLXJpZ2h0PSIwIiBmaXQtbWFyZ2luLXRvcD0iMCIgZ3JpZHRvbGVyYW5jZT0iMTAiIGd1aWRldG9sZXJhbmNlPSIxMCIgaWQ9Im5hbWVkdmlldzUwMzMxIiBpbmtzY2FwZTpjdXJyZW50LWxheWVyPSJzdmc1MDMyOSIgaW5rc2NhcGU6Y3g9IjQ5LjM2MTQ4NiIgaW5rc2NhcGU6Y3k9IjEyLjA3MjQ5NyIgaW5rc2NhcGU6cGFnZW9wYWNpdHk9IjAiIGlua3NjYXBlOnBhZ2VzaGFkb3c9IjIiIGlua3NjYXBlOndpbmRvdy1oZWlnaHQ9IjEwMTciIGlua3NjYXBlOndpbmRvdy1tYXhpbWl6ZWQ9IjEiIGlua3NjYXBlOndpbmRvdy13aWR0aD0iMTkyMCIgaW5rc2NhcGU6d2luZG93LXg9Ii04IiBpbmtzY2FwZTp3aW5kb3cteT0iLTgiIGlua3NjYXBlOnpvb209IjUuOTY3MzU3NyIgb2JqZWN0dG9sZXJhbmNlPSIxMCIgcGFnZWNvbG9yPSIjZmZmZmZmIiBzaG93Z3JpZD0iZmFsc2UiPiYjeGE7CTwvc29kaXBvZGk6bmFtZWR2aWV3PiYjeGE7JiN4YTs8cGF0aCBpZD0icGF0aDUwMzI0IiBpbmtzY2FwZTpjb25uZWN0b3ItY3VydmF0dXJlPSIwIiBzdHlsZT0iZmlsbDojMjA3NUI4OyIgZD0iTTE1LjY4LDQ4LjM2YzAuMDctMC4wNyw2LjQtMS4yMywxNC4wNi0yLjU3ICBjNy42NS0xLjM1LDEzLjk3LTIuNSwxNC4wMy0yLjU2YzAuMTItMC4xMS0wLjc1LTEuMTctMTAuMjItMTIuNDZjLTIuNTItMi45OS00LjYzLTUuNTYtNC43LTUuN2MtMC4wOS0wLjE5LDAuODktMy4wNCwzLjczLTEwLjgzICBjMi4xMS01LjgxLDMuODctMTAuNjUsMy45MS0xMC43NWMwLjAzLTAuMDksMC4xMy0wLjE3LDAuMjItMC4xN2MwLjE5LDAsMjYuMTQsNDQuOTEsMjYuMDUsNDUuMDZjLTAuMDQsMC4wNi0xMC42OCwwLjEtMjMuNjQsMC4xICBDMjUuMjEsNDguNDgsMTUuNiw0OC40MywxNS42OCw0OC4zNnogTTAsNDMuMDFjLTAuMDUtMC4xMywwLjU0LTEuMjksMS40NS0yLjg4YzAuODQtMS40Niw0LjQyLTcuNjYsNy45NS0xMy43N2w2LjQxLTExLjFsOS4wOC03LjYzICBDMjkuODgsMy40NCwzNC4wNCwwLDM0LjEzLDBjMC4xLDAsMC4xMywwLjA5LDAuMDgsMC4yNEMzMy43NCwxLjQ4LDE0LjMsNDIuOTIsMTQuMTMsNDMuMDVjLTAuMTksMC4xMy0xLjg0LDAuMTctNy4xNSwwLjE3ICBDMC45MSw0My4yMiwwLjA3LDQzLjE5LDAsNDMuMDF6Ii8+JiN4YTs8L3N2Zz4=;" vertex="1" parent="1">
          <mxGeometry x="180" y="300.5" width="51.19" height="39" as="geometry" />
        </mxCell>
        <mxCell id="wS5lQGi0n9frKkNvJUFP-13" value="Audit&#xa;Logs" style="shape=image;verticalLabelPosition=bottom;labelBackgroundColor=#ffffff;verticalAlign=top;aspect=fixed;imageAspect=0;image=data:image/svg+xml,PHN2ZyB4bWxuczpjYz0iaHR0cDovL2NyZWF0aXZlY29tbW9ucy5vcmcvbnMjIiB4bWxuczpkYz0iaHR0cDovL3B1cmwub3JnL2RjL2VsZW1lbnRzLzEuMS8iIHhtbG5zOmlua3NjYXBlPSJodHRwOi8vd3d3Lmlua3NjYXBlLm9yZy9uYW1lc3BhY2VzL2lua3NjYXBlIiB4bWxuczpyZGY9Imh0dHA6Ly93d3cudzMub3JnLzE5OTkvMDIvMjItcmRmLXN5bnRheC1ucyMiIHhtbG5zOnNvZGlwb2RpPSJodHRwOi8vc29kaXBvZGkuc291cmNlZm9yZ2UubmV0L0RURC9zb2RpcG9kaS0wLmR0ZCIgeG1sbnM6c3ZnPSJodHRwOi8vd3d3LnczLm9yZy8yMDAwL3N2ZyIgeG1sbnM9Imh0dHA6Ly93d3cudzMub3JnLzIwMDAvc3ZnIiB4bWxuczp4bGluaz0iaHR0cDovL3d3dy53My5vcmcvMTk5OS94bGluayIgdmVyc2lvbj0iMS4xIiBpZD0ic3ZnNDk5MDUiIGlua3NjYXBlOnZlcnNpb249IjAuOTIuMyAoMjQwNTU0NiwgMjAxOC0wMy0xMSkiIHNvZGlwb2RpOmRvY25hbWU9ImF1ZGl0X2xvZ3Muc3ZnIiB4PSIwcHgiIHk9IjBweCIgdmlld0JveD0iMCAwIDIwLjg2IDI0LjA1IiBzdHlsZT0iZW5hYmxlLWJhY2tncm91bmQ6bmV3IDAgMCAyMC44NiAyNC4wNTsiIHhtbDpzcGFjZT0icHJlc2VydmUiPiYjeGE7PHNvZGlwb2RpOm5hbWVkdmlldyBib3JkZXJjb2xvcj0iIzY2NjY2NiIgYm9yZGVyb3BhY2l0eT0iMSIgZml0LW1hcmdpbi1ib3R0b209IjAiIGZpdC1tYXJnaW4tbGVmdD0iMCIgZml0LW1hcmdpbi1yaWdodD0iMCIgZml0LW1hcmdpbi10b3A9IjAiIGdyaWR0b2xlcmFuY2U9IjEwIiBndWlkZXRvbGVyYW5jZT0iMTAiIGlkPSJuYW1lZHZpZXc0OTkwNyIgaW5rc2NhcGU6Y3VycmVudC1sYXllcj0ic3ZnNDk5MDUiIGlua3NjYXBlOmN4PSIyMy4wNzE3NjkiIGlua3NjYXBlOmN5PSIxNi4wMzkxNjgiIGlua3NjYXBlOnBhZ2VvcGFjaXR5PSIwIiBpbmtzY2FwZTpwYWdlc2hhZG93PSIyIiBpbmtzY2FwZTp3aW5kb3ctaGVpZ2h0PSIxMDE3IiBpbmtzY2FwZTp3aW5kb3ctbWF4aW1pemVkPSIxIiBpbmtzY2FwZTp3aW5kb3ctd2lkdGg9IjE5MjAiIGlua3NjYXBlOndpbmRvdy14PSItOCIgaW5rc2NhcGU6d2luZG93LXk9Ii04IiBpbmtzY2FwZTp6b29tPSIxOS4xMjI1MTEiIG9iamVjdHRvbGVyYW5jZT0iMTAiIHBhZ2Vjb2xvcj0iI2ZmZmZmZiIgc2hvd2dyaWQ9ImZhbHNlIj4mI3hhOwk8L3NvZGlwb2RpOm5hbWVkdmlldz4mI3hhOzxnIGlkPSJnNDk5MDMiPiYjeGE7CTx0aXRsZSBpZD0idGl0bGU0OTg4MyI+UGFnZS0xPC90aXRsZT4mI3hhOwk8ZyBpZD0iZ3JvdXA0NjY1LTEiPiYjeGE7CQk8dGl0bGUgaWQ9InRpdGxlNDk4ODUiPkF1ZGl0IExvZ3M8L3RpdGxlPiYjeGE7CQk8ZyBpZD0ic2hhcGU0NjY2LTIiIHRyYW5zZm9ybT0idHJhbnNsYXRlKDEuMjAxMjIsLTAuMzI3NTA2KSI+JiN4YTsJCQk8dGl0bGUgaWQ9InRpdGxlNDk4ODciPlNoZWV0LjQ2NjY8L3RpdGxlPiYjeGE7CQkJPHBhdGggaWQ9InBhdGg0OTg4OSIgaW5rc2NhcGU6Y29ubmVjdG9yLWN1cnZhdHVyZT0iMCIgc3R5bGU9ImZpbGw6I0YxRUJFNzsiIGQ9Ik0xLjE3LDEuNTNsMTcuNTIsMC4xNGwwLjIsMjEuNDFsLTEuMjMsMC42OSAgICAgbC0wLjYyLDAuMjdWMi45MUwwLDIuOThMMS4xNywxLjUzeiIvPiYjeGE7CQk8L2c+JiN4YTsJCTxnIGlkPSJzaGFwZTQ2NjctNCI+JiN4YTsJCQk8dGl0bGUgaWQ9InRpdGxlNDk4OTIiPlNoZWV0LjQ2Njc8L3RpdGxlPiYjeGE7CQkJPHBhdGggaWQ9InBhdGg0OTg5NCIgaW5rc2NhcGU6Y29ubmVjdG9yLWN1cnZhdHVyZT0iMCIgc3R5bGU9ImZpbGw6IzAwNzJDNjsiIGQ9Ik0yLjQsMS4zN2wxNy4zNywwLjA4bC0wLjI4LDIxLjYyaDEuMyAgICAgYzAuMDMtNy42NywwLjA1LTE1LjMzLDAuMDctMjIuOTlMMS43MiwwTDAsMS45OWMwLjA4LDcuMSwwLjE0LDE0LjE5LDAuMjEsMjEuMjhjMC4yMywwLjIxLDAuMDMsMC42MSwzLjAzLDAuNzMgICAgIGMzLDAuMTIsOS4yMS0wLjA0LDE0Ljk4LDBjMC4wNy02Ljk4LDAuMDMtMTQuMzQsMC4xMS0yMS4zMkwxLjM4LDIuNTRMMi40LDEuMzd6Ii8+JiN4YTsJCTwvZz4mI3hhOwkJPGcgaWQ9InNoYXBlNDY2OC02IiB0cmFuc2Zvcm09InRyYW5zbGF0ZSg0LjkxNDA3LC0xMi42NzgpIj4mI3hhOwkJCTx0aXRsZSBpZD0idGl0bGU0OTg5NyI+U2hlZXQuNDY2ODwvdGl0bGU+JiN4YTsJCQk8cGF0aCBpZD0icGF0aDQ5ODk5IiBpbmtzY2FwZTpjb25uZWN0b3ItY3VydmF0dXJlPSIwIiBzdHlsZT0iZmlsbDojRkZGRkZGOyIgZD0iTTAsMjAuNGMwLTAuNCwwLjMzLTAuNzMsMC43My0wLjczaDguMTYgICAgIGMwLjQsMCwwLjcyLDAuMzMsMC43MiwwLjczdjIuOTJjMCwwLjQtMC4zMiwwLjcyLTAuNzIsMC43MkgwLjczYy0wLjQsMC0wLjczLTAuMzItMC43My0wLjcyVjIwLjR6Ii8+JiN4YTsJCTwvZz4mI3hhOwk8L2c+JiN4YTs8L2c+JiN4YTs8L3N2Zz4=;" vertex="1" parent="1">
          <mxGeometry x="119.99999999999994" y="680" width="21" height="24" as="geometry" />
        </mxCell>
        <mxCell id="wS5lQGi0n9frKkNvJUFP-14" value="Blob Storage" style="shape=image;verticalLabelPosition=bottom;labelBackgroundColor=#ffffff;verticalAlign=top;aspect=fixed;imageAspect=0;image=data:image/svg+xml,PHN2ZyB4bWxuczpjYz0iaHR0cDovL2NyZWF0aXZlY29tbW9ucy5vcmcvbnMjIiB4bWxuczpkYz0iaHR0cDovL3B1cmwub3JnL2RjL2VsZW1lbnRzLzEuMS8iIHhtbG5zOmlua3NjYXBlPSJodHRwOi8vd3d3Lmlua3NjYXBlLm9yZy9uYW1lc3BhY2VzL2lua3NjYXBlIiB4bWxuczpyZGY9Imh0dHA6Ly93d3cudzMub3JnLzE5OTkvMDIvMjItcmRmLXN5bnRheC1ucyMiIHhtbG5zOnNvZGlwb2RpPSJodHRwOi8vc29kaXBvZGkuc291cmNlZm9yZ2UubmV0L0RURC9zb2RpcG9kaS0wLmR0ZCIgeG1sbnM6c3ZnPSJodHRwOi8vd3d3LnczLm9yZy8yMDAwL3N2ZyIgeG1sbnM9Imh0dHA6Ly93d3cudzMub3JnLzIwMDAvc3ZnIiB4bWxuczp4bGluaz0iaHR0cDovL3d3dy53My5vcmcvMTk5OS94bGluayIgdmVyc2lvbj0iMS4xIiBpZD0ic3ZnNTUzNjYiIGlua3NjYXBlOnZlcnNpb249IjAuOTIuMyAoMjQwNTU0NiwgMjAxOC0wMy0xMSkiIHNvZGlwb2RpOmRvY25hbWU9ImF6dXJlX2Jsb2Jfc3RvcmFnZS5zdmciIHg9IjBweCIgeT0iMHB4IiB2aWV3Qm94PSIwIDAgNDggNDAuOTkiIHN0eWxlPSJlbmFibGUtYmFja2dyb3VuZDpuZXcgMCAwIDQ4IDQwLjk5OyIgeG1sOnNwYWNlPSJwcmVzZXJ2ZSI+JiN4YTs8c29kaXBvZGk6bmFtZWR2aWV3IGJvcmRlcmNvbG9yPSIjNjY2NjY2IiBib3JkZXJvcGFjaXR5PSIxIiBmaXQtbWFyZ2luLWJvdHRvbT0iMCIgZml0LW1hcmdpbi1sZWZ0PSIwIiBmaXQtbWFyZ2luLXJpZ2h0PSIwIiBmaXQtbWFyZ2luLXRvcD0iMCIgZ3JpZHRvbGVyYW5jZT0iMTAiIGd1aWRldG9sZXJhbmNlPSIxMCIgaWQ9Im5hbWVkdmlldzU1MzY4IiBpbmtzY2FwZTpjdXJyZW50LWxheWVyPSJzdmc1NTM2NiIgaW5rc2NhcGU6Y3g9IjQ5LjQ2MTI0NiIgaW5rc2NhcGU6Y3k9IjIzLjk2Nzc0MiIgaW5rc2NhcGU6cGFnZW9wYWNpdHk9IjAiIGlua3NjYXBlOnBhZ2VzaGFkb3c9IjIiIGlua3NjYXBlOndpbmRvdy1oZWlnaHQ9IjEwMTciIGlua3NjYXBlOndpbmRvdy1tYXhpbWl6ZWQ9IjEiIGlua3NjYXBlOndpbmRvdy13aWR0aD0iMTkyMCIgaW5rc2NhcGU6d2luZG93LXg9Ii04IiBpbmtzY2FwZTp3aW5kb3cteT0iLTgiIGlua3NjYXBlOnpvb209IjEwLjgyMDc2NSIgb2JqZWN0dG9sZXJhbmNlPSIxMCIgcGFnZWNvbG9yPSIjZmZmZmZmIiBzaG93Z3JpZD0iZmFsc2UiPiYjeGE7CTwvc29kaXBvZGk6bmFtZWR2aWV3PiYjeGE7PGcgaWQ9Imc1NTM2NCIgdHJhbnNmb3JtPSJ0cmFuc2xhdGUoLTAuNzUsLTAuNzU0KSI+JiN4YTsJPHRpdGxlIGlkPSJ0aXRsZTU1MzI0Ij5QYWdlLTE8L3RpdGxlPiYjeGE7CTxnIGlkPSJncm91cDUyMTYtMSIgdHJhbnNmb3JtPSJ0cmFuc2xhdGUoMC43NSwtMC43NSkiPiYjeGE7CQk8dGl0bGUgaWQ9InRpdGxlNTUzMjYiPkF6dXJlIEJsb2IgU3RvcmFnZTwvdGl0bGU+JiN4YTsJCTxnIGlkPSJzaGFwZTUyMTctMiI+JiN4YTsJCQk8dGl0bGUgaWQ9InRpdGxlNTUzMjgiPlNoZWV0LjUyMTc8L3RpdGxlPiYjeGE7CQkJPHBhdGggaWQ9InBhdGg1NTMzMCIgaW5rc2NhcGU6Y29ubmVjdG9yLWN1cnZhdHVyZT0iMCIgc3R5bGU9ImZpbGw6I0EwQTFBMjsiIGQ9Ik0wLDQwLjY3YzAsMC45NiwwLjc3LDEuODIsMS43MywxLjgyaDQ0LjQ1ICAgICBjMC45NiwwLDEuODItMC43NywxLjgyLTEuODJWOC44OUgwVjQwLjY3eiIvPiYjeGE7CQk8L2c+JiN4YTsJCTxnIGlkPSJzaGFwZTUyMTgtNCIgdHJhbnNmb3JtPSJ0cmFuc2xhdGUoMCwtMzMuNjk2KSI+JiN4YTsJCQk8dGl0bGUgaWQ9InRpdGxlNTUzMzMiPlNoZWV0LjUyMTg8L3RpdGxlPiYjeGE7CQkJPHBhdGggaWQ9InBhdGg1NTMzNSIgaW5rc2NhcGU6Y29ubmVjdG9yLWN1cnZhdHVyZT0iMCIgc3R5bGU9ImZpbGw6IzdBN0E3QTsiIGQ9Ik00Ni4xOCwzNS4ySDEuNzNDMC43NywzNS4yLDAsMzYuMDYsMCwzNy4wMiAgICAgdjUuNDdoNDh2LTUuNDdDNDgsMzYuMDYsNDcuMjMsMzUuMiw0Ni4xOCwzNS4yeiIvPiYjeGE7CQk8L2c+JiN4YTsJCTxnIGlkPSJzaGFwZTUyMTktNiIgdHJhbnNmb3JtPSJ0cmFuc2xhdGUoMy41NTIsLTE3Ljg1NikiPiYjeGE7CQkJPHRpdGxlIGlkPSJ0aXRsZTU1MzM4Ij5TaGVldC41MjE5PC90aXRsZT4mI3hhOwkJCTxyZWN0IGlkPSJyZWN0NTUzNDAiIHg9IjAiIHk9IjMwLjAxIiBzdHlsZT0iZmlsbDojMDA3MkM2OyIgd2lkdGg9IjE5LjU4IiBoZWlnaHQ9IjEyLjQ4Ii8+JiN4YTsJCTwvZz4mI3hhOwkJPGcgaWQ9InNoYXBlNTIyMC04IiB0cmFuc2Zvcm09InRyYW5zbGF0ZSgzLjU1MiwtMy42NDgpIj4mI3hhOwkJCTx0aXRsZSBpZD0idGl0bGU1NTM0MyI+U2hlZXQuNTIyMDwvdGl0bGU+JiN4YTsJCQk8cmVjdCBpZD0icmVjdDU1MzQ1IiB4PSIwIiB5PSIzMC4wMSIgc3R5bGU9ImZpbGw6IzAwNzJDNjsiIHdpZHRoPSIxOS41OCIgaGVpZ2h0PSIxMi40OCIvPiYjeGE7CQk8L2c+JiN4YTsJCTxnIGlkPSJzaGFwZTUyMjEtMTAiIHRyYW5zZm9ybT0idHJhbnNsYXRlKDI0Ljg2NCwtMTcuODU2KSI+JiN4YTsJCQk8dGl0bGUgaWQ9InRpdGxlNTUzNDgiPlNoZWV0LjUyMjE8L3RpdGxlPiYjeGE7CQkJPHJlY3QgaWQ9InJlY3Q1NTM1MCIgeD0iMCIgeT0iMzAuMDEiIHN0eWxlPSJmaWxsOiNGRkZGRkY7IiB3aWR0aD0iMTkuNDkiIGhlaWdodD0iMTIuNDgiLz4mI3hhOwkJPC9nPiYjeGE7CQk8ZyBpZD0ic2hhcGU1MjIyLTEyIiB0cmFuc2Zvcm09InRyYW5zbGF0ZSgyNC44NjQsLTMuNjQ4KSI+JiN4YTsJCQk8dGl0bGUgaWQ9InRpdGxlNTUzNTMiPlNoZWV0LjUyMjI8L3RpdGxlPiYjeGE7CQkJPHJlY3QgaWQ9InJlY3Q1NTM1NSIgeD0iMCIgeT0iMzAuMDEiIHN0eWxlPSJmaWxsOiMwMDcyQzY7IiB3aWR0aD0iMTkuNDkiIGhlaWdodD0iMTIuNDgiLz4mI3hhOwkJPC9nPiYjeGE7CQk8ZyBpZD0ic2hhcGU1MjIzLTE0IiB0cmFuc2Zvcm09InRyYW5zbGF0ZSgwLC0wLjA5NikiPiYjeGE7CQkJPHRpdGxlIGlkPSJ0aXRsZTU1MzU4Ij5TaGVldC41MjIzPC90aXRsZT4mI3hhOwkJCTxwYXRoIGlkPSJwYXRoNTUzNjAiIGlua3NjYXBlOmNvbm5lY3Rvci1jdXJ2YXR1cmU9IjAiIHN0eWxlPSJmaWxsOiNGRkZGRkY7ZmlsbC1vcGFjaXR5OjAuMjsiIGQ9Ik0xLjkyLDEuNiAgICAgQzAuODYsMS42LDAsMi40NiwwLDMuNTJ2N3YzLjE3djI2Ljg4YzAsMS4wNiwwLjg2LDEuOTIsMS45MiwxLjkyaDIuMTFMNDEuODYsMS42SDEuOTJ6Ii8+JiN4YTsJCTwvZz4mI3hhOwk8L2c+JiN4YTs8L2c+JiN4YTs8L3N2Zz4=;" vertex="1" parent="1">
          <mxGeometry x="120" y="760" width="48" height="41" as="geometry" />
        </mxCell>
        <mxCell id="wS5lQGi0n9frKkNvJUFP-15" value="Azure Monitoring" style="shape=image;verticalLabelPosition=bottom;labelBackgroundColor=#ffffff;verticalAlign=top;aspect=fixed;imageAspect=0;image=data:image/svg+xml,PHN2ZyB4bWxuczpjYz0iaHR0cDovL2NyZWF0aXZlY29tbW9ucy5vcmcvbnMjIiB4bWxuczpkYz0iaHR0cDovL3B1cmwub3JnL2RjL2VsZW1lbnRzLzEuMS8iIHhtbG5zOmlua3NjYXBlPSJodHRwOi8vd3d3Lmlua3NjYXBlLm9yZy9uYW1lc3BhY2VzL2lua3NjYXBlIiB4bWxuczpyZGY9Imh0dHA6Ly93d3cudzMub3JnLzE5OTkvMDIvMjItcmRmLXN5bnRheC1ucyMiIHhtbG5zOnNvZGlwb2RpPSJodHRwOi8vc29kaXBvZGkuc291cmNlZm9yZ2UubmV0L0RURC9zb2RpcG9kaS0wLmR0ZCIgeG1sbnM6c3ZnPSJodHRwOi8vd3d3LnczLm9yZy8yMDAwL3N2ZyIgeG1sbnM9Imh0dHA6Ly93d3cudzMub3JnLzIwMDAvc3ZnIiB4bWxuczp4bGluaz0iaHR0cDovL3d3dy53My5vcmcvMTk5OS94bGluayIgdmVyc2lvbj0iMS4xIiBpZD0ic3ZnNTkwNDkiIGlua3NjYXBlOnZlcnNpb249IjAuOTIuMyAoMjQwNTU0NiwgMjAxOC0wMy0xMSkiIHNvZGlwb2RpOmRvY25hbWU9ImF6dXJlX21vbml0b3Jpbmcuc3ZnIiB4PSIwcHgiIHk9IjBweCIgdmlld0JveD0iMCAwIDM3LjUxIDM3LjUxIiBzdHlsZT0iZW5hYmxlLWJhY2tncm91bmQ6bmV3IDAgMCAzNy41MSAzNy41MTsiIHhtbDpzcGFjZT0icHJlc2VydmUiPiYjeGE7PHNvZGlwb2RpOm5hbWVkdmlldyBib3JkZXJjb2xvcj0iIzY2NjY2NiIgYm9yZGVyb3BhY2l0eT0iMSIgZml0LW1hcmdpbi1ib3R0b209IjAiIGZpdC1tYXJnaW4tbGVmdD0iMCIgZml0LW1hcmdpbi1yaWdodD0iMCIgZml0LW1hcmdpbi10b3A9IjAiIGdyaWR0b2xlcmFuY2U9IjEwIiBndWlkZXRvbGVyYW5jZT0iMTAiIGlkPSJuYW1lZHZpZXc1OTA1MSIgaW5rc2NhcGU6Y3VycmVudC1sYXllcj0ic3ZnNTkwNDkiIGlua3NjYXBlOmN4PSIyOC40Mzg0NjYiIGlua3NjYXBlOmN5PSIxOS4zMzkwODkiIGlua3NjYXBlOnBhZ2VvcGFjaXR5PSIwIiBpbmtzY2FwZTpwYWdlc2hhZG93PSIyIiBpbmtzY2FwZTp3aW5kb3ctaGVpZ2h0PSIxMDE3IiBpbmtzY2FwZTp3aW5kb3ctbWF4aW1pemVkPSIxIiBpbmtzY2FwZTp3aW5kb3ctd2lkdGg9IjE5MjAiIGlua3NjYXBlOndpbmRvdy14PSItOCIgaW5rc2NhcGU6d2luZG93LXk9Ii04IiBpbmtzY2FwZTp6b29tPSIxMS43ODc1NDkiIG9iamVjdHRvbGVyYW5jZT0iMTAiIHBhZ2Vjb2xvcj0iI2ZmZmZmZiIgc2hvd2dyaWQ9ImZhbHNlIj4mI3hhOwk8L3NvZGlwb2RpOm5hbWVkdmlldz4mI3hhOzxnIGlkPSJnNTkwNDciIHRyYW5zZm9ybT0idHJhbnNsYXRlKC0wLjc0ODg1MTgsLTAuNzUzMTEyMjQpIj4mI3hhOwk8dGl0bGUgaWQ9InRpdGxlNTg5NzYiPlBhZ2UtMTwvdGl0bGU+JiN4YTsJPGcgaWQ9Imdyb3VwNTc0OC0xIiB0cmFuc2Zvcm09InRyYW5zbGF0ZSgxLjIzNDQ1LC0yLjUwNjg2KSI+JiN4YTsJCTx0aXRsZSBpZD0idGl0bGU1ODk3OCI+QXp1cmUgTW9uaXRvcmluZzwvdGl0bGU+JiN4YTsJCTxnIGlkPSJncm91cDU3NDktMiI+JiN4YTsJCQk8dGl0bGUgaWQ9InRpdGxlNTg5ODAiPmczODE0PC90aXRsZT4mI3hhOwkJCTxnIGlkPSJzaGFwZTU3NTAtMyIgdHJhbnNmb3JtPSJ0cmFuc2xhdGUoMTMuOTM0MiwtMi4wMzMyNCkiPiYjeGE7CQkJCTx0aXRsZSBpZD0idGl0bGU1ODk4MiI+cGF0aDM3NzU8L3RpdGxlPiYjeGE7CQkJCTxwYXRoIGlkPSJwYXRoNTg5ODQiIGlua3NjYXBlOmNvbm5lY3Rvci1jdXJ2YXR1cmU9IjAiIHN0eWxlPSJmaWxsOiNGRkZGRkY7IiBkPSJNMi43Miw4LjU5Yy04LjU1LDAuOS0xNC43NSw4LjU2LTEzLjg1LDE3LjExICAgICAgYzAuOSw4LjU1LDguNTYsMTQuNzUsMTcuMTEsMTMuODVjOC41NS0wLjksMTQuNzUtOC41NiwxMy44NS0xNy4xMWMtMC40NC00LjE1LTIuNTMtNy45Ni01LjgtMTAuNTZDMTEuMyw5LjY4LDcuOSw4LjQ5LDQuMzksOC41ICAgICAgQzMuODMsOC41LDMuMjcsOC41MywyLjcyLDguNTl6Ii8+JiN4YTsJCQk8L2c+JiN4YTsJCQk8ZyBpZD0ic2hhcGU1NzUxLTUiIHRyYW5zZm9ybT0idHJhbnNsYXRlKDUuODc3OTcsLTE2LjUyMjUpIj4mI3hhOwkJCQk8dGl0bGUgaWQ9InRpdGxlNTg5ODciPnBhdGgzNzc3PC90aXRsZT4mI3hhOwkJCQk8cGF0aCBpZD0icGF0aDU4OTg5IiBpbmtzY2FwZTpjb25uZWN0b3ItY3VydmF0dXJlPSIwIiBzdHlsZT0iZmlsbDojN0ZCQTAwO2ZpbGwtb3BhY2l0eTowLjQ7IiBkPSJNNiwzNC40bC0zLjc1LTMuMDcgICAgICBDMC42OCwzMy41Ny0wLjExLDM2LjI3LDAsMzkuMDFsNC44NC0wLjUxYzAtMS40NiwwLjQxLTIuODgsMS4xOS00LjExTDYsMzQuNHoiLz4mI3hhOwkJCQk8cGF0aCBpZD0icGF0aDU4OTkxIiBpbmtzY2FwZTpjb25uZWN0b3ItY3VydmF0dXJlPSIwIiBzdHlsZT0iZmlsbDpub25lOyIgZD0iTTYsMzQuNGwtMy43NS0zLjA3QzAuNjgsMzMuNTctMC4xMSwzNi4yNywwLDM5LjAxICAgICAgbDQuODQtMC41MWMwLTEuNDYsMC40MS0yLjg4LDEuMTktNC4xMSIvPiYjeGE7CQkJPC9nPiYjeGE7CQkJPGcgaWQ9InNoYXBlNTc1Mi04IiB0cmFuc2Zvcm09InRyYW5zbGF0ZSgxNy44NTU1LC0yMy40OTc1KSI+JiN4YTsJCQkJPHRpdGxlIGlkPSJ0aXRsZTU4OTk0Ij5wYXRoMzc3OTwvdGl0bGU+JiN4YTsJCQkJPHBhdGggaWQ9InBhdGg1ODk5NiIgaW5rc2NhcGU6Y29ubmVjdG9yLWN1cnZhdHVyZT0iMCIgc3R5bGU9ImZpbGw6IzdGQkEwMDtmaWxsLW9wYWNpdHk6MC44OyIgZD0iTTQuNjEsMzguOThsMy4wNy0zLjc1ICAgICAgQzUuNDQsMzMuNjYsMi43NCwzMi44NywwLDMyLjk4bDAuNTEsNC44NGMxLjQ1LDAsMi44NywwLjQxLDQuMSwxLjE5TDQuNjEsMzguOTh6Ii8+JiN4YTsJCQkJPHBhdGggaWQ9InBhdGg1ODk5OCIgaW5rc2NhcGU6Y29ubmVjdG9yLWN1cnZhdHVyZT0iMCIgc3R5bGU9ImZpbGw6bm9uZTsiIGQ9Ik00LjYxLDM4Ljk4bDMuMDctMy43NSAgICAgIEM1LjQ0LDMzLjY2LDIuNzQsMzIuODcsMCwzMi45OGwwLjUxLDQuODRjMS40NSwwLDIuODcsMC40MSw0LjEsMS4xOSIvPiYjeGE7CQkJPC9nPiYjeGE7CQkJPGcgaWQ9InNoYXBlNTc1My0xMSIgdHJhbnNmb3JtPSJ0cmFuc2xhdGUoOS4xNDc5NywtMjIuNDU1KSI+JiN4YTsJCQkJPHRpdGxlIGlkPSJ0aXRsZTU5MDAxIj5wYXRoMzc4MTwvdGl0bGU+JiN4YTsJCQkJPHBhdGggaWQ9InBhdGg1OTAwMyIgaW5rc2NhcGU6Y29ubmVjdG9yLWN1cnZhdHVyZT0iMCIgc3R5bGU9ImZpbGw6IzdGQkEwMDtmaWxsLW9wYWNpdHk6MC42OyIgZD0iTTcuNTIsMzYuOThsLTAuNTEtNC44NyAgICAgIEM0LjMyLDMyLjU5LDEuODUsMzMuOTQsMCwzNS45NWwzLjc1LDMuMDZjMS4wMy0xLjAzLDIuMzMtMS43NSwzLjc1LTIuMDdMNy41MiwzNi45OHoiLz4mI3hhOwkJCQk8cGF0aCBpZD0icGF0aDU5MDA1IiBpbmtzY2FwZTpjb25uZWN0b3ItY3VydmF0dXJlPSIwIiBzdHlsZT0iZmlsbDpub25lOyIgZD0iTTcuNTIsMzYuOThsLTAuNTEtNC44NyAgICAgIEM0LjMyLDMyLjU5LDEuODUsMzMuOTQsMCwzNS45NWwzLjc1LDMuMDZjMS4wMy0xLjAzLDIuMzMtMS43NSwzLjc1LTIuMDciLz4mI3hhOwkJCTwvZz4mI3hhOwkJCTxnIGlkPSJzaGFwZTU3NTQtMTQiIHRyYW5zZm9ybT0idHJhbnNsYXRlKDYuMDI3OTcsLTcuODA3NSkiPiYjeGE7CQkJCTx0aXRsZSBpZD0idGl0bGU1OTAwOCI+cGF0aDM3ODM8L3RpdGxlPiYjeGE7CQkJCTxwYXRoIGlkPSJwYXRoNTkwMTAiIGlua3NjYXBlOmNvbm5lY3Rvci1jdXJ2YXR1cmU9IjAiIHN0eWxlPSJmaWxsOiM3RkJBMDA7ZmlsbC1vcGFjaXR5OjAuMjU7IiBkPSJNNC44NCwzMS40OEwwLDMxLjk5ICAgICAgYzAuNDcsMi43LDEuODIsNS4xNiwzLjg0LDcuMDJsMy4wNi0zLjc1Yy0xLjAzLTEuMDMtMS43NC0yLjMzLTIuMDYtMy43NVYzMS40OHoiLz4mI3hhOwkJCQk8cGF0aCBpZD0icGF0aDU5MDEyIiBpbmtzY2FwZTpjb25uZWN0b3ItY3VydmF0dXJlPSIwIiBzdHlsZT0iZmlsbDpub25lOyIgZD0iTTQuODQsMzEuNDhMMCwzMS45OWMwLjQ3LDIuNywxLjgyLDUuMTYsMy44NCw3LjAyICAgICAgbDMuMDYtMy43NWMtMS4wMy0xLjAzLTEuNzQtMi4zMy0yLjA2LTMuNzUiLz4mI3hhOwkJCTwvZz4mI3hhOwkJCTxnIGlkPSJzaGFwZTU3NTUtMTciIHRyYW5zZm9ybT0idHJhbnNsYXRlKDEwLjM1NTUpIj4mI3hhOwkJCQk8dGl0bGUgaWQ9InRpdGxlNTkwMTUiPnBhdGgzNzg1PC90aXRsZT4mI3hhOwkJCQk8cGF0aCBpZD0icGF0aDU5MDE3IiBpbmtzY2FwZTpjb25uZWN0b3ItY3VydmF0dXJlPSIwIiBzdHlsZT0iZmlsbDojQTBBMUEyOyIgZD0iTTI2LjU3LDIwLjA2Yy0wLjUzLTQuOTktMy4wNC05LjU2LTYuOTUtMTIuNyAgICAgIGMtMC43NC0wLjU4LTEuNTEtMS4xMS0yLjMzLTEuNTdsLTEuNSwyLjgzYzAuNjMsMC4zNywxLjIyLDAuNzgsMS43OSwxLjIzYzYuNzMsNS4zNCw3Ljg1LDE1LjEzLDIuNTEsMjEuODUgICAgICBjLTIuNTksMy4yNy02LjM5LDUuMzYtMTAuNTQsNS44Yy0yLjc1LDAuMjktNS41My0wLjE3LTguMDUtMS4zMkwwLDM5LjAxYzkuMzksNC4zOCwyMC41NCwwLjMxLDI0LjkyLTkuMDcgICAgICBDMjYuMzUsMjYuODYsMjYuOTIsMjMuNDQsMjYuNTcsMjAuMDZ6Ii8+JiN4YTsJCQk8L2c+JiN4YTsJCQk8ZyBpZD0ic2hhcGU1NzU2LTE5IiB0cmFuc2Zvcm09InRyYW5zbGF0ZSgwLC0wLjAwNzUpIj4mI3hhOwkJCQk8dGl0bGUgaWQ9InRpdGxlNTkwMjAiPnBhdGgzNzg3PC90aXRsZT4mI3hhOwkJCQk8cGF0aCBpZD0icGF0aDU5MDIyIiBpbmtzY2FwZTpjb25uZWN0b3ItY3VydmF0dXJlPSIwIiBzdHlsZT0iZmlsbDojQTBBMUEyOyIgZD0iTTguNTMsMzQuMTNjLTYuNjktNS4zOS03Ljc0LTE1LjE4LTIuMzUtMjEuODcgICAgICBjNC44NS02LjAyLDEzLjM4LTcuNTYsMjAuMDMtMy42M2wxLjUtMi44M2MtOC00LjY0LTE4LjE5LTIuNzYtMjQsNC40NGMtNi41Miw4LTUuMzEsMTkuNzcsMi42OSwyNi4yOCAgICAgIGMxLjIyLDAuOTksMi41NiwxLjgzLDMuOTksMi40OWwxLjUtMi44M0MxMC42OSwzNS42NCw5LjU2LDM0Ljk1LDguNTMsMzQuMTN6Ii8+JiN4YTsJCQk8L2c+JiN4YTsJCQk8ZyBpZD0ic2hhcGU1NzU3LTIxIiB0cmFuc2Zvcm09InRyYW5zbGF0ZSgwLC0wLjAwNzUpIj4mI3hhOwkJCQk8dGl0bGUgaWQ9InRpdGxlNTkwMjUiPnBhdGgzNzg5PC90aXRsZT4mI3hhOwkJCQk8cGF0aCBpZD0icGF0aDU5MDI3IiBpbmtzY2FwZTpjb25uZWN0b3ItY3VydmF0dXJlPSIwIiBzdHlsZT0iZmlsbDojRkZGRkZGO2ZpbGwtb3BhY2l0eTowLjI7IiBkPSJNOC41MywzNC4xMyAgICAgIGMtNi42OS01LjM5LTcuNzQtMTUuMTgtMi4zNS0yMS44N2M0Ljg1LTYuMDIsMTMuMzgtNy41NiwyMC4wMy0zLjYzbDEuNS0yLjgzYy04LTQuNjQtMTguMTktMi43Ni0yNCw0LjQ0ICAgICAgYy02LjUyLDgtNS4zMSwxOS43NywyLjY5LDI2LjI4YzEuMjIsMC45OSwyLjU2LDEuODMsMy45OSwyLjQ5bDEuNS0yLjgzQzEwLjY5LDM1LjY0LDkuNTYsMzQuOTUsOC41MywzNC4xM3oiLz4mI3hhOwkJCTwvZz4mI3hhOwkJCTxnIGlkPSJzaGFwZTU3NTgtMjMiIHRyYW5zZm9ybT0idHJhbnNsYXRlKDIzLjc5NTUsLTE5LjkxMjUpIj4mI3hhOwkJCQk8dGl0bGUgaWQ9InRpdGxlNTkwMzAiPnBhdGgzNzkxPC90aXRsZT4mI3hhOwkJCQk8cGF0aCBpZD0icGF0aDU5MDMyIiBpbmtzY2FwZTpjb25uZWN0b3ItY3VydmF0dXJlPSIwIiBzdHlsZT0iZmlsbDojN0ZCQTAwOyIgZD0iTTMuMDYsMzIuNjhMMCwzNi40MyAgICAgIGMwLjczLDAuNzQsMS4zMSwxLjYxLDEuNjksMi41OGg1LjA5QzYuMiwzNi41Nyw0LjkxLDM0LjM3LDMuMDYsMzIuNjh6Ii8+JiN4YTsJCQk8L2c+JiN4YTsJCQk8ZyBpZD0ic2hhcGU1NzU5LTI1IiB0cmFuc2Zvcm09InRyYW5zbGF0ZSgxNi4zNTUxLC0xNC44NSkiPiYjeGE7CQkJCTx0aXRsZSBpZD0idGl0bGU1OTAzNSI+cGF0aDM3OTM8L3RpdGxlPiYjeGE7CQkJCTxwYXRoIGlkPSJwYXRoNTkwMzciIGlua3NjYXBlOmNvbm5lY3Rvci1jdXJ2YXR1cmU9IjAiIHN0eWxlPSJmaWxsOiNERDU5MDA7IiBkPSJNMC40OSwzOC4zOGMtMC44Ni0wLjg1LTAuODctMi4yNC0wLjAyLTMuMSAgICAgIGMwLjQxLTAuNDIsMC45OC0wLjY1LDEuNTYtMC42NWMwLjU4LTAuMDEsMS4xMywwLjIsMS41NSwwLjZoMTEuMmMwLjg4LTAuMDUsMS42NCwwLjYyLDEuNjgsMS41MXMtMC42MiwxLjY0LTEuNTEsMS42OCAgICAgIGMtMC4wNiwwLTAuMTIsMC0wLjE4LDBIMy40N2MtMC4zOSwwLjM2LTAuOTEsMC41Ny0xLjQ0LDAuNTlDMS40NSwzOS4wMSwwLjksMzguNzksMC40OSwzOC4zOHoiLz4mI3hhOwkJCTwvZz4mI3hhOwkJCTxnIGlkPSJzaGFwZTU3NjAtMjciIHRyYW5zZm9ybT0idHJhbnNsYXRlKDE2LjE5OCwtMTYuOTgpIj4mI3hhOwkJCQk8dGl0bGUgaWQ9InRpdGxlNTkwNDAiPnBhdGgzNzk1PC90aXRsZT4mI3hhOwkJCQk8cGF0aCBpZD0icGF0aDU5MDQyIiBpbmtzY2FwZTpjb25uZWN0b3ItY3VydmF0dXJlPSIwIiBzdHlsZT0iZmlsbDojRkY4QzAwOyIgZD0iTTE0LjkzLDM3LjQySDMuNzMgICAgICBjLTAuNDEtMC40LTAuOTctMC42Mi0xLjU0LTAuNjFDMC45OCwzNi44MSwwLDM3Ljc5LDAsMzljMCwwLDAsMC4wMSwwLDAuMDFoMTYuNUMxNi41LDM4LjE0LDE1LjgsMzcuNDMsMTQuOTMsMzcuNDJ6Ii8+JiN4YTsJCQk8L2c+JiN4YTsJCTwvZz4mI3hhOwk8L2c+JiN4YTs8L2c+JiN4YTs8L3N2Zz4=;" vertex="1" parent="1">
          <mxGeometry x="120" y="606.5" width="38" height="38" as="geometry" />
        </mxCell>
        <mxCell id="wS5lQGi0n9frKkNvJUFP-16" value="Azure Policy" style="shape=image;verticalLabelPosition=bottom;labelBackgroundColor=#ffffff;verticalAlign=top;aspect=fixed;imageAspect=0;image=data:image/svg+xml,PHN2ZyB4bWxuczpjYz0iaHR0cDovL2NyZWF0aXZlY29tbW9ucy5vcmcvbnMjIiB4bWxuczpkYz0iaHR0cDovL3B1cmwub3JnL2RjL2VsZW1lbnRzLzEuMS8iIHhtbG5zOmlua3NjYXBlPSJodHRwOi8vd3d3Lmlua3NjYXBlLm9yZy9uYW1lc3BhY2VzL2lua3NjYXBlIiB4bWxuczpyZGY9Imh0dHA6Ly93d3cudzMub3JnLzE5OTkvMDIvMjItcmRmLXN5bnRheC1ucyMiIHhtbG5zOnNvZGlwb2RpPSJodHRwOi8vc29kaXBvZGkuc291cmNlZm9yZ2UubmV0L0RURC9zb2RpcG9kaS0wLmR0ZCIgeG1sbnM6c3ZnPSJodHRwOi8vd3d3LnczLm9yZy8yMDAwL3N2ZyIgeG1sbnM9Imh0dHA6Ly93d3cudzMub3JnLzIwMDAvc3ZnIiB4bWxuczp4bGluaz0iaHR0cDovL3d3dy53My5vcmcvMTk5OS94bGluayIgdmVyc2lvbj0iMS4xIiBpZD0ic3ZnNTk2OTUiIGlua3NjYXBlOnZlcnNpb249IjAuOTIuMyAoMjQwNTU0NiwgMjAxOC0wMy0xMSkiIHNvZGlwb2RpOmRvY25hbWU9ImF6dXJlX3BvbGljeS5zdmciIHg9IjBweCIgeT0iMHB4IiB2aWV3Qm94PSIwIDAgNDEuODggNDYuNSIgc3R5bGU9ImVuYWJsZS1iYWNrZ3JvdW5kOm5ldyAwIDAgNDEuODggNDYuNTsiIHhtbDpzcGFjZT0icHJlc2VydmUiPiYjeGE7PHNvZGlwb2RpOm5hbWVkdmlldyBib3JkZXJjb2xvcj0iIzY2NjY2NiIgYm9yZGVyb3BhY2l0eT0iMSIgZml0LW1hcmdpbi1ib3R0b209IjAiIGZpdC1tYXJnaW4tbGVmdD0iMCIgZml0LW1hcmdpbi1yaWdodD0iMCIgZml0LW1hcmdpbi10b3A9IjAiIGdyaWR0b2xlcmFuY2U9IjEwIiBndWlkZXRvbGVyYW5jZT0iMTAiIGlkPSJuYW1lZHZpZXc1OTY5NyIgaW5rc2NhcGU6Y3VycmVudC1sYXllcj0ic3ZnNTk2OTUiIGlua3NjYXBlOmN4PSIyNS44NjIzMTciIGlua3NjYXBlOmN5PSIyOC43OTU0MTEiIGlua3NjYXBlOnBhZ2VvcGFjaXR5PSIwIiBpbmtzY2FwZTpwYWdlc2hhZG93PSIyIiBpbmtzY2FwZTp3aW5kb3ctaGVpZ2h0PSIxMDE3IiBpbmtzY2FwZTp3aW5kb3ctbWF4aW1pemVkPSIxIiBpbmtzY2FwZTp3aW5kb3ctd2lkdGg9IjE5MjAiIGlua3NjYXBlOndpbmRvdy14PSItOCIgaW5rc2NhcGU6d2luZG93LXk9Ii04IiBpbmtzY2FwZTp6b29tPSI5Ljg4ODAxODIiIG9iamVjdHRvbGVyYW5jZT0iMTAiIHBhZ2Vjb2xvcj0iI2ZmZmZmZiIgc2hvd2dyaWQ9ImZhbHNlIj4mI3hhOwk8L3NvZGlwb2RpOm5hbWVkdmlldz4mI3hhOzxnIGlkPSJnNTk2OTMiPiYjeGE7CTx0aXRsZSBpZD0idGl0bGU1OTY1MyI+UGFnZS0xPC90aXRsZT4mI3hhOwk8ZyBpZD0iZ3JvdXA1OTA3LTEiPiYjeGE7CQk8dGl0bGUgaWQ9InRpdGxlNTk2NTUiPkF6dXJlIFBvbGljeTwvdGl0bGU+JiN4YTsJCTxnIGlkPSJzaGFwZTU5MDgtMiIgdHJhbnNmb3JtPSJ0cmFuc2xhdGUoMTQuMTU5NiwtMTUuNDIwMSkiPiYjeGE7CQkJPHRpdGxlIGlkPSJ0aXRsZTU5NjU3Ij5TaGVldC41OTA4PC90aXRsZT4mI3hhOwkJCTxwYXRoIGlkPSJwYXRoNTk2NTkiIGlua3NjYXBlOmNvbm5lY3Rvci1jdXJ2YXR1cmU9IjAiIHN0eWxlPSJmaWxsOiM1OUI0RDk7IiBkPSJNMTMuNSwzOS43MmMwLDMuNzItMyw2Ljc4LTYuNzIsNi43OCAgICAgUzAsNDMuNDQsMCwzOS43MkMwLDM2LDMuMDYsMzMsNi43OCwzM1MxMy41LDM2LDEzLjUsMzkuNzJ6Ii8+JiN4YTsJCTwvZz4mI3hhOwkJPGcgaWQ9InNoYXBlNTkwOS00IiB0cmFuc2Zvcm09InRyYW5zbGF0ZSgyOC40MzkyLC0yNC45NjAyKSI+JiN4YTsJCQk8dGl0bGUgaWQ9InRpdGxlNTk2NjIiPlNoZWV0LjU5MDk8L3RpdGxlPiYjeGE7CQkJPHBhdGggaWQ9InBhdGg1OTY2NCIgaW5rc2NhcGU6Y29ubmVjdG9yLWN1cnZhdHVyZT0iMCIgc3R5bGU9ImZpbGw6IzU5QjREOTsiIGQ9Ik02Ljc4LDQzLjE0YzAsMS44Ni0xLjU2LDMuMzYtMy40MiwzLjM2ICAgICBTMCw0NSwwLDQzLjE0czEuNS0zLjM2LDMuMzYtMy4zNlM2Ljc4LDQxLjI4LDYuNzgsNDMuMTR6Ii8+JiN4YTsJCTwvZz4mI3hhOwkJPGcgaWQ9InNoYXBlNTkxMC02IiB0cmFuc2Zvcm09InRyYW5zbGF0ZSgyOC40MzkyLC0xMi42NjAxKSI+JiN4YTsJCQk8dGl0bGUgaWQ9InRpdGxlNTk2NjciPlNoZWV0LjU5MTA8L3RpdGxlPiYjeGE7CQkJPHBhdGggaWQ9InBhdGg1OTY2OSIgaW5rc2NhcGU6Y29ubmVjdG9yLWN1cnZhdHVyZT0iMCIgc3R5bGU9ImZpbGw6IzU5QjREOTsiIGQ9Ik02Ljc4LDQzLjA4YzAsMS44Ni0xLjU2LDMuNDItMy40MiwzLjQyICAgICBTMCw0NC45NCwwLDQzLjA4YzAtMS44NiwxLjUtMy4zNiwzLjM2LTMuMzZTNi43OCw0MS4yMiw2Ljc4LDQzLjA4eiIvPiYjeGE7CQk8L2c+JiN4YTsJCTxnIGlkPSJzaGFwZTU5MTEtOCIgdHJhbnNmb3JtPSJ0cmFuc2xhdGUoMzYuNTk5LC05LjA2MDA3KSI+JiN4YTsJCQk8dGl0bGUgaWQ9InRpdGxlNTk2NzIiPlNoZWV0LjU5MTE8L3RpdGxlPiYjeGE7CQkJPHBhdGggaWQ9InBhdGg1OTY3NCIgaW5rc2NhcGU6Y29ubmVjdG9yLWN1cnZhdHVyZT0iMCIgc3R5bGU9ImZpbGw6IzU5QjREOTsiIGQ9Ik01LjI4LDQzLjg2YzAsMS40NC0xLjIsMi42NC0yLjY0LDIuNjQgICAgIFMwLDQ1LjMsMCw0My44NnMxLjItMi42NCwyLjY0LTIuNjRTNS4yOCw0Mi40Miw1LjI4LDQzLjg2eiIvPiYjeGE7CQk8L2c+JiN4YTsJCTxnIGlkPSJzaGFwZTU5MTItMTAiIHRyYW5zZm9ybT0idHJhbnNsYXRlKDM2LjU5OSwtMzAuMDAwMikiPiYjeGE7CQkJPHRpdGxlIGlkPSJ0aXRsZTU5Njc3Ij5TaGVldC41OTEyPC90aXRsZT4mI3hhOwkJCTxwYXRoIGlkPSJwYXRoNTk2NzkiIGlua3NjYXBlOmNvbm5lY3Rvci1jdXJ2YXR1cmU9IjAiIHN0eWxlPSJmaWxsOiM1OUI0RDk7IiBkPSJNNS4yOCw0My44NmMwLDEuNDQtMS4yLDIuNjQtMi42NCwyLjY0ICAgICBTMCw0NS4zLDAsNDMuODZzMS4yLTIuNjQsMi42NC0yLjY0UzUuMjgsNDIuNDIsNS4yOCw0My44NnoiLz4mI3hhOwkJPC9nPiYjeGE7CQk8ZyBpZD0ic2hhcGU1OTEzLTEyIiB0cmFuc2Zvcm09InRyYW5zbGF0ZSgzNi41OTksLTE5LjU2MDIpIj4mI3hhOwkJCTx0aXRsZSBpZD0idGl0bGU1OTY4MiI+U2hlZXQuNTkxMzwvdGl0bGU+JiN4YTsJCQk8cGF0aCBpZD0icGF0aDU5Njg0IiBpbmtzY2FwZTpjb25uZWN0b3ItY3VydmF0dXJlPSIwIiBzdHlsZT0iZmlsbDojNTlCNEQ5OyIgZD0iTTUuMjgsNDMuODZjMCwxLjQ0LTEuMiwyLjY0LTIuNjQsMi42NCAgICAgUzAsNDUuMywwLDQzLjg2czEuMi0yLjY0LDIuNjQtMi42NFM1LjI4LDQyLjQyLDUuMjgsNDMuODZ6Ii8+JiN4YTsJCTwvZz4mI3hhOwkJPGcgaWQ9InNoYXBlNTkxNC0xNCI+JiN4YTsJCQk8dGl0bGUgaWQ9InRpdGxlNTk2ODciPlNoZWV0LjU5MTQ8L3RpdGxlPiYjeGE7CQkJPHBhdGggaWQ9InBhdGg1OTY4OSIgaW5rc2NhcGU6Y29ubmVjdG9yLWN1cnZhdHVyZT0iMCIgc3R5bGU9ImZpbGw6IzM5OTlDNjsiIGQ9Ik0zMC42LDM3Ljc0Yy0wLjM2LDAtMC43MiwwLjA2LTEuMDIsMC4yNGwwLDAgICAgIEwyMSw0Mi43OGwtMTcuMzQtOS42di0xOS4yTDIxLDQuMzhsOC41OCw0LjhsMCwwbDAsMGMyLjE2LDEuMjYsNC4wMi0xLjk4LDEuODYtMy4yNGwwLDBMMjEsMEwwLDExLjgydjIzLjUyTDIwLjk0LDQ2LjUgICAgIGwxMC41Ni01LjIybDAsMGwwLDBDMzMuMTgsNDAuMzgsMzIuNTIsMzcuNzQsMzAuNiwzNy43NHoiLz4mI3hhOwkJPC9nPiYjeGE7CTwvZz4mI3hhOzwvZz4mI3hhOzwvc3ZnPg==;" vertex="1" parent="1">
          <mxGeometry x="37.99999999999994" y="700" width="42" height="47" as="geometry" />
        </mxCell>
        <mxCell id="wS5lQGi0n9frKkNvJUFP-17" value="Azure Portal Resource Group" style="shape=image;verticalLabelPosition=bottom;labelBackgroundColor=#ffffff;verticalAlign=top;aspect=fixed;imageAspect=0;image=data:image/svg+xml,PHN2ZyB4bWxuczpjYz0iaHR0cDovL2NyZWF0aXZlY29tbW9ucy5vcmcvbnMjIiB4bWxuczpkYz0iaHR0cDovL3B1cmwub3JnL2RjL2VsZW1lbnRzLzEuMS8iIHhtbG5zOmlua3NjYXBlPSJodHRwOi8vd3d3Lmlua3NjYXBlLm9yZy9uYW1lc3BhY2VzL2lua3NjYXBlIiB4bWxuczpyZGY9Imh0dHA6Ly93d3cudzMub3JnLzE5OTkvMDIvMjItcmRmLXN5bnRheC1ucyMiIHhtbG5zOnNvZGlwb2RpPSJodHRwOi8vc29kaXBvZGkuc291cmNlZm9yZ2UubmV0L0RURC9zb2RpcG9kaS0wLmR0ZCIgeG1sbnM6c3ZnPSJodHRwOi8vd3d3LnczLm9yZy8yMDAwL3N2ZyIgeG1sbnM9Imh0dHA6Ly93d3cudzMub3JnLzIwMDAvc3ZnIiB4bWxuczp4bGluaz0iaHR0cDovL3d3dy53My5vcmcvMTk5OS94bGluayIgdmVyc2lvbj0iMS4xIiBpZD0ic3ZnNjA4MDMiIGlua3NjYXBlOnZlcnNpb249IjAuOTIuMyAoMjQwNTU0NiwgMjAxOC0wMy0xMSkiIHNvZGlwb2RpOmRvY25hbWU9ImF6dXJlX3BvcnRhbF9yZXNvdXJjZV9ncm91cHMuc3ZnIiB4PSIwcHgiIHk9IjBweCIgdmlld0JveD0iMCAwIDMwLjczIDI1LjgzIiBzdHlsZT0iZW5hYmxlLWJhY2tncm91bmQ6bmV3IDAgMCAzMC43MyAyNS44MzsiIHhtbDpzcGFjZT0icHJlc2VydmUiPiYjeGE7PHNvZGlwb2RpOm5hbWVkdmlldyBib3JkZXJjb2xvcj0iIzY2NjY2NiIgYm9yZGVyb3BhY2l0eT0iMSIgZml0LW1hcmdpbi1ib3R0b209IjAiIGZpdC1tYXJnaW4tbGVmdD0iMCIgZml0LW1hcmdpbi1yaWdodD0iMCIgZml0LW1hcmdpbi10b3A9IjAiIGdyaWR0b2xlcmFuY2U9IjEwIiBndWlkZXRvbGVyYW5jZT0iMTAiIGlkPSJuYW1lZHZpZXc2MDgwNSIgaW5rc2NhcGU6Y3VycmVudC1sYXllcj0ic3ZnNjA4MDMiIGlua3NjYXBlOmN4PSIxMi40OTE3MjQiIGlua3NjYXBlOmN5PSIxNi45Mjk2NTQiIGlua3NjYXBlOnBhZ2VvcGFjaXR5PSIwIiBpbmtzY2FwZTpwYWdlc2hhZG93PSIyIiBpbmtzY2FwZTp3aW5kb3ctaGVpZ2h0PSIxMDE3IiBpbmtzY2FwZTp3aW5kb3ctbWF4aW1pemVkPSIxIiBpbmtzY2FwZTp3aW5kb3ctd2lkdGg9IjE5MjAiIGlua3NjYXBlOndpbmRvdy14PSItOCIgaW5rc2NhcGU6d2luZG93LXk9Ii04IiBpbmtzY2FwZTp6b29tPSIxNy43OTg0MjciIG9iamVjdHRvbGVyYW5jZT0iMTAiIHBhZ2Vjb2xvcj0iI2ZmZmZmZiIgc2hvd2dyaWQ9ImZhbHNlIj4mI3hhOwk8L3NvZGlwb2RpOm5hbWVkdmlldz4mI3hhOzxnIGlkPSJnNjA4MDEiIHRyYW5zZm9ybT0idHJhbnNsYXRlKDAsLTMuNzk1ODg0NmUtNSkiPiYjeGE7CTx0aXRsZSBpZD0idGl0bGU2MDc3MSI+UGFnZS0xPC90aXRsZT4mI3hhOwk8ZyBpZD0iZ3JvdXA0MzAyLTEiPiYjeGE7CQk8dGl0bGUgaWQ9InRpdGxlNjA3NzMiPkF6dXJlIFBvcnRhbCAtIFJlc291cmNlIGdyb3VwczwvdGl0bGU+JiN4YTsJCTxnIGlkPSJzaGFwZTQzMDMtMiIgdHJhbnNmb3JtPSJ0cmFuc2xhdGUoNy41MDg3LC0xMy44NTYxKSI+JiN4YTsJCQk8dGl0bGUgaWQ9InRpdGxlNjA3NzUiPlNoZWV0LjQzMDM8L3RpdGxlPiYjeGE7CQkJPHBhdGggaWQ9InBhdGg2MDc3NyIgaW5rc2NhcGU6Y29ubmVjdG9yLWN1cnZhdHVyZT0iMCIgc3R5bGU9ImZpbGw6IzAwNzVDOTsiIGQ9Ik03LjksMjUuODNjLTAuMDQsMC0wLjA3LDAtMC4xMSwwICAgICBjLTcuNjYtNC4zNy03LjY2LTQuMzctNy42Ni00LjM3QzAuMDQsMjEuNDIsMCwyMS4zNCwwLDIxLjI1YzAtMC4wNywwLjA0LTAuMTQsMC4xMy0wLjE5YzcuNTctNC4zNCw3LjU3LTQuMzQsNy41Ny00LjM0ICAgICBjMC4wOS0wLjA1LDAuMTYtMC4wNSwwLjI1LDBjNy42NSw0LjM5LDcuNjUsNC4zOSw3LjY1LDQuMzljMC4wOSwwLjAzLDAuMTIsMC4xMSwwLjEyLDAuMTljMCwwLjA5LTAuMDMsMC4xNi0wLjEyLDAuMiAgICAgYy03LjYxLDQuMzMtNy42MSw0LjMzLTcuNjEsNC4zM0M3Ljk1LDI1LjgzLDcuOTUsMjUuODMsNy45LDI1LjgzeiIvPiYjeGE7CQk8L2c+JiN4YTsJCTxnIGlkPSJzaGFwZTQzMDQtNCIgdHJhbnNmb3JtPSJ0cmFuc2xhdGUoNi4zMzU0NywtMy4wNTMwNSkiPiYjeGE7CQkJPHRpdGxlIGlkPSJ0aXRsZTYwNzgwIj5TaGVldC40MzA0PC90aXRsZT4mI3hhOwkJCTxwYXRoIGlkPSJwYXRoNjA3ODIiIGlua3NjYXBlOmNvbm5lY3Rvci1jdXJ2YXR1cmU9IjAiIHN0eWxlPSJmaWxsOiMwMEFFRUY7IiBkPSJNNy45OCwyNS44M2MtMC4wNSwwLTAuMDktMC4wMy0wLjEzLTAuMDMgICAgIGMtNy43Mi00LjM3LTcuNzItNC4zNy03LjcyLTQuMzdDMC4wNCwyMS40LDAsMjEuMzEsMCwyMS4yNGMwLTguNzgsMC04Ljc4LDAtOC43OGMwLTAuMDksMC4wNC0wLjE2LDAuMTMtMC4yICAgICBjMC4wOC0wLjA1LDAuMTYtMC4wNSwwLjI1LDBjNy43Miw0LjM3LDcuNzIsNC4zNyw3LjcyLDQuMzdjMC4wOCwwLjAzLDAuMTEsMC4xMiwwLjExLDAuMTljMCw4Ljc4LDAsOC43OCwwLDguNzggICAgIGMwLDAuMDktMC4wMywwLjE2LTAuMTEsMC4yQzguMDUsMjUuOCw4LjAyLDI1LjgzLDcuOTgsMjUuODN6Ii8+JiN4YTsJCTwvZz4mI3hhOwkJPGcgaWQ9InNoYXBlNDMwNS02IiB0cmFuc2Zvcm09InRyYW5zbGF0ZSgxNi4xOTA2LC0zLjA1MzA1KSI+JiN4YTsJCQk8dGl0bGUgaWQ9InRpdGxlNjA3ODUiPlNoZWV0LjQzMDU8L3RpdGxlPiYjeGE7CQkJPHBhdGggaWQ9InBhdGg2MDc4NyIgaW5rc2NhcGU6Y29ubmVjdG9yLWN1cnZhdHVyZT0iMCIgc3R5bGU9ImZpbGw6IzJCQUFFMTsiIGQ9Ik0wLjI1LDI1LjgzYy0wLjA0LDAtMC4wNy0wLjAzLTAuMTItMC4wMyAgICAgQzAuMDQsMjUuNzYsMCwyNS42OSwwLDI1LjZjMC04Ljc2LDAtOC43NiwwLTguNzZjMC0wLjA4LDAuMDQtMC4xNywwLjEzLTAuMmM3LjcyLTQuMzgsNy43Mi00LjM4LDcuNzItNC4zOCAgICAgYzAuMDgtMC4wNSwwLjE3LTAuMDUsMC4yNSwwYzAuMDQsMC4wNCwwLjExLDAuMTEsMC4xMSwwLjJjMCw4Ljc2LDAsOC43NiwwLDguNzZjMCwwLjA4LTAuMDcsMC4xNy0wLjExLDAuMiAgICAgQzAuMzgsMjUuOCwwLjM4LDI1LjgsMC4zOCwyNS44QzAuMzQsMjUuOCwwLjI5LDI1LjgzLDAuMjUsMjUuODN6Ii8+JiN4YTsJCTwvZz4mI3hhOwkJPGcgaWQ9InNoYXBlNDMwNi04IiB0cmFuc2Zvcm09InRyYW5zbGF0ZSgyMy40NjQ3KSI+JiN4YTsJCQk8dGl0bGUgaWQ9InRpdGxlNjA3OTAiPlNoZWV0LjQzMDY8L3RpdGxlPiYjeGE7CQkJPHBhdGggaWQ9InBhdGg2MDc5MiIgaW5rc2NhcGU6Y29ubmVjdG9yLWN1cnZhdHVyZT0iMCIgc3R5bGU9ImZpbGw6IzkzOTU5ODsiIGQ9Ik00LjQ3LDBDMCwwLDAsMCwwLDBjMCwxLjI2LDAsMS4yNiwwLDEuMjYgICAgIGM0LjQ3LDAsNC40NywwLDQuNDcsMGMwLjg3LDAsMS41OSwwLjcyLDEuNTksMS41N2MwLDIwLjE5LDAsMjAuMTksMCwyMC4xOWMwLDAuODgtMC43MiwxLjU3LTEuNTksMS41N2MtNC40NywwLTQuNDcsMC00LjQ3LDAgICAgIGMwLDEuMjQsMCwxLjI0LDAsMS4yNGM0LjQ3LDAsNC40NywwLDQuNDcsMGMxLjU0LDAsMi44LTEuMjQsMi44LTIuODFjMC0yMC4xOSwwLTIwLjE5LDAtMjAuMTlDNy4yNywxLjMxLDYuMDEsMCw0LjQ3LDB6Ii8+JiN4YTsJCTwvZz4mI3hhOwkJPGcgaWQ9InNoYXBlNDMwNy0xMCI+JiN4YTsJCQk8dGl0bGUgaWQ9InRpdGxlNjA3OTUiPlNoZWV0LjQzMDc8L3RpdGxlPiYjeGE7CQkJPHBhdGggaWQ9InBhdGg2MDc5NyIgaW5rc2NhcGU6Y29ubmVjdG9yLWN1cnZhdHVyZT0iMCIgc3R5bGU9ImZpbGw6IzkzOTU5ODsiIGQ9Ik0yLjgyLDI0LjU5Yy0wLjg3LDAtMS41OS0wLjY5LTEuNTktMS41NyAgICAgYzAtMjAuMTksMC0yMC4xOSwwLTIwLjE5YzAtMC44NSwwLjcyLTEuNTcsMS41OS0xLjU3YzQuNDUsMCw0LjQ1LDAsNC40NSwwYzAtMS4yNiwwLTEuMjYsMC0xLjI2QzIuODIsMCwyLjgyLDAsMi44MiwwICAgICBDMS4yOCwwLDAsMS4zMSwwLDIuODNjMCwyMC4xOSwwLDIwLjE5LDAsMjAuMTljMCwxLjU3LDEuMjgsMi44MSwyLjgyLDIuODFjNC40NSwwLDQuNDUsMCw0LjQ1LDBjMC0xLjI0LDAtMS4yNCwwLTEuMjRIMi44MnoiLz4mI3hhOwkJPC9nPiYjeGE7CTwvZz4mI3hhOzwvZz4mI3hhOzwvc3ZnPg==;" vertex="1" parent="1">
          <mxGeometry x="200.1900000000001" y="644.5" width="31" height="26" as="geometry" />
        </mxCell>
        <mxCell id="wS5lQGi0n9frKkNvJUFP-18" value="" style="shape=image;verticalLabelPosition=bottom;verticalAlign=top;imageAspect=0;aspect=fixed;image=data:image/svg+xml,PHN2ZyB4bWxuczpkYz0iaHR0cDovL3B1cmwub3JnL2RjL2VsZW1lbnRzLzEuMS8iIHhtbG5zOmNjPSJodHRwOi8vY3JlYXRpdmVjb21tb25zLm9yZy9ucyMiIHhtbG5zOnJkZj0iaHR0cDovL3d3dy53My5vcmcvMTk5OS8wMi8yMi1yZGYtc3ludGF4LW5zIyIgeG1sbnM6c3ZnPSJodHRwOi8vd3d3LnczLm9yZy8yMDAwL3N2ZyIgeG1sbnM9Imh0dHA6Ly93d3cudzMub3JnLzIwMDAvc3ZnIiB4bWxuczpzb2RpcG9kaT0iaHR0cDovL3NvZGlwb2RpLnNvdXJjZWZvcmdlLm5ldC9EVEQvc29kaXBvZGktMC5kdGQiIHhtbG5zOmlua3NjYXBlPSJodHRwOi8vd3d3Lmlua3NjYXBlLm9yZy9uYW1lc3BhY2VzL2lua3NjYXBlIiB2ZXJzaW9uPSIxLjEiIGlkPSJMYXllcl8xIiB4PSIwcHgiIHk9IjBweCIgd2lkdGg9IjUwIiBoZWlnaHQ9IjUwIiB2aWV3Qm94PSIwIDAgNTAgNTAiIGVuYWJsZS1iYWNrZ3JvdW5kPSJuZXcgMCAwIDUwIDUwIiB4bWw6c3BhY2U9InByZXNlcnZlIiBzb2RpcG9kaTpkb2NuYW1lPSJkZXZpY2VzX2dyb3Vwcy5zdmciIGlua3NjYXBlOnZlcnNpb249IjAuOTIuMyAoMjQwNTU0NiwgMjAxOC0wMy0xMSkiPjxtZXRhZGF0YSBpZD0ibWV0YWRhdGExMDkwOSI+PHJkZjpSREY+PGNjOldvcmsgcmRmOmFib3V0PSIiPjxkYzpmb3JtYXQ+aW1hZ2Uvc3ZnK3htbDwvZGM6Zm9ybWF0PjxkYzp0eXBlIHJkZjpyZXNvdXJjZT0iaHR0cDovL3B1cmwub3JnL2RjL2RjbWl0eXBlL1N0aWxsSW1hZ2UiLz48ZGM6dGl0bGUvPjwvY2M6V29yaz48L3JkZjpSREY+PC9tZXRhZGF0YT48ZGVmcyBpZD0iZGVmczEwOTA3Ii8+PHNvZGlwb2RpOm5hbWVkdmlldyBwYWdlY29sb3I9IiNmZmZmZmYiIGJvcmRlcmNvbG9yPSIjNjY2NjY2IiBib3JkZXJvcGFjaXR5PSIxIiBvYmplY3R0b2xlcmFuY2U9IjEwIiBncmlkdG9sZXJhbmNlPSIxMCIgZ3VpZGV0b2xlcmFuY2U9IjEwIiBpbmtzY2FwZTpwYWdlb3BhY2l0eT0iMCIgaW5rc2NhcGU6cGFnZXNoYWRvdz0iMiIgaW5rc2NhcGU6d2luZG93LXdpZHRoPSIxOTIwIiBpbmtzY2FwZTp3aW5kb3ctaGVpZ2h0PSIxMDE3IiBpZD0ibmFtZWR2aWV3MTA5MDUiIHNob3dncmlkPSJmYWxzZSIgZml0LW1hcmdpbi10b3A9IjAiIGZpdC1tYXJnaW4tbGVmdD0iMCIgZml0LW1hcmdpbi1yaWdodD0iMCIgZml0LW1hcmdpbi1ib3R0b209IjAiIGlua3NjYXBlOnpvb209IjE3IiBpbmtzY2FwZTpjeD0iMjUiIGlua3NjYXBlOmN5PSIyNSIgaW5rc2NhcGU6d2luZG93LXg9Ii04IiBpbmtzY2FwZTp3aW5kb3cteT0iLTgiIGlua3NjYXBlOndpbmRvdy1tYXhpbWl6ZWQ9IjEiIGlua3NjYXBlOmN1cnJlbnQtbGF5ZXI9IkxheWVyXzEiLz4mI3hhOzxwYXRoIGQ9Im0gNDYsMzMgYyAwLDEuNjU3IC0xLjM1OSwzIC0zLjAzNiwzIEggMy4wMzYgQyAxLjM1OSwzNiAwLDM0LjY1NyAwLDMzIFYgMyBDIDAsMS4zNDMgMS4zNTksMCAzLjAzNiwwIEggNDIuOTY0IEMgNDQuNjQxLDAgNDYsMS4zNDMgNDYsMyBaIiBpZD0icGF0aDEwODg4IiBpbmtzY2FwZTpjb25uZWN0b3ItY3VydmF0dXJlPSIwIiBzdHlsZT0iZmlsbDojM2UzZTNlIi8+JiN4YTs8cmVjdCB4PSIyLjk2MTk5OTkiIHk9IjUiIHdpZHRoPSI0MC4wMzc5OTgiIGhlaWdodD0iMjYiIGlkPSJyZWN0MTA4OTAiIHN0eWxlPSJmaWxsOiMzOTk5YzYiLz4mI3hhOzxwYXRoIGQ9Im0gMjYsMi42ODkgYyAwLDAuMzggLTAuMzA4LDAuNjg4IC0wLjY4OCwwLjY4OCBIIDIwLjg5IEMgMjAuNTA5LDMuMzc3IDIwLjIsMy4wNjkgMjAuMiwyLjY4OSAyMC4yLDIuMzA5IDIwLjUwOSwyIDIwLjg5LDIgaCA0LjQyMiBDIDI1LjY5MiwyIDI2LDIuMzA5IDI2LDIuNjg5IiBpZD0icGF0aDEwODkyIiBpbmtzY2FwZTpjb25uZWN0b3ItY3VydmF0dXJlPSIwIiBzdHlsZT0iZmlsbDojZmZmZmZmIi8+JiN4YTs8cGF0aCBlbmFibGUtYmFja2dyb3VuZD0ibmV3ICAgICIgZD0iTSAzMSwwIEggMyBDIDEuMzQzLDAgMCwxLjM0MyAwLDMgdiAzMCBjIDAsMS42NTggMS4zNDMsMyAzLDMgaCAxMiB6IiBpZD0icGF0aDEwODk0IiBpbmtzY2FwZTpjb25uZWN0b3ItY3VydmF0dXJlPSIwIiBzdHlsZT0ib3BhY2l0eTowLjE1O2ZpbGw6I2ZmZmZmZiIvPiYjeGE7PHBhdGggZD0iTSA1MCw0Ny41NDUgQyA1MCw0OC45MDEgNDguOTEzLDUwIDQ3LjU3Miw1MCBIIDI5LjQyOCBDIDI4LjA4Nyw1MCAyNyw0OC45MDEgMjcsNDcuNTQ1IFYgMTYuNDU1IEMgMjcsMTUuMDk5IDI4LjA4NywxNCAyOS40MjgsMTQgSCA0Ny41NzEgQyA0OC45MTMsMTQgNTAsMTUuMDk5IDUwLDE2LjQ1NSBaIiBpZD0icGF0aDEwODk2IiBpbmtzY2FwZTpjb25uZWN0b3ItY3VydmF0dXJlPSIwIiBzdHlsZT0iZmlsbDojM2UzZTNlIi8+JiN4YTs8cmVjdCB4PSIyOSIgeT0iMTgiIHdpZHRoPSIxOSIgaGVpZ2h0PSIyNyIgaWQ9InJlY3QxMDg5OCIgc3R5bGU9ImZpbGw6IzU5YjRkOSIvPiYjeGE7PHBhdGggZD0ibSA0Mi42MDcsMTYuMTcxIGMgMCwwLjMzNSAtMC40MzYsMC42MDYgLTAuOTc0LDAuNjA2IEggMzUuMzcgYyAtMC41NCwwIC0wLjk3NywtMC4yNzEgLTAuOTc3LC0wLjYwNiAwLC0wLjMzNSAwLjQzNywtMC42MDcgMC45NzcsLTAuNjA3IGggNi4yNjMgYyAwLjUzOCwwIDAuOTc0LDAuMjcyIDAuOTc0LDAuNjA3IiBpZD0icGF0aDEwOTAwIiBpbmtzY2FwZTpjb25uZWN0b3ItY3VydmF0dXJlPSIwIiBzdHlsZT0iZmlsbDojZmZmZmZmIi8+JiN4YTs8cGF0aCBlbmFibGUtYmFja2dyb3VuZD0ibmV3ICAgICIgZD0iTSA0NS4wODksMTQgSCAyOS40NjQgQyAyOC4xMDMsMTQgMjcsMTUuMDk5IDI3LDE2LjQ1NSBWIDQ3LjU0NiBDIDI3LDQ4LjkwMiAyOC4xMDMsNTAgMjkuNDY0LDUwIEggMzEuNiBaIiBpZD0icGF0aDEwOTAyIiBpbmtzY2FwZTpjb25uZWN0b3ItY3VydmF0dXJlPSIwIiBzdHlsZT0ib3BhY2l0eTowLjE1O2ZpbGw6I2ZmZmZmZiIvPiYjeGE7PC9zdmc+;labelBackgroundColor=#F5F5F5;" vertex="1" parent="1">
          <mxGeometry x="200" y="720" width="50" height="50" as="geometry" />
        </mxCell>
        <mxCell id="wS5lQGi0n9frKkNvJUFP-21" style="edgeStyle=orthogonalEdgeStyle;rounded=0;orthogonalLoop=1;jettySize=auto;html=1;exitX=0.5;exitY=1;exitDx=0;exitDy=0;" edge="1" parent="1" source="wS5lQGi0n9frKkNvJUFP-6" target="wS5lQGi0n9frKkNvJUFP-6">
          <mxGeometry relative="1" as="geometry" />
        </mxCell>
        <mxCell id="wS5lQGi0n9frKkNvJUFP-24" value="" style="endArrow=classic;startArrow=classic;html=1;entryX=0.5;entryY=0;entryDx=0;entryDy=0;strokeColor=#666666;" edge="1" parent="1" target="wS5lQGi0n9frKkNvJUFP-3">
          <mxGeometry width="50" height="50" relative="1" as="geometry">
            <mxPoint x="509" y="360" as="sourcePoint" />
            <mxPoint x="340" y="360" as="targetPoint" />
          </mxGeometry>
        </mxCell>
        <mxCell id="wS5lQGi0n9frKkNvJUFP-25" value="Key Vault&#xa;L2S M2M" style="shape=image;verticalLabelPosition=bottom;labelBackgroundColor=#F5F5F5;verticalAlign=top;aspect=fixed;imageAspect=0;image=data:image/svg+xml,PHN2ZyB4bWxuczpjYz0iaHR0cDovL2NyZWF0aXZlY29tbW9ucy5vcmcvbnMjIiB4bWxuczpkYz0iaHR0cDovL3B1cmwub3JnL2RjL2VsZW1lbnRzLzEuMS8iIHhtbG5zOmlua3NjYXBlPSJodHRwOi8vd3d3Lmlua3NjYXBlLm9yZy9uYW1lc3BhY2VzL2lua3NjYXBlIiB4bWxuczpyZGY9Imh0dHA6Ly93d3cudzMub3JnLzE5OTkvMDIvMjItcmRmLXN5bnRheC1ucyMiIHhtbG5zOnNvZGlwb2RpPSJodHRwOi8vc29kaXBvZGkuc291cmNlZm9yZ2UubmV0L0RURC9zb2RpcG9kaS0wLmR0ZCIgeG1sbnM6c3ZnPSJodHRwOi8vd3d3LnczLm9yZy8yMDAwL3N2ZyIgeG1sbnM9Imh0dHA6Ly93d3cudzMub3JnLzIwMDAvc3ZnIiB4bWxuczp4bGluaz0iaHR0cDovL3d3dy53My5vcmcvMTk5OS94bGluayIgdmVyc2lvbj0iMS4xIiBpZD0ic3ZnNjg3MjMiIGlua3NjYXBlOnZlcnNpb249IjAuOTIuMyAoMjQwNTU0NiwgMjAxOC0wMy0xMSkiIHNvZGlwb2RpOmRvY25hbWU9ImtleV92YXVsdC5zdmciIHg9IjBweCIgeT0iMHB4IiB2aWV3Qm94PSIwIDAgMzQuNjIgMzguNTYiIHN0eWxlPSJlbmFibGUtYmFja2dyb3VuZDpuZXcgMCAwIDM0LjYyIDM4LjU2OyIgeG1sOnNwYWNlPSJwcmVzZXJ2ZSI+JiN4YTs8c29kaXBvZGk6bmFtZWR2aWV3IGJvcmRlcmNvbG9yPSIjNjY2NjY2IiBib3JkZXJvcGFjaXR5PSIxIiBmaXQtbWFyZ2luLWJvdHRvbT0iMCIgZml0LW1hcmdpbi1sZWZ0PSIwIiBmaXQtbWFyZ2luLXJpZ2h0PSIwIiBmaXQtbWFyZ2luLXRvcD0iMCIgZ3JpZHRvbGVyYW5jZT0iMTAiIGd1aWRldG9sZXJhbmNlPSIxMCIgaWQ9Im5hbWVkdmlldzY4NzI1IiBpbmtzY2FwZTpjdXJyZW50LWxheWVyPSJzdmc2ODcyMyIgaW5rc2NhcGU6Y3g9IjM1LjUzNzc2IiBpbmtzY2FwZTpjeT0iLTIzLjg1ODA4IiBpbmtzY2FwZTpwYWdlb3BhY2l0eT0iMCIgaW5rc2NhcGU6cGFnZXNoYWRvdz0iMiIgaW5rc2NhcGU6d2luZG93LWhlaWdodD0iMTAxNyIgaW5rc2NhcGU6d2luZG93LW1heGltaXplZD0iMSIgaW5rc2NhcGU6d2luZG93LXdpZHRoPSIxOTIwIiBpbmtzY2FwZTp3aW5kb3cteD0iLTgiIGlua3NjYXBlOndpbmRvdy15PSItOCIgaW5rc2NhcGU6em9vbT0iMi43NTEzMzA1IiBvYmplY3R0b2xlcmFuY2U9IjEwIiBwYWdlY29sb3I9IiNmZmZmZmYiIHNob3dncmlkPSJmYWxzZSI+JiN4YTsJPC9zb2RpcG9kaTpuYW1lZHZpZXc+JiN4YTs8ZyBpZD0iZzY4NzIxIiB0cmFuc2Zvcm09InRyYW5zbGF0ZSgtMTguNTYyNTk2LC0wLjk2Njg2KSI+JiN4YTsJPHRpdGxlIGlkPSJ0aXRsZTY4NzA2Ij5QYWdlLTE8L3RpdGxlPiYjeGE7CTxnIGlkPSJncm91cDQ0OTktMSIgdHJhbnNmb3JtPSJ0cmFuc2xhdGUoMTguNTYyNSwtNDQuMDI5NSkiPiYjeGE7CQk8dGl0bGUgaWQ9InRpdGxlNjg3MDgiPktleSBWYXVsdDwvdGl0bGU+JiN4YTsJCTxnIGlkPSJzaGFwZTQ1MDAtMiI+JiN4YTsJCQk8dGl0bGUgaWQ9InRpdGxlNjg3MTAiPlNoZWV0LjQ1MDA8L3RpdGxlPiYjeGE7CQkJPHBhdGggaWQ9InBhdGg2ODcxMiIgaW5rc2NhcGU6Y29ubmVjdG9yLWN1cnZhdHVyZT0iMCIgc3R5bGU9ImZpbGw6IzNGNTc2NTsiIGQ9Ik0zNC42Miw2Ni4zM2MwLTUuNjQtMi43MS0xMC41OS02LjgtMTMuNzYgICAgIGMwLDAuMTYsMCwwLjM5LDAsMC41NGMwLDEuNy0wLjQ3LDMuMzMtMS4xNiw0LjcyYzIuMDEsMi4yNCwzLjI0LDUuMTcsMy4yNCw4LjQyYzAsNi45NS01LjY0LDEyLjYtMTIuNTksMTIuNiAgICAgYy02Ljk2LDAtMTIuNi01LjY1LTEyLjYtMTIuNmMwLTMuNDgsMS4zOS02LjU3LDMuNjQtOC44OWMtMC42Mi0xLjMxLTEuMDEtMi43OC0xLjAxLTQuMzJjMC0wLjMxLDAtMC43LDAuMDgtMS4wMSAgICAgQzIuOTQsNTUuMTIsMCw2MC4zOCwwLDY2LjI1YzAsOS41OCw3LjczLDE3LjMxLDE3LjMxLDE3LjMxUzM0LjYyLDc1LjkxLDM0LjYyLDY2LjMzeiIvPiYjeGE7CQk8L2c+JiN4YTsJCTxnIGlkPSJzaGFwZTQ1MDEtNCIgdHJhbnNmb3JtPSJ0cmFuc2xhdGUoOS41ODE4MiwtOC4xMTM2NCkiPiYjeGE7CQkJPHRpdGxlIGlkPSJ0aXRsZTY4NzE1Ij5TaGVldC40NTAxPC90aXRsZT4mI3hhOwkJCTxwYXRoIGlkPSJwYXRoNjg3MTciIGlua3NjYXBlOmNvbm5lY3Rvci1jdXJ2YXR1cmU9IjAiIHN0eWxlPSJmaWxsOiMzRjU3NjU7IiBkPSJNNy45Niw1My4xMUMzLjU1LDUzLjExLDAsNTYuNjcsMCw2MS4wNyAgICAgYzAsMy42MywyLjQsNi42NSw1LjcyLDcuNjV2Ny44OEgyLjAxdjQuMDJoMy43MXYyLjk0aDQuNFY2OC43MmMzLjMzLTAuOTIsNS43Mi00LjAyLDUuNzItNy42NSAgICAgQzE1LjkyLDU2LjY3LDEyLjM2LDUzLjExLDcuOTYsNTMuMTF6IE03Ljk2LDU3LjI5YzIuMDksMCwzLjc5LDEuNywzLjc5LDMuNzhjMCwyLjA5LTEuNywzLjc5LTMuNzksMy43OXMtMy43OS0xLjctMy43OS0zLjc5ICAgICBDNC4xNyw1OC45OSw1Ljg3LDU3LjI5LDcuOTYsNTcuMjl6Ii8+JiN4YTsJCTwvZz4mI3hhOwk8L2c+JiN4YTs8L2c+JiN4YTs8L3N2Zz4=;strokeColor=#666666;" vertex="1" parent="1">
          <mxGeometry x="355.44" y="427" width="47.56" height="53" as="geometry" />
        </mxCell>
        <mxCell id="wS5lQGi0n9frKkNvJUFP-26" value="" style="endArrow=classic;html=1;strokeColor=#666666;entryX=1;entryY=0.5;entryDx=0;entryDy=0;" edge="1" parent="1" target="wS5lQGi0n9frKkNvJUFP-25">
          <mxGeometry width="50" height="50" relative="1" as="geometry">
            <mxPoint x="474" y="454" as="sourcePoint" />
            <mxPoint x="340" y="360" as="targetPoint" />
          </mxGeometry>
        </mxCell>
        <mxCell id="wS5lQGi0n9frKkNvJUFP-27" value="" style="endArrow=classic;startArrow=classic;html=1;dashed=1;strokeColor=#666666;entryX=1;entryY=0.5;entryDx=0;entryDy=0;exitX=-0.009;exitY=0.164;exitDx=0;exitDy=0;exitPerimeter=0;" edge="1" parent="1" source="wS5lQGi0n9frKkNvJUFP-6" target="wS5lQGi0n9frKkNvJUFP-1">
          <mxGeometry width="50" height="50" relative="1" as="geometry">
            <mxPoint x="120" y="190" as="sourcePoint" />
            <mxPoint x="150" y="260" as="targetPoint" />
          </mxGeometry>
        </mxCell>
        <mxCell id="wS5lQGi0n9frKkNvJUFP-28" value="L2S WebServer" style="shape=image;verticalLabelPosition=bottom;labelBackgroundColor=none;verticalAlign=top;aspect=fixed;imageAspect=0;image=data:image/svg+xml,PHN2ZyB4bWxuczpjYz0iaHR0cDovL2NyZWF0aXZlY29tbW9ucy5vcmcvbnMjIiB4bWxuczpkYz0iaHR0cDovL3B1cmwub3JnL2RjL2VsZW1lbnRzLzEuMS8iIHhtbG5zOmlua3NjYXBlPSJodHRwOi8vd3d3Lmlua3NjYXBlLm9yZy9uYW1lc3BhY2VzL2lua3NjYXBlIiB4bWxuczpyZGY9Imh0dHA6Ly93d3cudzMub3JnLzE5OTkvMDIvMjItcmRmLXN5bnRheC1ucyMiIHhtbG5zOnNvZGlwb2RpPSJodHRwOi8vc29kaXBvZGkuc291cmNlZm9yZ2UubmV0L0RURC9zb2RpcG9kaS0wLmR0ZCIgeG1sbnM6c3ZnPSJodHRwOi8vd3d3LnczLm9yZy8yMDAwL3N2ZyIgeG1sbnM9Imh0dHA6Ly93d3cudzMub3JnLzIwMDAvc3ZnIiB4bWxuczp4bGluaz0iaHR0cDovL3d3dy53My5vcmcvMTk5OS94bGluayIgdmVyc2lvbj0iMS4xIiBpZD0ic3ZnMTE3MDkiIGlua3NjYXBlOnZlcnNpb249IjAuOTIuMyAoMjQwNTU0NiwgMjAxOC0wMy0xMSkiIHNvZGlwb2RpOmRvY25hbWU9IndlYl9zZXJ2ZXIuc3ZnIiB4PSIwcHgiIHk9IjBweCIgdmlld0JveD0iMCAwIDU4Ljc3IDY5Ljc1IiBzdHlsZT0iZW5hYmxlLWJhY2tncm91bmQ6bmV3IDAgMCA1OC43NyA2OS43NTsiIHhtbDpzcGFjZT0icHJlc2VydmUiPiYjeGE7PHNvZGlwb2RpOm5hbWVkdmlldyBib3JkZXJjb2xvcj0iIzY2NjY2NiIgYm9yZGVyb3BhY2l0eT0iMSIgZml0LW1hcmdpbi1ib3R0b209IjAiIGZpdC1tYXJnaW4tbGVmdD0iMCIgZml0LW1hcmdpbi1yaWdodD0iMCIgZml0LW1hcmdpbi10b3A9IjAiIGdyaWR0b2xlcmFuY2U9IjEwIiBndWlkZXRvbGVyYW5jZT0iMTAiIGlkPSJuYW1lZHZpZXcxMTcxMSIgaW5rc2NhcGU6Y3VycmVudC1sYXllcj0ic3ZnMTE3MDkiIGlua3NjYXBlOmN4PSIyOS42Mzk2NjgiIGlua3NjYXBlOmN5PSI0MC4wNzc3NjYiIGlua3NjYXBlOnBhZ2VvcGFjaXR5PSIwIiBpbmtzY2FwZTpwYWdlc2hhZG93PSIyIiBpbmtzY2FwZTp3aW5kb3ctaGVpZ2h0PSIxMDE3IiBpbmtzY2FwZTp3aW5kb3ctbWF4aW1pemVkPSIxIiBpbmtzY2FwZTp3aW5kb3ctd2lkdGg9IjE5MjAiIGlua3NjYXBlOndpbmRvdy14PSItOCIgaW5rc2NhcGU6d2luZG93LXk9Ii04IiBpbmtzY2FwZTp6b29tPSI2LjQ1MzI4MTkiIG9iamVjdHRvbGVyYW5jZT0iMTAiIHBhZ2Vjb2xvcj0iI2ZmZmZmZiIgc2hvd2dyaWQ9ImZhbHNlIj4mI3hhOwk8L3NvZGlwb2RpOm5hbWVkdmlldz4mI3hhOzxnIGlkPSJnMTE3MDciIHRyYW5zZm9ybT0idHJhbnNsYXRlKC0wLjc1MDAzNjE5LC0wLjc1KSI+JiN4YTsJPHRpdGxlIGlkPSJ0aXRsZTExNTgzIj5QYWdlLTE8L3RpdGxlPiYjeGE7CTxnIGlkPSJncm91cDIzODMtMSIgdHJhbnNmb3JtPSJ0cmFuc2xhdGUoMS41LC0xLjUpIj4mI3hhOwkJPHRpdGxlIGlkPSJ0aXRsZTExNTg1Ij5XZWIgU2VydmVyPC90aXRsZT4mI3hhOwkJPGcgaWQ9Imdyb3VwMjM4NC0yIj4mI3hhOwkJCTx0aXRsZSBpZD0idGl0bGUxMTU4NyI+U2hlZXQuMjM4NDwvdGl0bGU+JiN4YTsJCQk8ZyBpZD0iZ3JvdXAyMzg1LTMiPiYjeGE7CQkJCTx0aXRsZSBpZD0idGl0bGUxMTU4OSI+ZzE2NDA4PC90aXRsZT4mI3hhOwkJCQk8ZyBpZD0ic2hhcGUyMzg2LTQiPiYjeGE7CQkJCQk8dGl0bGUgaWQ9InRpdGxlMTE1OTEiPnJlY3QxNjM4MDwvdGl0bGU+JiN4YTsJCQkJCSYjeGE7CQkJCQkJPHJlY3QgaWQ9InJlY3QxMTU5MyIgeD0iMCIgeT0iMyIgc3R5bGU9ImZpbGw6I0ZGRkZGRjtzdHJva2U6IzU1NkE4QTtzdHJva2Utd2lkdGg6MS41O3N0cm9rZS1taXRlcmxpbWl0OjM7IiB3aWR0aD0iMzkuNzUiIGhlaWdodD0iNjguMjUiLz4mI3hhOwkJCQk8L2c+JiN4YTsJCQkJPGcgaWQ9Imdyb3VwMjM4Ny02IiB0cmFuc2Zvcm09InRyYW5zbGF0ZSgxLjUsLTAuNzUpIj4mI3hhOwkJCQkJPHRpdGxlIGlkPSJ0aXRsZTExNTk2Ij5nMTY0MDA8L3RpdGxlPiYjeGE7CQkJCQk8ZyBpZD0ic2hhcGUyMzg4LTciIHRyYW5zZm9ybT0idHJhbnNsYXRlKDE4KSI+JiN4YTsJCQkJCQk8dGl0bGUgaWQ9InRpdGxlMTE1OTgiPnJlY3QxNjM4MjwvdGl0bGU+JiN4YTsJCQkJCQk8cmVjdCBpZD0icmVjdDExNjAwIiB4PSIwIiB5PSI0LjUiIHN0eWxlPSJmaWxsOiNFNUU1RTU7IiB3aWR0aD0iMTkuNSIgaGVpZ2h0PSI2Ni43NSIvPiYjeGE7CQkJCQk8L2c+JiN4YTsJCQkJCTxnIGlkPSJzaGFwZTIzODktOSIgdHJhbnNmb3JtPSJ0cmFuc2xhdGUoMCwtNDgpIj4mI3hhOwkJCQkJCTx0aXRsZSBpZD0idGl0bGUxMTYwMyI+cmVjdDE2Mzg0PC90aXRsZT4mI3hhOwkJCQkJCTxyZWN0IGlkPSJyZWN0MTE2MDUiIHg9IjAiIHk9IjY5IiBzdHlsZT0iZmlsbDojMkJDN0Y0OyIgd2lkdGg9IjE4IiBoZWlnaHQ9IjIuMjUiLz4mI3hhOwkJCQkJPC9nPiYjeGE7CQkJCQk8ZyBpZD0ic2hhcGUyMzkwLTExIiB0cmFuc2Zvcm09InRyYW5zbGF0ZSgwLC01OC41KSI+JiN4YTsJCQkJCQk8dGl0bGUgaWQ9InRpdGxlMTE2MDgiPnBvbHlnb24xNjM4NjwvdGl0bGU+JiN4YTsJCQkJCQk8cmVjdCBpZD0icmVjdDExNjEwIiB4PSIwIiB5PSI2OSIgc3R5bGU9ImZpbGw6bm9uZTsiIHdpZHRoPSIyNyIgaGVpZ2h0PSIyLjI1Ii8+JiN4YTsJCQkJCTwvZz4mI3hhOwkJCQkJPGcgaWQ9InNoYXBlMjM5MS0xMyIgdHJhbnNmb3JtPSJ0cmFuc2xhdGUoMCwtNTguNSkiPiYjeGE7CQkJCQkJPHRpdGxlIGlkPSJ0aXRsZTExNjEzIj5wb2x5bGluZTE2Mzg4PC90aXRsZT4mI3hhOwkJCQkJCTxyZWN0IGlkPSJyZWN0MTE2MTUiIHg9IjAiIHk9IjY5IiBzdHlsZT0iZmlsbDpub25lOyIgd2lkdGg9IjI3IiBoZWlnaHQ9IjIuMjUiLz4mI3hhOwkJCQkJPC9nPiYjeGE7CQkJCQk8ZyBpZD0ic2hhcGUyMzkyLTE1IiB0cmFuc2Zvcm09InRyYW5zbGF0ZSgwLC01My4yNSkiPiYjeGE7CQkJCQkJPHRpdGxlIGlkPSJ0aXRsZTExNjE4Ij5yZWN0MTYzOTA8L3RpdGxlPiYjeGE7CQkJCQkJPHJlY3QgaWQ9InJlY3QxMTYyMCIgeD0iMCIgeT0iNjkiIHN0eWxlPSJmaWxsOiMyQkM3RjQ7IiB3aWR0aD0iMTgiIGhlaWdodD0iMi4yNSIvPiYjeGE7CQkJCQk8L2c+JiN4YTsJCQkJCTxnIGlkPSJzaGFwZTIzOTMtMTciIHRyYW5zZm9ybT0idHJhbnNsYXRlKDAsLTU4LjUpIj4mI3hhOwkJCQkJCTx0aXRsZSBpZD0idGl0bGUxMTYyMyI+cmVjdDE2MzkyPC90aXRsZT4mI3hhOwkJCQkJCTxyZWN0IGlkPSJyZWN0MTE2MjUiIHg9IjAiIHk9IjY5IiBzdHlsZT0iZmlsbDojMkJDN0Y0OyIgd2lkdGg9IjE4IiBoZWlnaHQ9IjIuMjUiLz4mI3hhOwkJCQkJPC9nPiYjeGE7CQkJCQk8ZyBpZD0ic2hhcGUyMzk0LTE5IiB0cmFuc2Zvcm09InRyYW5zbGF0ZSgxOCwtNDgpIj4mI3hhOwkJCQkJCTx0aXRsZSBpZD0idGl0bGUxMTYyOCI+cmVjdDE2Mzk0PC90aXRsZT4mI3hhOwkJCQkJCTxyZWN0IGlkPSJyZWN0MTE2MzAiIHg9IjAiIHk9IjY5IiBzdHlsZT0iZmlsbDojNTU2QThBOyIgd2lkdGg9IjE5LjUiIGhlaWdodD0iMi4yNSIvPiYjeGE7CQkJCQk8L2c+JiN4YTsJCQkJCTxnIGlkPSJzaGFwZTIzOTUtMjEiIHRyYW5zZm9ybT0idHJhbnNsYXRlKDE4LC01My4yNSkiPiYjeGE7CQkJCQkJPHRpdGxlIGlkPSJ0aXRsZTExNjMzIj5yZWN0MTYzOTY8L3RpdGxlPiYjeGE7CQkJCQkJPHJlY3QgaWQ9InJlY3QxMTYzNSIgeD0iMCIgeT0iNjkiIHN0eWxlPSJmaWxsOiM1NTZBOEE7IiB3aWR0aD0iMTkuNSIgaGVpZ2h0PSIyLjI1Ii8+JiN4YTsJCQkJCTwvZz4mI3hhOwkJCQkJPGcgaWQ9InNoYXBlMjM5Ni0yMyIgdHJhbnNmb3JtPSJ0cmFuc2xhdGUoMTgsLTU4LjUpIj4mI3hhOwkJCQkJCTx0aXRsZSBpZD0idGl0bGUxMTYzOCI+cmVjdDE2Mzk4PC90aXRsZT4mI3hhOwkJCQkJCTxyZWN0IGlkPSJyZWN0MTE2NDAiIHg9IjAiIHk9IjY5IiBzdHlsZT0iZmlsbDojNTU2QThBOyIgd2lkdGg9IjE5LjUiIGhlaWdodD0iMi4yNSIvPiYjeGE7CQkJCQk8L2c+JiN4YTsJCQkJPC9nPiYjeGE7CQkJCTxnIGlkPSJzaGFwZTIzOTctMjUiIHRyYW5zZm9ybT0idHJhbnNsYXRlKDAuNzUsLTU5LjI1KSI+JiN4YTsJCQkJCTx0aXRsZSBpZD0idGl0bGUxMTY0NCI+cmVjdDE2NDAyPC90aXRsZT4mI3hhOwkJCQkJPHJlY3QgaWQ9InJlY3QxMTY0NiIgeD0iMCIgeT0iNjkiIHN0eWxlPSJmaWxsOiM1NTZBOEE7IiB3aWR0aD0iMi4yNSIgaGVpZ2h0PSIyLjI1Ii8+JiN4YTsJCQkJPC9nPiYjeGE7CQkJCTxnIGlkPSJzaGFwZTIzOTgtMjciIHRyYW5zZm9ybT0idHJhbnNsYXRlKDAuNzUsLTU0KSI+JiN4YTsJCQkJCTx0aXRsZSBpZD0idGl0bGUxMTY0OSI+cmVjdDE2NDA0PC90aXRsZT4mI3hhOwkJCQkJPHJlY3QgaWQ9InJlY3QxMTY1MSIgeD0iMCIgeT0iNjkiIHN0eWxlPSJmaWxsOiM1NTZBOEE7IiB3aWR0aD0iMi4yNSIgaGVpZ2h0PSIyLjI1Ii8+JiN4YTsJCQkJPC9nPiYjeGE7CQkJCTxnIGlkPSJzaGFwZTIzOTktMjkiIHRyYW5zZm9ybT0idHJhbnNsYXRlKDAuNzUsLTQ4Ljc1KSI+JiN4YTsJCQkJCTx0aXRsZSBpZD0idGl0bGUxMTY1NCI+cmVjdDE2NDA2PC90aXRsZT4mI3hhOwkJCQkJPHJlY3QgaWQ9InJlY3QxMTY1NiIgeD0iMCIgeT0iNjkiIHN0eWxlPSJmaWxsOiM1NTZBOEE7IiB3aWR0aD0iMi4yNSIgaGVpZ2h0PSIyLjI1Ii8+JiN4YTsJCQkJPC9nPiYjeGE7CQkJPC9nPiYjeGE7CQk8L2c+JiN4YTsJCTxnIGlkPSJncm91cDI0MDAtMzEiIHRyYW5zZm9ybT0idHJhbnNsYXRlKDI0LjA2NTgsLTIuMjc3NjcpIj4mI3hhOwkJCTx0aXRsZSBpZD0idGl0bGUxMTY2MSI+SFRUUC4xNDcyNDwvdGl0bGU+JiN4YTsJCQk8ZyBpZD0ic2hhcGUyNDAxLTMyIiB0cmFuc2Zvcm09InRyYW5zbGF0ZSg1LjAzOTM3LC01LjE4NjkxKSI+JiN4YTsJCQkJPHRpdGxlIGlkPSJ0aXRsZTExNjYzIj5wYXRoOTYxMDwvdGl0bGU+JiN4YTsJCQkJJiN4YTsJCQkJCTxwYXRoIGlkPSJwYXRoMTE2NjUiIGlua3NjYXBlOmNvbm5lY3Rvci1jdXJ2YXR1cmU9IjAiIHN0eWxlPSJmaWxsOiNGRkZGRkY7c3Ryb2tlOiM1NTZBOEE7c3Ryb2tlLXdpZHRoOjAuNzU7c3Ryb2tlLW1pdGVybGltaXQ6MzsiIGQ9IiAgICAgIE0yOC4xOCw1OS41OGMwLDkuMTItNy4zOSwxNi41MS0xNi41MSwxNi41MVMtNC44NCw2OC43LTQuODQsNTkuNThjMC05LjEyLDcuMzktMTYuNTEsMTYuNTEtMTYuNTEgICAgICBDMjAuNzksNDMuMDgsMjguMTcsNTAuNDYsMjguMTgsNTkuNTh6Ii8+JiN4YTsJCQk8L2c+JiN4YTsJCQk8ZyBpZD0ic2hhcGUyNDAyLTM0IiB0cmFuc2Zvcm09InRyYW5zbGF0ZSgwLjIwMzczMiwtMC4zNTEyNzQpIj4mI3hhOwkJCQk8dGl0bGUgaWQ9InRpdGxlMTE2NjgiPnBhdGg5NjEyPC90aXRsZT4mI3hhOwkJCQkmI3hhOwkJCQkJPHBhdGggaWQ9InBhdGgxMTY3MCIgaW5rc2NhcGU6Y29ubmVjdG9yLWN1cnZhdHVyZT0iMCIgc3R5bGU9ImZpbGw6I0Q0RTJGNTtzdHJva2U6IzU1NkE4QTtzdHJva2Utd2lkdGg6MC43NTtzdHJva2UtbWl0ZXJsaW1pdDozOyIgZD0iICAgICAgTTMzLjAyLDU0Ljc0YzAsOS4xMi03LjM5LDE2LjUxLTE2LjUxLDE2LjUxQzcuMzksNzEuMjUsMCw2My44NiwwLDU0Ljc0YzAsMCwwLDAsMCwwSDMzLjAyeiIvPiYjeGE7CQkJPC9nPiYjeGE7CQkJPGcgaWQ9InNoYXBlMjQwMy0zNiIgdHJhbnNmb3JtPSJ0cmFuc2xhdGUoMS4yNTc1NSwtNC45Mzg1MikiPiYjeGE7CQkJCTx0aXRsZSBpZD0idGl0bGUxMTY3MyI+cGF0aDk2MTQ8L3RpdGxlPiYjeGE7CQkJCSYjeGE7CQkJCQk8cGF0aCBpZD0icGF0aDExNjc1IiBpbmtzY2FwZTpjb25uZWN0b3ItY3VydmF0dXJlPSIwIiBzdHlsZT0iZmlsbDojNTU2QThBO3N0cm9rZTojNTU2QThBO3N0cm9rZS13aWR0aDowLjc1O3N0cm9rZS1taXRlcmxpbWl0OjM7IiBkPSIgICAgICBNMTUuNDYsNDMuODdjOC41NCwwLDE1LjQ1LDYuOTIsMTUuNDUsMTUuNDZjMCw4LjU0LTYuOTIsMTUuNDUtMTUuNDYsMTUuNDVDNi45Miw3NC43OCwwLDY3Ljg2LDAsNTkuMzMgICAgICBDMCw1MC43OSw2LjkyLDQzLjg3LDE1LjQ2LDQzLjg3QzE1LjQ1LDQzLjg3LDE1LjQ2LDQzLjg3LDE1LjQ2LDQzLjg3eiBNMTUuNDYsNDIuNDdjLTkuMzEsMC0xNi44Niw3LjU1LTE2Ljg2LDE2Ljg2ICAgICAgczcuNTUsMTYuODYsMTYuODYsMTYuODZzMTYuODYtNy41NSwxNi44Ni0xNi44NmMwLDAsMCwwLDAsMEMzMi4zMiw1MC4wMiwyNC43Nyw0Mi40NywxNS40Niw0Mi40N3oiLz4mI3hhOwkJCTwvZz4mI3hhOwkJCTxnIGlkPSJncm91cDI0MDQtMzgiPiYjeGE7CQkJCTx0aXRsZSBpZD0idGl0bGUxMTY3OCI+Zzk2MjA8L3RpdGxlPiYjeGE7CQkJCTxnIGlkPSJzaGFwZTI0MDUtMzkiIHRyYW5zZm9ybT0idHJhbnNsYXRlKDguOTg1NTkpIj4mI3hhOwkJCQkJPHRpdGxlIGlkPSJ0aXRsZTExNjgwIj5wYXRoOTYxNjwvdGl0bGU+JiN4YTsJCQkJCSYjeGE7CQkJCQkJPHBhdGggaWQ9InBhdGgxMTY4MiIgaW5rc2NhcGU6Y29ubmVjdG9yLWN1cnZhdHVyZT0iMCIgc3R5bGU9ImZpbGw6IzU1NkE4QTtzdHJva2U6IzU1NkE4QTtzdHJva2Utd2lkdGg6MC43NTtzdHJva2UtbWl0ZXJsaW1pdDozOyIgZD0iICAgICAgIE03LjM4LDM5LjEyYzIuODEsMCw1Ljk3LDYuNTcsNS45NywxNS4zNnMtMy4xNiwxNS4zNi01Ljk3LDE1LjM2cy01Ljk3LTYuNTYtNS45Ny0xNS4zNVM0LjU3LDM5LjEyLDcuMzgsMzkuMTJ6IE03LjM4LDM3LjcyICAgICAgIEMzLjMsMzcuNzIsMCw0NS4yMiwwLDU0LjQ4czMuMywxNi43Nyw3LjM4LDE2Ljc3YzQuMDcsMCw3LjM3LTcuNSw3LjM3LTE2Ljc2UzExLjQ1LDM3LjcyLDcuMzgsMzcuNzJ6Ii8+JiN4YTsJCQkJPC9nPiYjeGE7CQkJCTxnIGlkPSJzaGFwZTI0MDYtNDEiIHRyYW5zZm9ybT0idHJhbnNsYXRlKDAsLTE2Ljg2MTIpIj4mI3hhOwkJCQkJPHRpdGxlIGlkPSJ0aXRsZTExNjg1Ij5saW5lOTYxODwvdGl0bGU+JiN4YTsJCQkJCSYjeGE7CQkJCQkJPHBhdGggaWQ9InBhdGgxMTY4NyIgaW5rc2NhcGU6Y29ubmVjdG9yLWN1cnZhdHVyZT0iMCIgc3R5bGU9ImZpbGw6bm9uZTtzdHJva2U6IzU1NkE4QTtzdHJva2Utd2lkdGg6MS41O3N0cm9rZS1taXRlcmxpbWl0OjM7IiBkPSIgICAgICAgTTAsNzEuMjVoMzIuODciLz4mI3hhOwkJCQk8L2c+JiN4YTsJCQk8L2c+JiN4YTsJCQk8ZyBpZD0ic2hhcGUyNDA3LTQ0IiB0cmFuc2Zvcm09InRyYW5zbGF0ZSg0LjA3NDc3LC0yNS4yOTE3KSI+JiN4YTsJCQkJPHRpdGxlIGlkPSJ0aXRsZTExNjkxIj5wYXRoOTYyMjwvdGl0bGU+JiN4YTsJCQkJPHBhdGggaWQ9InBhdGgxMTY5MyIgaW5rc2NhcGU6Y29ubmVjdG9yLWN1cnZhdHVyZT0iMCIgc3R5bGU9ImZpbGw6bm9uZTsiIGQ9Ik0wLDY5LjM1YzMuMDgsMS4yLDcuNjEsMS45LDEyLjY0LDEuOSAgICAgIHM5LjU1LTAuNywxMi42NC0xLjlIMHoiLz4mI3hhOwkJCQkmI3hhOwkJCQkJPHBhdGggaWQ9InBhdGgxMTY5NSIgaW5rc2NhcGU6Y29ubmVjdG9yLWN1cnZhdHVyZT0iMCIgc3R5bGU9ImZpbGw6bm9uZTtzdHJva2U6IzU1NkE4QTtzdHJva2Utd2lkdGg6MS41O3N0cm9rZS1taXRlcmxpbWl0OjM7IiBkPSIgICAgICBNMCw2OS4zNWMzLjA4LDEuMiw3LjYxLDEuOSwxMi42NCwxLjlzOS41NS0wLjcsMTIuNjQtMS45Ii8+JiN4YTsJCQk8L2c+JiN4YTsJCQk8ZyBpZD0ic2hhcGUyNDA4LTQ3IiB0cmFuc2Zvcm09InRyYW5zbGF0ZSg0LjA3NDc3LC02LjUyNjY4KSI+JiN4YTsJCQkJPHRpdGxlIGlkPSJ0aXRsZTExNjk4Ij5wYXRoOTYyNDwvdGl0bGU+JiN4YTsJCQkJPHBhdGggaWQ9InBhdGgxMTcwMCIgaW5rc2NhcGU6Y29ubmVjdG9yLWN1cnZhdHVyZT0iMCIgc3R5bGU9ImZpbGw6bm9uZTsiIGQ9Ik0wLDcxLjI1YzMuMDgtMS4yLDcuNjEtMS45LDEyLjY0LTEuOSAgICAgIHM5LjU1LDAuNywxMi42NCwxLjlIMHoiLz4mI3hhOwkJCQkmI3hhOwkJCQkJPHBhdGggaWQ9InBhdGgxMTcwMiIgaW5rc2NhcGU6Y29ubmVjdG9yLWN1cnZhdHVyZT0iMCIgc3R5bGU9ImZpbGw6bm9uZTtzdHJva2U6IzU1NkE4QTtzdHJva2Utd2lkdGg6MS41O3N0cm9rZS1taXRlcmxpbWl0OjM7IiBkPSIgICAgICBNMCw3MS4yNWMzLjA4LTEuMiw3LjYxLTEuOSwxMi42NC0xLjlzOS41NSwwLjcsMTIuNjQsMS45Ii8+JiN4YTsJCQk8L2c+JiN4YTsJCTwvZz4mI3hhOwk8L2c+JiN4YTs8L2c+JiN4YTs8L3N2Zz4=;" vertex="1" parent="1">
          <mxGeometry x="700" y="418.5" width="59" height="70" as="geometry" />
        </mxCell>
        <mxCell id="wS5lQGi0n9frKkNvJUFP-29" value="" style="endArrow=classic;startArrow=classic;html=1;entryX=1;entryY=0.5;entryDx=0;entryDy=0;dashed=1;strokeColor=#666666;" edge="1" parent="1" source="wS5lQGi0n9frKkNvJUFP-28" target="wS5lQGi0n9frKkNvJUFP-3">
          <mxGeometry width="50" height="50" relative="1" as="geometry">
            <mxPoint x="701" y="670.5" as="sourcePoint" />
            <mxPoint x="530" y="550.75" as="targetPoint" />
          </mxGeometry>
        </mxCell>
      </root>
    </mxGraphModel>
  </diagram>
</mxfile>
